<svg id="Layer_1" data-name="Layer 1" xmlns="http://www.w3.org/2000/svg" viewBox="0 0 133.65 76.67"><defs><style>.cls-1{fill:white;}.cls-2{fill:white;}.cls-3{fill:white;}</style></defs><path class="cls-1" d="M.19,66.33A.18.18,0,0,1,0,66.14v0a.51.51,0,0,1,.09-.26A3.2,3.2,0,0,0,.74,64V55.74a3.25,3.25,0,0,0-.65-1.86A.45.45,0,0,1,0,53.63v0a.18.18,0,0,1,.19-.19H4.92c2.15,0,5.23,1.43,5.23,6.46s-3.08,6.47-5.23,6.47Zm3.62-.74c1.71,0,3.76-1.15,3.76-5.74s-2.05-5.71-3.76-5.71h-.5V65.59Z"/><path class="cls-1" d="M14.14,60.23v5.36h2.43a4.68,4.68,0,0,0,2.63-.87l.17-.13a.52.52,0,0,1,.33-.12.16.16,0,0,1,.17.19l-.13,1.28a.42.42,0,0,1-.43.39H11a.18.18,0,0,1-.19-.19v0a.51.51,0,0,1,.09-.26A3.2,3.2,0,0,0,11.57,64V55.74a3.25,3.25,0,0,0-.65-1.86.45.45,0,0,1-.09-.25v0A.18.18,0,0,1,11,53.4h8.1a.41.41,0,0,1,.43.39l.13,1.28c0,.11-.06.18-.17.18a.51.51,0,0,1-.33-.11L19,55a4.86,4.86,0,0,0-2.63-.87H14.14v5.35h.47a8.42,8.42,0,0,0,2.7-.5,1.29,1.29,0,0,1,.35-.05.18.18,0,0,1,.19.18v1.43a.23.23,0,0,1-.24.24.93.93,0,0,1-.24,0l-.63-.24a5,5,0,0,0-1.52-.28Z"/><path class="cls-1" d="M29.14,66,21.75,54.55V64a3.24,3.24,0,0,0,.65,1.85.43.43,0,0,1,.09.26v0a.18.18,0,0,1-.18.19H20.46a.18.18,0,0,1-.19-.19v0a.51.51,0,0,1,.09-.26A3.2,3.2,0,0,0,21,64V55.74a3.25,3.25,0,0,0-.65-1.86.45.45,0,0,1-.09-.25v0a.18.18,0,0,1,.19-.19h2.87a1.51,1.51,0,0,1,1.18.67l4.82,7.46V55.74a3.25,3.25,0,0,0-.65-1.86.38.38,0,0,1-.09-.25v0a.18.18,0,0,1,.18-.19h1.76a.25.25,0,0,1,.26.26.39.39,0,0,1-.08.21l-.29.37a1.81,1.81,0,0,0-.37,1V65.94a.36.36,0,0,1-.39.39A.66.66,0,0,1,29.14,66Z"/><path class="cls-1" d="M31,53.79a.42.42,0,0,1,.43-.39h9a.42.42,0,0,1,.43.39L41,55.07a.14.14,0,0,1-.15.18.51.51,0,0,1-.33-.11L40.32,55a4.65,4.65,0,0,0-2.63-.87h-.48V64a3.24,3.24,0,0,0,.65,1.85.43.43,0,0,1,.09.26v0a.18.18,0,0,1-.18.19H34.08a.18.18,0,0,1-.18-.19v0a.51.51,0,0,1,.09-.26A3.2,3.2,0,0,0,34.64,64V54.14h-.48a4.65,4.65,0,0,0-2.63.87l-.17.13a.51.51,0,0,1-.33.11c-.11,0-.19-.07-.17-.18Z"/><path class="cls-1" d="M44.64,53.4a.68.68,0,0,1,.64.45L49,64.09A4,4,0,0,0,50,65.68l.19.16a.48.48,0,0,1,.13.3.18.18,0,0,1-.19.19h-4a.23.23,0,0,1-.24-.24.61.61,0,0,1,.08-.25l.22-.35a1.16,1.16,0,0,0,.11-1l-.76-2.07h-4L41,64.16a2,2,0,0,0,.18,1.65.63.63,0,0,1,.1.31v0a.18.18,0,0,1-.19.19H39a.23.23,0,0,1-.23-.23.3.3,0,0,1,.12-.24l.42-.37a3.06,3.06,0,0,0,.78-1.13L44,53.85A.71.71,0,0,1,44.64,53.4Zm.7,8.3L43.64,57,41.88,61.7Z"/><path class="cls-1" d="M50.43,53.59a.18.18,0,0,1,.19-.19H54.3a.18.18,0,0,1,.19.19v0a.39.39,0,0,1-.1.25,3.25,3.25,0,0,0-.65,1.86v9.85h2.43a4.68,4.68,0,0,0,2.63-.87l.17-.13a.52.52,0,0,1,.33-.12.16.16,0,0,1,.17.19l-.13,1.28a.42.42,0,0,1-.43.39H50.62a.18.18,0,0,1-.19-.19v0a.51.51,0,0,1,.09-.26A3.24,3.24,0,0,0,51.17,64V55.74a3.23,3.23,0,0,0-.65-1.86.45.45,0,0,1-.09-.25Z"/><path class="cls-2" d="M66,66.1a.51.51,0,0,1,.09-.26A3.2,3.2,0,0,0,66.74,64V55.74a3.25,3.25,0,0,0-.65-1.86.45.45,0,0,1-.09-.25v0a.18.18,0,0,1,.19-.19h5.48c2.24,0,3.74,1.26,3.74,3.35A2.79,2.79,0,0,1,74,59.35a3.4,3.4,0,0,1,2.17,3.42,3.36,3.36,0,0,1-3.56,3.56h-6.4a.18.18,0,0,1-.19-.19Zm4.18-7a2.49,2.49,0,1,0,0-5h-.87v5Zm.56,6.47a2.87,2.87,0,0,0,0-5.73H69.31v5.73Z"/><path class="cls-2" d="M76.79,66.1a.44.44,0,0,1,.1-.26A3.18,3.18,0,0,0,77.53,64V55.74a3.24,3.24,0,0,0-.64-1.86.39.39,0,0,1-.1-.25v0A.18.18,0,0,1,77,53.4h6.4a3.38,3.38,0,0,1,3.56,3.65,3.29,3.29,0,0,1-2.67,3.46l2.37,4.15a2.26,2.26,0,0,0,.54.61l.78.57a.42.42,0,0,1,.15.3.18.18,0,0,1-.19.19H85.24a.74.74,0,0,1-.63-.37l-3.08-5.35H80.11V64a3.24,3.24,0,0,0,.65,1.85.51.51,0,0,1,.09.26v0a.18.18,0,0,1-.19.19H77a.18.18,0,0,1-.19-.19Zm4.74-6.24a2.86,2.86,0,0,0,0-5.72H80.11v5.72Z"/><path class="cls-2" d="M93.57,53.4a.69.69,0,0,1,.65.45l3.66,10.24A4,4,0,0,0,99,65.68l.19.16a.48.48,0,0,1,.13.3.18.18,0,0,1-.19.19h-4a.23.23,0,0,1-.24-.24.61.61,0,0,1,.08-.25l.22-.35a1.16,1.16,0,0,0,.11-1l-.76-2.07h-4l-.65,1.72a2,2,0,0,0,.19,1.65.73.73,0,0,1,.09.31v0a.18.18,0,0,1-.19.19H88a.22.22,0,0,1-.22-.23.29.29,0,0,1,.11-.24l.42-.37a3.06,3.06,0,0,0,.78-1.13l3.87-10.51A.71.71,0,0,1,93.57,53.4Zm.7,8.3L92.57,57,90.81,61.7Z"/><path class="cls-2" d="M108.23,66l-7.39-11.48V64a3.24,3.24,0,0,0,.65,1.85.43.43,0,0,1,.09.26v0a.18.18,0,0,1-.18.19H99.55a.18.18,0,0,1-.19-.19v0a.51.51,0,0,1,.09-.26A3.2,3.2,0,0,0,100.1,64V55.74a3.25,3.25,0,0,0-.65-1.86.45.45,0,0,1-.09-.25v0a.18.18,0,0,1,.19-.19h2.87a1.51,1.51,0,0,1,1.18.67l4.82,7.46V55.74a3.25,3.25,0,0,0-.65-1.86.39.39,0,0,1-.1-.25v0a.18.18,0,0,1,.19-.19h1.76a.25.25,0,0,1,.26.26.39.39,0,0,1-.08.21l-.29.37a1.81,1.81,0,0,0-.37,1V65.94a.36.36,0,0,1-.39.39A.65.65,0,0,1,108.23,66Z"/><path class="cls-2" d="M110.69,66.33a.18.18,0,0,1-.18-.19v0a.43.43,0,0,1,.09-.26,3.2,3.2,0,0,0,.65-1.85V55.74a3.25,3.25,0,0,0-.65-1.86.38.38,0,0,1-.09-.25v0a.18.18,0,0,1,.18-.19h4.74c2.15,0,5.22,1.43,5.22,6.46s-3.07,6.47-5.22,6.47Zm3.63-.74c1.7,0,3.76-1.15,3.76-5.74s-2.06-5.71-3.76-5.71h-.5V65.59Z"/><path class="cls-2" d="M127.47,53.22c3.51,0,6.18,2.66,6.18,6.64s-2.67,6.65-6.18,6.65-6.19-2.66-6.19-6.65S124,53.22,127.47,53.22Zm0,12.55c2.05,0,3.59-2.37,3.59-5.91s-1.54-5.9-3.59-5.9-3.6,2.37-3.6,5.9S125.41,65.77,127.47,65.77Z"/><rect class="cls-2" x="42.09" y="6.29" width="6.84" height="6.84" rx="1.12"/><rect class="cls-2" x="46.86" width="4.62" height="4.62" rx="1.12"/><rect class="cls-2" x="54.13" y="7.46" width="4.24" height="4.24" rx="1.12"/><rect class="cls-2" x="44.75" y="17.01" width="4.24" height="4.24" rx="0.73"/><rect class="cls-2" x="48.92" y="13.52" width="2.32" height="2.32" rx="0.54"/><path class="cls-2" d="M59.84,6.89h1.3a.57.57,0,0,0,.57-.57V5a.58.58,0,0,0-.57-.57h-1.3a.58.58,0,0,0-.57.57V6.32A.57.57,0,0,0,59.84,6.89Z"/><rect class="cls-2" x="39.42" y="3.8" width="2.32" height="2.32" rx="0.54"/><rect class="cls-2" x="52.7" y="2.69" width="0.48" height="6.71" transform="translate(11.24 39.21) rotate(-45)"/><rect class="cls-2" x="45.49" y="16.75" width="6.34" height="0.48" transform="translate(11.17 52.35) rotate(-62.57)"/><rect class="cls-2" x="42.25" y="3.61" width="0.48" height="6.34" transform="translate(9.59 34.52) rotate(-49.21)"/><rect class="cls-2" x="48.63" y="10.74" width="0.48" height="4.96" transform="translate(0.52 28.21) rotate(-32.36)"/><rect class="cls-2" x="55.07" y="7.5" width="6.34" height="0.48" transform="translate(8.71 39.33) rotate(-40.1)"/><path class="cls-2" d="M56.26,36Z"/><path class="cls-1" d="M69.26,24.48,56.77,37.91,56.26,36h0c-.11-.38-.24-.76-.38-1.14-.27-.75-.56-1.5-.87-2.24l-.47-1c-.24-.51-.5-1-.77-1.51-2.3-4.19-3.52-9.52-1.07-13.93,1.8-3.23,5.33-3.34,8.5-2.22s5.91,3.21,9.1,4.31c1.57.53,4.42,1.14,5.74-.32a7.51,7.51,0,0,1-5.48-1.08c.23.13,2.3-1.2,2.52-1.32,2.26-1.16,4.58-2.59,7.22-2.51,3,.09,4.9,2.27,5.82,4.94h0a11,11,0,0,1,.33,1.12L75.6,30.44Z"/><path class="cls-2" d="M84.45,29.66l-.78,1.46a22.61,22.61,0,0,0-1.49,3.05,21.7,21.7,0,0,0-1.05,4c-.31,1.82-.24,3.64-.44,5.46s-1.2,5.55-3.4,5.87c-2,.29-2.71-1.73-3.05-3.23a23.73,23.73,0,0,0-1-3.34c-.59-1.55-1.47-3.51-3.13-4.16-2.55-1-4.25,1.5-4.88,3.56s-.73,4.39-2.11,6c-1.63,1.94-3.52.37-4.54-1.3a11.71,11.71,0,0,1-1.29-5.43L69.07,32l6.66,6.14Z"/><polygon class="cls-1" points="51.31 45.26 69.29 25.93 75.63 31.89 89.26 17.59 88.04 16.47 94.23 15.51 93.44 21.72 92.38 20.73 75.73 36.91 69.07 30.77 51.31 45.26"/><path class="cls-3" d="M18.75,71a2.64,2.64,0,0,1,.64,1.77,2.84,2.84,0,0,1-.16.93,2.44,2.44,0,0,1-.44.79A2,2,0,0,1,18,75a2.85,2.85,0,0,1-1.08.2A2.67,2.67,0,0,1,15.86,75a2,2,0,0,1-.77-.56,2.34,2.34,0,0,1-.45-.78,2.82,2.82,0,0,1-.15-.92,2.47,2.47,0,0,1,.69-1.8A2.34,2.34,0,0,1,17,70.23,2.27,2.27,0,0,1,18.75,71Zm-3.4,2.42a2,2,0,0,0,.3.56,1.37,1.37,0,0,0,.53.41,1.81,1.81,0,0,0,.76.15A1.56,1.56,0,0,0,18.2,74a1.85,1.85,0,0,0,.43-1.26,2.24,2.24,0,0,0-.17-.86,1.56,1.56,0,0,0-.56-.67,1.65,1.65,0,0,0-.95-.29,1.56,1.56,0,0,0-1.25.51,1.91,1.91,0,0,0-.45,1.31A2.31,2.31,0,0,0,15.35,73.38Z"/><path class="cls-3" d="M20.13,76.67V71.73h.66l0,.55a1.2,1.2,0,0,1,.51-.46,1.62,1.62,0,0,1,.68-.16,1.68,1.68,0,0,1,1.23.5,2,2,0,0,1,0,2.53,1.61,1.61,0,0,1-1.24.49,1.8,1.8,0,0,1-.68-.14,1.08,1.08,0,0,1-.51-.43v2.06Zm2.59-2.48a1,1,0,0,0,.3-.77A1,1,0,0,0,22,72.35a1,1,0,0,0-.77.31,1.14,1.14,0,0,0,0,1.53,1,1,0,0,0,.76.31A1,1,0,0,0,22.72,74.19Z"/><path class="cls-3" d="M25.52,70.76v1h1v.61h-1V74c0,.36.16.55.48.55a.94.94,0,0,0,.43-.12l.21.6a1.57,1.57,0,0,1-.68.16,1.11,1.11,0,0,1-.85-.3,1.21,1.21,0,0,1-.3-.89V72.35h-.65v-.61h.65v-.9Z"/><path class="cls-3" d="M27.36,70.36a.42.42,0,0,1,.43,0,.38.38,0,0,1,.22.38.41.41,0,0,1-.22.39.47.47,0,0,1-.43,0,.41.41,0,0,1-.22-.39A.38.38,0,0,1,27.36,70.36Zm-.14,1.36V75.1h.7V71.72Z"/><path class="cls-3" d="M31.19,75.1V73.25A1,1,0,0,0,31,72.6a.68.68,0,0,0-.57-.27.74.74,0,0,0-.59.27,1,1,0,0,0-.22.65V75.1h-.71V71.73h.66l.05.45a.87.87,0,0,1,.39-.39,1.26,1.26,0,0,1,.55-.12,1,1,0,0,1,1.06.68,1.23,1.23,0,0,1,1.16-.67,1.34,1.34,0,0,1,1.06.41,1.67,1.67,0,0,1,.37,1.15V75.1h-.72V73.24a1,1,0,0,0-.19-.65.63.63,0,0,0-.55-.25.76.76,0,0,0-.6.26,1,1,0,0,0-.22.65V75.1Z"/><path class="cls-3" d="M35.22,70.36a.43.43,0,0,1,.44,0,.38.38,0,0,1,.22.38.41.41,0,0,1-.22.39.49.49,0,0,1-.44,0,.42.42,0,0,1-.22-.39A.4.4,0,0,1,35.22,70.36Zm-.13,1.36V75.1h.7V71.72Z"/><path class="cls-3" d="M39.25,71.73v.33l-1.69,2.35h1.71v.69H36.48v-.28l1.74-2.44H36.59v-.65Z"/><path class="cls-3" d="M40.49,73.68a.89.89,0,0,0,.35.62,1.2,1.2,0,0,0,.75.23,1.52,1.52,0,0,0,.55-.1,1,1,0,0,0,.43-.26l.46.44a1.76,1.76,0,0,1-.65.43,2.22,2.22,0,0,1-.8.15,1.86,1.86,0,0,1-1.33-.49,1.73,1.73,0,0,1-.49-1.3,1.69,1.69,0,0,1,.49-1.26,1.74,1.74,0,0,1,1.28-.5,1.7,1.7,0,0,1,1.32.52,1.91,1.91,0,0,1,.38,1.52Zm2.06-.59a.84.84,0,0,0-.3-.61,1.1,1.1,0,0,0-.7-.21,1.12,1.12,0,0,0-.68.21,1,1,0,0,0-.37.61Z"/><path class="cls-3" d="M47.24,72.43l1.36-2.11h.93v0l-1.9,2.79v2h-.77v-2L45,70.35v0h.91Z"/><path class="cls-3" d="M52.07,72.17a1.87,1.87,0,0,1,0,2.51,1.71,1.71,0,0,1-1.27.49,1.67,1.67,0,0,1-1.26-.49,1.74,1.74,0,0,1-.48-1.26,1.77,1.77,0,0,1,.48-1.26,1.82,1.82,0,0,1,2.52,0Zm-2,.46a1.22,1.22,0,0,0,0,1.57,1.05,1.05,0,0,0,1.51,0,1.12,1.12,0,0,0,.29-.78,1.1,1.1,0,0,0-.3-.78.94.94,0,0,0-.74-.33A1,1,0,0,0,50.06,72.63Z"/><path class="cls-3" d="M54,71.73v1.81a1,1,0,0,0,.25.7.85.85,0,0,0,.67.27.87.87,0,0,0,.67-.29,1,1,0,0,0,.27-.73V71.73h.7v3.38h-.63l-.05-.5a1.45,1.45,0,0,1-1.16.55,1.32,1.32,0,0,1-1-.43,1.71,1.71,0,0,1-.39-1.19V71.73Z"/><path class="cls-3" d="M58.13,71.73l0,.45a1.05,1.05,0,0,1,1-.52,1.19,1.19,0,0,1,.83.28l-.32.62a.91.91,0,0,0-.6-.21.93.93,0,0,0-.65.24.9.9,0,0,0-.26.69V75.1h-.7V71.73Z"/><path class="cls-3" d="M64,70.32a2.69,2.69,0,0,1,1.05.19,2,2,0,0,1,.75.54,2.59,2.59,0,0,1,.44.75,2.74,2.74,0,0,1,.16.87,2.63,2.63,0,0,1-.13.89,2.47,2.47,0,0,1-.43.78,2,2,0,0,1-.76.56,2.85,2.85,0,0,1-1.08.2H62.14V70.32ZM62.9,74.37H64a1.49,1.49,0,0,0,1.23-.51,1.74,1.74,0,0,0,.41-1.2,2,2,0,0,0-.18-.78,1.44,1.44,0,0,0-.54-.59,1.7,1.7,0,0,0-.92-.24H62.9Z"/><path class="cls-3" d="M67.64,73.68a.89.89,0,0,0,.35.62,1.22,1.22,0,0,0,.75.23,1.49,1.49,0,0,0,.55-.1,1,1,0,0,0,.43-.26l.46.44a1.68,1.68,0,0,1-.65.43,2.22,2.22,0,0,1-.8.15,1.82,1.82,0,0,1-1.32-.49,1.78,1.78,0,0,1,1.27-3.06,1.7,1.7,0,0,1,1.32.52,1.91,1.91,0,0,1,.38,1.52Zm2.06-.59a.84.84,0,0,0-.3-.61,1.1,1.1,0,0,0-.7-.21,1.12,1.12,0,0,0-.68.21,1,1,0,0,0-.36.61Z"/><path class="cls-3" d="M73.66,75.1V73.3a1,1,0,0,0-.24-.71.85.85,0,0,0-.67-.26.89.89,0,0,0-.68.29,1,1,0,0,0-.27.72V75.1h-.7V71.73h.64l0,.49a1.48,1.48,0,0,1,1.14-.54,1.36,1.36,0,0,1,1,.43,1.66,1.66,0,0,1,.41,1.18V75.1Z"/><path class="cls-3" d="M76.3,70.76v1h1v.61h-1V74c0,.36.16.55.49.55a1,1,0,0,0,.43-.12l.2.6a1.54,1.54,0,0,1-.68.16,1.11,1.11,0,0,1-.85-.3,1.21,1.21,0,0,1-.29-.89V72.35h-.65v-.61h.65v-.9Z"/><path class="cls-3" d="M80.7,71.73h.69V75.1h-.67l0-.54a1.07,1.07,0,0,1-.49.47,1.47,1.47,0,0,1-.67.16,1.7,1.7,0,0,1-1.25-.46,1.77,1.77,0,0,1-.48-1.32,1.67,1.67,0,0,1,.49-1.28,1.72,1.72,0,0,1,1.25-.47,1.45,1.45,0,0,1,.68.16,1.08,1.08,0,0,1,.47.45Zm-1.89.87a1.13,1.13,0,0,0,.78,1.94,1,1,0,0,0,.53-.13.87.87,0,0,0,.36-.32,1.63,1.63,0,0,0,.18-.43,1,1,0,0,0,0-.48,1.7,1.7,0,0,0-.18-.44.87.87,0,0,0-.36-.32,1.12,1.12,0,0,0-.53-.12A1.09,1.09,0,0,0,78.81,72.6Z"/><path class="cls-3" d="M83.08,70.32V75.1h-.71V70.32Z"/><path class="cls-3" d="M86.65,73.63V75.1h-.76V70.32H88.1a2.06,2.06,0,0,1,.68.11,1.51,1.51,0,0,1,.51.31,1.91,1.91,0,0,1,.34.44,1.38,1.38,0,0,1,.17.52,2.53,2.53,0,0,1,0,.55,1.43,1.43,0,0,1-.17.53,1.79,1.79,0,0,1-.34.44,1.42,1.42,0,0,1-.51.31,2.06,2.06,0,0,1-.68.11Zm0-.7H88.1a1,1,0,0,0,.53-.14.79.79,0,0,0,.32-.36,1.15,1.15,0,0,0,.1-.46,1.19,1.19,0,0,0-.1-.46.91.91,0,0,0-.32-.36A1,1,0,0,0,88.1,71H86.65Z"/><path class="cls-3" d="M91.11,71.73l0,.45a1,1,0,0,1,1-.52,1.22,1.22,0,0,1,.84.28l-.32.62a.91.91,0,0,0-.6-.21.93.93,0,0,0-.65.24.9.9,0,0,0-.26.69V75.1h-.7V71.73Z"/><path class="cls-3" d="M93.9,73.68a.92.92,0,0,0,.34.62,1.23,1.23,0,0,0,.76.23,1.52,1.52,0,0,0,.55-.1,1.12,1.12,0,0,0,.43-.26l.46.44a1.76,1.76,0,0,1-.65.43,2.22,2.22,0,0,1-.8.15,1.83,1.83,0,0,1-1.33-.49,1.73,1.73,0,0,1-.49-1.3,1.69,1.69,0,0,1,.49-1.26,1.91,1.91,0,0,1,2.6,0,1.91,1.91,0,0,1,.37,1.52ZM96,73.09a.84.84,0,0,0-.3-.61,1.24,1.24,0,0,0-1.38,0,1,1,0,0,0-.37.61Z"/><path class="cls-3" d="M99.51,72.56a1.27,1.27,0,0,0-.89-.31,1,1,0,0,0-.52.09.35.35,0,0,0-.2.31c0,.24.25.38.73.43a5,5,0,0,1,.5.07,2.08,2.08,0,0,1,.44.15.83.83,0,0,1,.37.32,1,1,0,0,1,.12.52.92.92,0,0,1-.4.77,1.62,1.62,0,0,1-1,.3,1.94,1.94,0,0,1-1.54-.63l.37-.49a1.52,1.52,0,0,0,1.18.49,1,1,0,0,0,.5-.11.37.37,0,0,0,.22-.32.32.32,0,0,0-.19-.32,1.72,1.72,0,0,0-.59-.15c-.91-.09-1.37-.42-1.38-1a.85.85,0,0,1,.43-.77,2,2,0,0,1,2.27.19Z"/><path class="cls-3" d="M101.29,73.68a.93.93,0,0,0,.35.62,1.22,1.22,0,0,0,.75.23,1.58,1.58,0,0,0,.56-.1,1.08,1.08,0,0,0,.42-.26l.46.44a1.68,1.68,0,0,1-.65.43,2.22,2.22,0,0,1-.8.15,1.82,1.82,0,0,1-1.32-.49,1.78,1.78,0,0,1,1.27-3.06,1.7,1.7,0,0,1,1.32.52,1.91,1.91,0,0,1,.38,1.52Zm2.06-.59a.84.84,0,0,0-.3-.61,1.1,1.1,0,0,0-.7-.21,1.12,1.12,0,0,0-.68.21,1,1,0,0,0-.36.61Z"/><path class="cls-3" d="M107.31,75.1V73.3a1,1,0,0,0-.24-.71.85.85,0,0,0-.67-.26.89.89,0,0,0-.68.29,1,1,0,0,0-.27.72V75.1h-.7V71.73h.64l0,.49a1.48,1.48,0,0,1,1.14-.54,1.36,1.36,0,0,1,1,.43,1.66,1.66,0,0,1,.41,1.18V75.1Z"/><path class="cls-3" d="M111.77,74.67a1.74,1.74,0,0,1-1.28.52,1.8,1.8,0,0,1-1.27-.46,1.68,1.68,0,0,1-.5-1.31,1.66,1.66,0,0,1,.5-1.3,1.81,1.81,0,0,1,1.27-.47,1.68,1.68,0,0,1,1.22.5l-.45.47a1.13,1.13,0,0,0-1.53,0,1.07,1.07,0,0,0-.31.8,1,1,0,0,0,.31.8,1.07,1.07,0,0,0,.76.29,1.06,1.06,0,0,0,.8-.32Z"/><path class="cls-3" d="M112.85,73.68a.88.88,0,0,0,.34.62,1.23,1.23,0,0,0,.76.23,1.56,1.56,0,0,0,.55-.1,1.12,1.12,0,0,0,.43-.26l.46.44a1.76,1.76,0,0,1-.65.43,2.22,2.22,0,0,1-.8.15,1.83,1.83,0,0,1-1.33-.49,1.73,1.73,0,0,1-.49-1.3,1.69,1.69,0,0,1,.49-1.26,1.91,1.91,0,0,1,2.6,0,1.91,1.91,0,0,1,.37,1.52Zm2.06-.59a.84.84,0,0,0-.3-.61,1.24,1.24,0,0,0-1.38,0,1,1,0,0,0-.37.61Z"/></svg>