<svg width="149" height="149" viewBox="0 0 149 149" fill="none" xmlns="http://www.w3.org/2000/svg">
<rect width="149" height="149" rx="20" fill="#093A5B" fill-opacity="0.1"/>
<g clip-path="url(#clip0_5_411)">
<path d="M99.4292 61.2717V74.4584H89.2142V68.6888H83.3638V84.7052H77.484V65.7733H71.6017V84.7223H65.7538V71.6238H59.9034V74.4437H52.4275C51.867 71.0877 50.2808 68.2947 47.4094 66.3339C44.5356 64.3707 41.3754 63.8199 37.9288 64.618C37.9067 64.3462 37.87 64.1137 37.87 63.8836C37.8651 61.5312 37.8529 59.1788 37.87 56.8288C37.8896 54.4837 39.7818 52.5548 42.1024 52.5303C44.4842 52.5034 46.8684 52.5034 49.2502 52.5475C49.5464 52.5524 49.9478 52.8314 50.107 53.0983C51.0323 54.6453 52.3443 55.4678 54.1606 55.4653C58.1311 55.4629 62.104 55.4653 66.0744 55.4653C66.4049 55.4653 66.7378 55.4653 67.1858 55.4653C67.1858 56.1287 67.1858 56.7285 67.1858 57.3282C67.1882 58.8483 67.7733 60.0625 69.1245 60.8213C70.5247 61.6071 71.8784 61.399 73.1757 60.5422C75.4914 59.0099 77.7924 57.4555 80.1326 55.9623C80.5854 55.6734 81.1925 55.4923 81.7286 55.4874C86.0369 55.4507 90.3427 55.4482 94.6509 55.4751C96.6092 55.4874 98.0461 54.7041 98.9886 52.9734C99.1085 52.7531 99.4855 52.5475 99.745 52.545C102.188 52.5132 104.633 52.4961 107.076 52.5401C109.172 52.5793 111.074 54.4299 111.157 56.5155C111.221 58.0674 111.169 59.6267 111.169 61.2815H99.4218L99.4292 61.2717Z" fill="#093A5B"/>
<path d="M111.172 93.6301C111.172 95.2898 111.24 96.8785 111.154 98.4573C111.047 100.501 109.142 102.266 107.086 102.354C106.812 102.367 106.535 102.359 106.261 102.359C85.0968 102.359 63.9301 102.327 42.7657 102.398C39.9947 102.408 37.6105 100.372 37.8479 97.4317C37.9483 96.193 37.8651 94.9373 37.8651 93.6301H111.172ZM68.6202 96.5064C67.8589 96.5309 67.1784 97.2481 67.2004 98.002C67.2249 98.7609 67.9446 99.4463 68.6936 99.4218C69.4525 99.3973 70.1379 98.6776 70.1134 97.9261C70.0889 97.1673 69.3692 96.4819 68.6177 96.5064H68.6202ZM75.9809 97.9849C75.9932 97.2309 75.3029 96.5186 74.544 96.5064C73.7901 96.4941 73.0802 97.1844 73.0655 97.9433C73.0533 98.6972 73.7436 99.4096 74.5024 99.4218C75.2539 99.4365 75.9687 98.7413 75.9809 97.9849ZM80.392 99.4218C81.146 99.4218 81.8485 98.7144 81.846 97.9604C81.846 97.204 81.1386 96.5039 80.3847 96.5064C79.6283 96.5064 78.9282 97.2114 78.9306 97.9678C78.9306 98.7242 79.6356 99.4242 80.3896 99.4218H80.392Z" fill="#093A5B"/>
<path d="M70.1281 52.5475C69.712 52.5475 69.3864 52.5475 69.0584 52.5475C64.2312 52.5475 59.404 52.5475 54.5768 52.5475C52.9293 52.5475 52.5303 52.1387 52.5303 50.4912C52.5303 44.9615 52.5303 39.4342 52.5303 33.9044C52.5303 32.4847 53.0199 32.0024 54.4642 32C67.8467 32 81.2268 32 94.6093 32C96.0315 32 96.5162 32.4945 96.5162 33.9314C96.5162 39.4611 96.5162 44.9884 96.5162 50.5182C96.5162 52.1411 96.1074 52.545 94.438 52.545C89.9461 52.5475 85.4567 52.523 80.9648 52.5719C80.3431 52.5793 79.6503 52.8069 79.1216 53.1423C76.6737 54.6967 74.2846 56.3392 71.8465 57.9083C71.4842 58.1409 70.9041 58.322 70.5565 58.1874C70.3019 58.0894 70.1575 57.4383 70.1452 57.0295C70.0963 55.573 70.1257 54.1117 70.1257 52.5475H70.1281ZM67.1613 39.2922C66.941 36.8248 65.5041 35.241 63.1908 35.0133C61.9522 34.8909 60.6818 34.8885 59.4431 35.0133C57.0295 35.2606 55.3185 37.2899 55.4678 39.5664C55.6244 41.9433 57.524 43.7008 59.9694 43.7253C60.9168 43.7351 61.8641 43.7008 62.809 43.74C63.6731 43.7767 64.2508 44.3985 64.2532 45.2063C64.2557 46.0263 63.7024 46.6138 62.8163 46.6628C62.0844 46.7019 61.3476 46.6407 60.6181 46.6921C59.4676 46.7705 58.5521 46.5183 58.3147 45.2797H55.5216C55.573 47.6542 57.3845 49.5145 59.683 49.5855C60.6279 49.6149 61.5752 49.5978 62.5226 49.5929C65.1761 49.5806 67.1809 47.6982 67.1858 45.221C67.1907 42.7413 65.2054 40.8589 62.5372 40.8197C61.6511 40.8075 60.765 40.8368 59.8813 40.8026C58.9829 40.7683 58.4175 40.2028 58.3954 39.395C58.3734 38.5481 58.9658 37.9141 59.8789 37.8749C60.6401 37.8406 61.4088 37.9043 62.1676 37.8578C63.279 37.7892 64.0843 38.127 64.3169 39.2947H67.1588L67.1613 39.2922ZM81.8534 42.2517H81.8559C81.8559 43.2578 81.8241 44.2663 81.8632 45.2724C81.9562 47.7374 83.8362 49.5586 86.2939 49.5904C87.2412 49.6027 88.1861 49.6027 89.1334 49.5904C91.5984 49.5586 93.5004 47.7545 93.5738 45.2871C93.6326 43.2749 93.635 41.2579 93.5738 39.2457C93.5053 37.0157 91.9632 35.2924 89.738 35.0452C88.4137 34.8983 87.0478 34.8958 85.7235 35.0403C83.4299 35.2924 81.9146 37.0867 81.8608 39.4122C81.8387 40.357 81.8583 41.3044 81.8583 42.2517H81.8534ZM78.8988 34.9546C77.4644 34.9546 76.1254 34.9521 74.7889 34.957C74.5147 34.957 74.2405 34.9791 73.9688 35.0207C71.7584 35.3585 70.204 37.0279 70.1403 39.2482C70.0816 41.2603 70.0865 43.2774 70.1403 45.292C70.1966 47.429 71.6727 49.2477 73.7705 49.495C75.4449 49.6932 77.1608 49.5341 78.8793 49.5341V46.675C77.435 46.675 76.0373 46.697 74.642 46.6677C73.587 46.6456 73.09 46.1169 73.0656 45.0717C73.0558 44.6531 73.0656 44.2345 73.0656 43.7131H78.8768V40.7952H73.1316C72.8991 38.247 73.2418 37.8627 75.6309 37.8627C76.7153 37.8627 77.8022 37.8627 78.9037 37.8627V34.9546H78.8988Z" fill="#03A0D7"/>
<path d="M111.162 87.6745V90.5581H37.9337V87.3465C41.2921 88.1078 44.4548 87.6084 47.3237 85.6697C50.2097 83.7187 51.8449 80.9575 52.4128 77.4962H59.7907V84.7346H55.529V87.6451H93.5322V84.7982H89.2607V77.5011H99.3973V87.6769H111.159L111.162 87.6745Z" fill="#093A5B"/>
<path d="M117 84.7248H102.455V64.3022H117V84.7248ZM114.082 67.2372H105.392V70.0596H114.082V67.2372ZM114.053 75.9369V73.0803H105.37V75.9369H114.053ZM114.06 81.7947V78.9698H105.363V81.7947H114.06Z" fill="#03A0D7"/>
<path d="M40.8368 84.7639C35.9606 84.7737 32.0147 80.8743 32 76.0348C31.9853 71.1097 35.8945 67.176 40.8001 67.1784C45.6665 67.1784 49.5855 71.0901 49.5904 75.9516C49.5953 80.8229 45.6909 84.7541 40.8393 84.7639H40.8368ZM40.7609 71.5723C38.3865 71.5944 36.389 73.6114 36.3964 75.9785C36.4037 78.3481 38.411 80.3578 40.7805 80.3676C43.1843 80.3773 45.2307 78.3113 45.1916 75.9149C45.1524 73.5306 43.1305 71.5503 40.7609 71.5748V71.5723Z" fill="#03A0D7"/>
<path d="M62.8187 111.096V105.373H86.1812V111.096H62.8187Z" fill="#093A5B"/>
<path d="M94.6901 117H54.4127C54.6061 115.502 56.4028 114.119 58.2216 114.102C60.694 114.08 63.1688 114.094 65.6411 114.094C73.9468 114.094 82.2524 114.119 90.558 114.075C92.2936 114.065 94.4183 115.409 94.6901 117Z" fill="#093A5B"/>
<path d="M90.6511 42.3423C90.6511 43.2284 90.6584 44.1145 90.6511 44.9982C90.6388 46.1193 90.1541 46.6432 89.0575 46.6725C88.1126 46.697 87.1628 46.7019 86.218 46.6603C85.3245 46.6187 84.8104 46.0875 84.8006 45.194C84.7786 43.2406 84.7786 41.2848 84.8006 39.3314C84.8104 38.4746 85.3783 37.9116 86.2473 37.8773C87.224 37.8406 88.2032 37.8406 89.1799 37.8773C90.0856 37.9116 90.6241 38.4917 90.6437 39.4121C90.6658 40.3889 90.6486 41.3656 90.6486 42.3447L90.6511 42.3423Z" fill="#03A0D7"/>
</g>
<defs>
<clipPath id="clip0_5_411">
<rect width="85" height="85" fill="white" transform="translate(32 32)"/>
</clipPath>
</defs>
</svg>
