<svg width="150" height="149" viewBox="0 0 150 149" fill="none" xmlns="http://www.w3.org/2000/svg">
<rect x="0.497665" width="149.005" height="149" rx="20" fill="#093A5B" fill-opacity="0.1"/>
<g clip-path="url(#clip0_5_410)">
<path d="M45.6239 103.184C43.546 101.845 41.5171 100.701 39.6722 99.3128C36.4926 96.9205 34.063 93.8946 33.0264 89.9766C31.6265 84.6912 33.1848 80.1092 36.7116 76.1306C40.4503 71.9097 45.2908 69.4685 50.6134 67.9148C52.3861 67.3977 54.2124 67.0646 56.1458 66.6173C55.7195 70.8871 56.989 74.3579 60.355 76.8364C63.7303 79.3219 67.4201 79.5013 71.3009 77.8567C71.9438 78.7186 72.5937 79.5898 73.3531 80.6054H72.249C64.343 80.6054 56.4393 80.6054 48.5333 80.6054C48.2724 80.6054 48.0068 80.5821 47.7483 80.617C47.0634 80.7079 46.6069 81.0806 46.5882 81.8004C46.5696 82.5271 47.0285 82.9068 47.6994 83.0303C47.9812 83.0815 48.2794 83.0536 48.5682 83.0536C57.1707 83.0536 65.7732 83.0606 74.3757 83.0419C74.9604 83.0419 75.3308 83.212 75.6732 83.6849C77.0219 85.5414 78.3963 87.3793 79.7846 89.2056C81.3406 91.2508 83.861 91.5233 85.8224 89.8741C86.3558 89.4245 86.8567 88.9377 87.3738 88.4718C89.419 86.6316 89.6217 84.5374 87.9655 82.3105C85.6104 79.1402 83.2554 75.9699 80.9004 72.7972C80.7466 72.5876 80.5999 72.3733 80.4112 72.1077C81.0168 71.8678 81.5712 71.6255 82.1443 71.4345C82.3097 71.3786 82.5612 71.4159 82.7103 71.5091C87.1548 74.2694 90.7631 77.7542 92.0908 83.014C93.3953 88.1783 91.7787 92.6228 88.3824 96.5292C88.2007 96.7388 87.7721 96.8157 87.46 96.8181C83.6235 96.8367 79.7869 96.8274 75.9504 96.832C73.0852 96.8344 71.4546 98.4416 71.4267 101.291C71.415 102.481 71.4057 103.673 71.4337 104.864C71.4453 105.351 71.3079 105.609 70.7977 105.7C66.861 106.399 62.9011 106.643 58.9131 106.28C58.2446 106.22 57.7042 106.331 57.1358 106.732C52.7938 109.795 48.4308 112.826 44.0585 115.847C43.7627 116.05 43.3504 116.085 42.994 116.196C42.9567 115.826 42.8193 115.432 42.8961 115.085C43.7953 111.074 44.7294 107.067 45.6215 103.194L45.6239 103.184ZM62.526 89.6644C57.8206 89.6644 53.1152 89.6644 48.4122 89.6644C48.1513 89.6644 47.8834 89.6365 47.6295 89.6831C47.0215 89.7949 46.6302 90.1606 46.5859 90.7896C46.5416 91.4231 46.8748 91.8518 47.4781 92.0078C47.8088 92.094 48.1676 92.0917 48.5123 92.0917C57.8649 92.0963 67.2151 92.0963 76.5677 92.0917C76.9124 92.0917 77.2712 92.087 77.6019 92.0032C78.2146 91.8471 78.6292 91.3556 78.4545 90.7896C78.3194 90.354 77.8162 89.9976 77.4109 89.6924C77.2432 89.5666 76.9031 89.6644 76.6422 89.6644C71.9368 89.6644 67.2314 89.6644 62.5284 89.6644H62.526Z" fill="#093A5B"/>
<path d="M85.1865 99.2686C88.3242 99.2686 91.4642 99.2662 94.6019 99.2686C95.9367 99.2686 96.533 99.8229 96.5377 101.16C96.554 105.81 96.554 110.459 96.5377 115.106C96.533 116.38 95.918 116.986 94.6509 116.988C88.3452 117.002 82.0371 117.002 75.7314 116.988C74.4479 116.986 73.826 116.327 73.8236 115.022C73.8143 110.403 73.8143 105.782 73.8236 101.162C73.826 99.8649 74.4549 99.2709 75.7687 99.2686C78.9064 99.2639 82.0464 99.2686 85.1841 99.2686H85.1865ZM82.0604 104.384C81.9393 104.745 81.7506 105.052 81.7459 105.362C81.718 107.189 81.7203 109.015 81.7366 110.843C81.7436 111.768 82.0371 111.922 82.871 111.449C84.4317 110.562 85.9878 109.662 87.5345 108.754C88.3521 108.274 88.3498 107.953 87.5345 107.475C85.9598 106.555 84.3758 105.649 82.7942 104.74C82.6218 104.64 82.4354 104.566 82.0627 104.386L82.0604 104.384Z" fill="#03A0D7"/>
<path d="M71.3125 56.7756C76.3301 52.8249 80.8002 48.3827 84.2943 42.8387C88.7272 50.5165 93.0971 58.08 97.4694 65.6529C95.161 65.9558 92.9178 66.1747 90.7025 66.5591C86.8939 67.2206 83.2205 68.383 79.6308 69.8109C79.151 70.0019 78.8785 70.0136 78.5849 69.5011C76.2416 65.3944 73.8679 61.3039 71.5059 57.2065C71.436 57.0854 71.3894 56.9526 71.3102 56.7732L71.3125 56.7756Z" fill="#093A5B"/>
<path d="M40.0939 55.3313C39.7957 55.4734 39.1458 55.6714 38.631 56.0511C37.9834 56.531 37.4966 56.5054 36.9678 55.9346C36.5136 55.4455 36.036 54.9773 35.5538 54.5137C35.074 54.0525 34.9901 53.575 35.463 53.0741C37.1448 51.2828 35.8054 48.2523 33.4387 48.3035C32.8611 48.3152 32.5373 47.9168 32.5186 47.3461C32.493 46.5634 32.493 45.7784 32.5163 44.9934C32.5349 44.3901 32.8424 44.0617 33.4807 43.9825C36.0267 43.6633 37.0307 41.299 35.484 39.2631C35.0787 38.7297 35.0414 38.2871 35.5236 37.8119C36.0617 37.2831 36.5951 36.7473 37.1262 36.2116C37.5734 35.762 38.0603 35.7271 38.5029 36.1743C40.0426 37.7257 43.178 36.8219 43.2828 34.1594C43.3061 33.5584 43.6742 33.2556 44.2309 33.2299C45.0136 33.195 45.7986 33.1996 46.5836 33.2229C47.2381 33.2439 47.5433 33.612 47.6202 34.2712C47.9044 36.6891 50.3223 37.735 52.2464 36.2535C52.887 35.7597 53.3622 35.7713 53.8956 36.349C54.3475 36.8405 54.8274 37.3064 55.3072 37.7699C55.7847 38.2288 55.8709 38.732 55.4097 39.2212C53.7069 41.0334 55.044 43.9662 57.42 43.9964C58.021 44.0034 58.3191 44.3668 58.3308 44.9422C58.3494 45.7551 58.3471 46.5681 58.3284 47.3811C58.3145 47.9727 57.9604 48.3221 57.3897 48.3082C55.1931 48.2523 53.6277 51.1757 55.426 53.0998C55.8523 53.5563 55.7917 54.0455 55.3491 54.4834C54.8343 54.9959 54.3149 55.5037 53.8094 56.0232C53.3458 56.5007 52.8916 56.5217 52.3512 56.1233C50.1988 54.537 48.0371 55.4548 47.6085 58.1359C47.5177 58.709 47.2195 59.0304 46.6348 59.0421C45.8801 59.056 45.1254 59.0491 44.3706 59.0491C43.6742 59.0491 43.3341 58.7346 43.2642 58.0055C43.1151 56.4355 41.9387 55.3546 40.0962 55.329L40.0939 55.3313ZM39.2506 46.1046C39.2343 49.5171 42.0249 52.3334 45.4329 52.345C48.7686 52.3567 51.6058 49.5404 51.6291 46.1954C51.6524 42.7991 48.8361 39.9712 45.4329 39.9689C42.0552 39.9689 39.2669 42.7362 39.2506 46.1069V46.1046Z" fill="#03A0D7"/>
<path d="M84.5622 37.7816C84.7159 36.0299 85.8154 34.5437 87.4227 34.0615C89.1092 33.556 90.8446 34.1919 91.781 35.7573C93.2369 38.1962 94.6369 40.67 96.0601 43.1322C99.7732 49.5614 103.482 55.9929 107.204 62.4174C107.847 63.5262 108.143 64.6652 107.696 65.9068C107.139 67.4489 106.018 68.3387 104.395 68.4668C102.806 68.5926 101.572 67.8984 100.77 66.5218C98.8438 63.214 96.9383 59.8946 95.0236 56.5799C91.8323 51.0545 88.6317 45.5362 85.466 39.9968C85.0747 39.312 84.8604 38.5223 84.5645 37.7816H84.5622Z" fill="#093A5B"/>
<path d="M77.1826 71.8701C74.222 73.3609 71.45 75.1452 68.4194 76.1842C64.739 77.4444 60.6881 75.1825 59.1344 71.5836C57.576 67.973 58.7803 63.7009 62.0741 61.5951C64.2707 60.1905 66.5699 58.9442 68.9202 57.5699C71.634 62.266 74.3291 66.9294 77.1826 71.8678V71.8701Z" fill="#093A5B"/>
<path d="M102.319 96.3498C101.229 96.3871 100.022 95.9189 98.916 95.1805C98.0285 94.5888 97.7606 93.5988 98.2591 92.66C98.8158 91.6095 99.4098 90.5752 100.043 89.5689C100.658 88.5906 101.653 88.3716 102.701 88.9027C105.073 90.107 105.378 90.0325 106.994 87.8987C108.548 85.8489 109.785 83.6289 110.652 81.2064C111.124 79.8856 110.843 79.1821 109.652 78.4297C109.126 78.0966 108.49 77.7332 108.241 77.2184C108.003 76.7222 108.022 75.9396 108.245 75.4201C108.699 74.3602 109.345 73.3795 109.955 72.3919C110.591 71.36 111.567 71.1293 112.664 71.7C115.278 73.0604 116.512 75.3409 116.251 78.1478C115.595 85.164 112.298 90.7895 106.668 95.0174C105.41 95.9608 103.955 96.3405 102.322 96.3475L102.319 96.3498Z" fill="#03A0D7"/>
<path d="M73.402 76.6314C75.1328 75.6321 76.7866 74.6794 78.5011 73.6894C78.7014 73.9293 78.8924 74.1366 79.0578 74.3603C81.3663 77.4584 83.67 80.5588 85.9762 83.6592C86.9964 85.0313 86.9405 85.5903 85.657 86.7737C85.2517 87.1487 84.8417 87.5191 84.4271 87.8825C83.3765 88.8072 82.4611 88.7397 81.6202 87.6192C79.4538 84.7424 77.3038 81.8516 75.1491 78.9655C74.5923 78.2224 74.0379 77.477 73.4044 76.6314H73.402Z" fill="#093A5B"/>
<path d="M102.501 39.4401C101.418 39.4355 100.747 38.5666 101.145 37.8235C102.112 36.0159 103.146 34.2409 104.218 32.4915C104.558 31.9371 105.196 31.8626 105.76 32.2143C106.344 32.58 106.584 33.1437 106.228 33.782C105.271 35.4988 104.295 37.2062 103.272 38.8857C103.09 39.1862 102.657 39.333 102.499 39.4401H102.501Z" fill="#03A0D7"/>
<path d="M113.386 51.3014C114.313 51.3014 115.238 51.2875 116.165 51.3061C116.96 51.3224 117.481 51.8046 117.5 52.4894C117.519 53.2046 116.971 53.7287 116.137 53.7357C114.313 53.7496 112.489 53.7496 110.666 53.7357C109.813 53.7287 109.289 53.2372 109.296 52.5034C109.303 51.7766 109.822 51.3154 110.693 51.3014C111.59 51.2875 112.487 51.2991 113.386 51.2991V51.3014Z" fill="#03A0D7"/>
<path d="M115.455 41.1289C115.301 41.3106 115.077 41.7486 114.719 41.9675C113.237 42.8783 111.723 43.7379 110.202 44.5881C109.51 44.9748 108.821 44.7861 108.467 44.1851C108.117 43.5865 108.299 42.8713 108.977 42.4683C110.498 41.5645 112.028 40.6724 113.58 39.8221C114.467 39.3353 115.464 39.9246 115.452 41.1289H115.455Z" fill="#03A0D7"/>
<path d="M99.6847 44.5951C101.11 44.0943 103.018 44.8513 104.029 46.2769C105.163 47.8772 105.101 49.9481 103.763 51.6462C102.384 49.2656 101.038 46.9362 99.6847 44.5974V44.5951Z" fill="#03A0D7"/>
</g>
<defs>
<clipPath id="clip0_5_410">
<rect width="85.0047" height="85" fill="white" transform="translate(32.4977 32)"/>
</clipPath>
</defs>
</svg>
