<svg width="150" height="149" viewBox="0 0 150 149" fill="none" xmlns="http://www.w3.org/2000/svg">
<rect x="0.5" width="149" height="149" rx="20" fill="#093A5B" fill-opacity="0.1"/>
<g clip-path="url(#clip0_5_409)">
<path d="M106.101 82.9593H43.8821V46.2384H106.101V82.9593ZM80.6851 53.2476C80.652 53.0962 80.6354 52.9803 80.5976 52.8691C80.3894 52.247 79.9636 51.8661 79.3035 51.8448C78.5062 51.8188 78.078 52.3132 77.8438 53.0182C76.5615 56.867 75.2768 60.7134 73.9969 64.5598C72.4851 69.1065 70.9686 73.6507 69.471 78.1997C69.1185 79.269 69.7526 80.1987 70.7864 80.1632C71.6358 80.1348 71.9599 79.5434 72.2012 78.8172C74.9361 70.592 77.6876 62.3717 80.432 54.1513C80.5337 53.8461 80.6047 53.5315 80.6851 53.2452V53.2476ZM92.6421 66.0099C90.1982 68.0467 87.8607 69.9865 85.5351 71.9357C84.778 72.572 84.6787 73.3574 85.2323 74.015C85.767 74.6514 86.5359 74.7271 87.2645 74.1239C90.0633 71.815 92.8503 69.4968 95.6207 67.1549C96.4795 66.4286 96.4393 65.5865 95.5828 64.82C95.0766 64.3682 94.5466 63.9448 94.0261 63.5119C91.8093 61.6596 89.5973 59.7979 87.3686 57.9575C86.5926 57.3164 85.8024 57.3661 85.2536 58.0237C84.7189 58.6624 84.8088 59.4218 85.5067 60.0487C85.8569 60.3633 86.2283 60.6542 86.5903 60.957C88.5776 62.6153 90.5625 64.2759 92.6374 66.0099H92.6421ZM57.3863 66.0288C57.6655 65.7757 57.8713 65.577 58.0913 65.3949C60.1946 63.6372 62.3049 61.8891 64.401 60.122C65.1865 59.4596 65.293 58.7216 64.7606 58.0403C64.2378 57.3708 63.4263 57.3046 62.655 57.9409C59.8846 60.2332 57.1261 62.5372 54.377 64.8555C53.5442 65.5581 53.5205 66.431 54.3391 67.1241C57.1308 69.4826 59.9414 71.8174 62.7591 74.1451C63.4831 74.7436 64.252 74.6679 64.789 74.0269C65.3142 73.4024 65.2314 72.6028 64.5454 72.0067C63.8119 71.368 63.0549 70.7553 62.3096 70.1331C60.6867 68.78 59.0637 67.4269 57.3839 66.0288H57.3863Z" fill="#093A5B"/>
<path d="M40.9579 40.5019V43.3335C39.6449 43.3335 38.3578 43.3264 37.0708 43.3335C35.8524 43.343 35.3319 43.8445 35.3296 45.0438C35.3248 58.4117 35.3272 71.7796 35.3296 85.1475C35.3296 85.3462 35.3509 85.5449 35.365 85.7838H114.673V84.8423C114.673 71.6802 114.673 58.5181 114.673 45.3584C114.673 43.7593 114.238 43.3359 112.615 43.3311C111.493 43.3288 110.372 43.3217 109.25 43.3146C109.198 43.3146 109.146 43.2744 109.052 43.2318V40.5965C110.774 40.5965 112.525 40.4049 114.214 40.6462C116.208 40.9324 117.495 42.7468 117.495 44.786C117.5 61.7543 117.5 78.7226 117.495 95.6909C117.495 98.1487 115.648 99.9891 113.178 99.9915C87.7377 99.9962 62.2954 99.9962 36.8555 99.9915C34.3288 99.9915 32.5047 98.1629 32.5047 95.6388C32.5 78.7036 32.5 61.7637 32.5024 44.8262C32.5024 42.3494 34.3099 40.5374 36.7917 40.5066C38.1473 40.4901 39.5029 40.5043 40.9579 40.5043V40.5019ZM74.948 94.3307C75.802 94.3307 76.6561 94.3307 77.5078 94.3307C77.5362 94.3307 77.567 94.3307 77.5953 94.3307C78.6339 94.2975 79.2562 93.7463 79.2349 92.8805C79.2136 92.0384 78.6198 91.5109 77.6214 91.5038C75.8564 91.4896 74.0892 91.4872 72.3219 91.5038C71.3259 91.5132 70.7486 92.0479 70.7415 92.9018C70.7344 93.7653 71.2998 94.2999 72.2959 94.3236C73.1783 94.3448 74.0608 94.3283 74.9456 94.3283L74.948 94.3307Z" fill="#03A0D7"/>
<path d="M43.8442 43.272C43.8442 40.7314 43.7827 38.2546 43.8631 35.7826C43.927 33.8499 45.7629 32.1301 47.6958 32.0166C47.9892 32 48.2849 32.0024 48.5806 32.0024C66.1943 32 83.808 32 101.422 32C103.911 32 105.593 33.1993 106.066 35.3544C106.191 35.9198 106.158 36.5254 106.161 37.1144C106.17 39.1464 106.165 41.1784 106.165 43.272H43.8442ZM90.6737 37.6703C87.8702 37.6703 85.0667 37.6324 82.2655 37.7058C81.771 37.72 81.1228 38.0937 80.8578 38.503C80.6425 38.8342 80.7182 39.6243 80.9856 39.9294C81.2931 40.2819 81.9508 40.4782 82.4619 40.4853C85.7362 40.5326 89.0105 40.509 92.2848 40.509C94.4378 40.509 96.593 40.509 98.746 40.509C99.4368 40.509 100.04 40.3458 100.331 39.6337C100.755 38.5952 100.061 37.6821 98.8146 37.675C96.1009 37.6608 93.3873 37.6703 90.6713 37.6703H90.6737ZM56.5606 37.675C55.8177 37.6916 55.1529 38.3871 55.1837 39.1228C55.2121 39.8277 55.8651 40.4664 56.5677 40.4782C57.3011 40.4901 57.9943 39.8064 57.9896 39.0731C57.9848 38.3327 57.2964 37.6585 56.5606 37.675ZM63.6558 39.118C63.6794 38.3847 63.0123 37.6869 62.2718 37.675C61.5312 37.6632 60.8499 38.3374 60.8499 39.0778C60.8499 39.778 61.4839 40.438 62.1889 40.4782C62.9153 40.5185 63.6321 39.8537 63.6558 39.1157V39.118ZM52.3163 39.092C52.3234 38.3539 51.6444 37.6727 50.9062 37.6774C50.1657 37.6821 49.4938 38.3705 49.5104 39.1062C49.527 39.8088 50.1728 40.4569 50.8755 40.4806C51.6089 40.5043 52.3092 39.8301 52.3163 39.092Z" fill="#093A5B"/>
<path d="M74.9503 116.998C68.9884 116.998 63.0288 116.998 57.0669 116.998C55.5883 116.998 55.1695 116.581 55.1648 115.122C55.1648 114.296 55.1553 113.468 55.1695 112.643C55.2097 110.343 57.0527 108.51 59.3689 108.51C69.7857 108.503 80.2025 108.503 90.6217 108.51C92.9709 108.51 94.7974 110.365 94.8281 112.733C94.84 113.589 94.8352 114.443 94.8281 115.299C94.8187 116.513 94.3289 116.998 93.0987 116.998C87.0492 117 80.9998 116.998 74.9503 116.998Z" fill="#03A0D7"/>
<path d="M85.4286 105.648H64.5666C65.0256 104.758 65.4444 103.899 65.9152 103.074C65.998 102.927 66.3032 102.84 66.5066 102.84C72.1704 102.828 77.8343 102.825 83.4981 102.844C83.7134 102.844 84.0233 102.989 84.1227 103.161C84.5746 103.942 84.9697 104.756 85.4286 105.648Z" fill="#03A0D7"/>
</g>
<defs>
<clipPath id="clip0_5_409">
<rect width="85" height="85" fill="white" transform="translate(32.5 32)"/>
</clipPath>
</defs>
</svg>
