<svg id="Layer_1" data-name="Layer 1" xmlns="http://www.w3.org/2000/svg" viewBox="0 0 140.43 140.46"><defs><style>.cls-1{fill:#093a5b;}.cls-2{fill:#03a1d8;}</style></defs><ellipse class="cls-1" cx="25.57" cy="37.41" rx="15.87" ry="13.72"/><path class="cls-1" d="M111.51,0h20.75c5,0,8.12,3.09,8.12,8.1q0,10.23,0,20.46c0,5-3,8.09-8.1,8.1-6.68,0-13.35,0-20,0a4.42,4.42,0,0,0-2.48.9c-3.77,3-7.46,6.11-11.21,9.14a5.41,5.41,0,0,1-1.52.63,5.57,5.57,0,0,1-.51-1.54c0-2.54-.06-5.07,0-7.6,0-1.15-.45-1.59-1.55-1.58-1.61,0-3.22,0-4.83,0a7.32,7.32,0,0,1-7.4-7.43q-.08-10.89,0-21.79A7.34,7.34,0,0,1,90.32,0C97.38,0,104.45,0,111.51,0Zm.21,8.38H94.18c-1.71,0-2.54.57-2.54,1.72s.87,1.76,2.53,1.78h34.36c.48,0,1.11.13,1.42-.11a3.53,3.53,0,0,0,1.38-1.74c.19-.91-.52-1.52-1.48-1.62a11.47,11.47,0,0,0-1.31,0Zm-.23,11.75H128.6c.53,0,1.21.11,1.56-.17.53-.43,1.18-1.17,1.14-1.73s-.85-1.09-1.39-1.55c-.17-.15-.57-.05-.86-.05H94c-.29,0-.67-.09-.85.05-.53.43-1.29.92-1.35,1.46a2.41,2.41,0,0,0,.94,1.73,3,3,0,0,0,1.69.26Zm8.74,4.71c-2.92,0-5.84,0-8.76,0-1.59,0-2.37.58-2.38,1.72s.8,1.78,2.35,1.78q8.84,0,17.67,0c1.53,0,2.36-.67,2.28-1.82-.1-1.39-1-1.7-2.25-1.69C126.17,24.87,123.2,24.85,120.23,24.85Z"/><path class="cls-2" d="M25,17.83H43.22c4.23,0,6.54,2.29,6.54,6.47q0,11.4,0,22.81c0,4-2.38,6.38-6.35,6.39h-37C2.39,53.5,0,51.08,0,47Q0,35.6,0,24.19c0-4,2.38-6.35,6.37-6.36Zm-4.89,17.8c0,1.71,0,3.42,0,5.12.06,2,1.51,2.93,3.27,2q4.53-2.52,9-5.18c1.66-1,1.67-2.74,0-3.73q-4.46-2.67-9-5.18c-1.78-1-3.22-.14-3.29,1.91C20,32.22,20.06,33.93,20.06,35.63Z"/><path class="cls-2" d="M30,88.08c12.87-4.65,24.09-11.37,32.45-22.63,4.41,16.47,8.76,32.72,13.19,49.25-12.87-5.59-26-5.75-39.4-3.38Z"/><path class="cls-2" d="M123.67,115a30,30,0,0,1,2.71-3.06,8.06,8.06,0,0,1,10.13-.36c3.24,2.37,5,7,3.25,10.34a45.12,45.12,0,0,1-5.69,8.42c-2.72,3.25-5.81,6.17-8.76,9.22-1.07,1.1-2,1.21-2.9.2-4.07-4.39-8.15-8.77-12.09-13.28A16.6,16.6,0,0,1,107.7,122c-1.61-3.85.45-8.94,4.3-11a8.31,8.31,0,0,1,10.83,2.81C123.1,114.15,123.36,114.55,123.67,115Z"/><path class="cls-1" d="M32.84,112c-6.54,1.78-12.89,3.61-19.31,5.18A10.23,10.23,0,0,1,8.78,117,12,12,0,0,1,0,105.22,11.46,11.46,0,0,1,8.63,93.91c6-1.58,11.94-3.1,18.09-4.69C28.74,96.79,30.77,104.33,32.84,112Z"/><path class="cls-2" d="M68.45,52.35c2.19,0,3.79,1.3,4.44,3.7q4.5,16.71,9,33.42l7.47,27.92c.73,2.72-.17,4.94-2.38,5.9-2.62,1.14-5.41-.3-6.22-3.27-1.34-4.93-2.64-9.87-4-14.8Q70.51,81.81,64.25,58.4C63.39,55.16,65.36,52.34,68.45,52.35Z"/><path class="cls-1" d="M18.58,119.6l10.05-2.82c1.89,3.28,3.74,6.47,5.59,9.67,1.26,2.19,2.59,4.35,3.76,6.59A5,5,0,0,1,36,139.75,4.93,4.93,0,0,1,29.26,138C25.69,132,22.22,125.9,18.58,119.6Z"/><path class="cls-1" d="M86.55,92.7,83.1,79.28a44.64,44.64,0,0,1,4.65.06c.42,0,1,.78,1.11,1.3.74,2.56,1.37,5.16,2,7.74a1.73,1.73,0,0,1-.77,2.13C89,91.19,87.87,91.89,86.55,92.7Z"/><path class="cls-1" d="M112.8,76.57c.39.41,1.14.88,1.36,1.53.35,1-.31,1.77-1.34,2.05-2.29.64-4.59,1.24-6.89,1.85-1.5.41-3,.83-4.51,1.21-1.36.36-2.35-.08-2.55-1.14-.24-1.25.41-1.91,1.57-2.21l11.4-3Z"/><path class="cls-1" d="M111,102.68c.07,1.66-1.29,2.58-2.54,1.89-3.65-2-7.26-4.13-10.85-6.26A1.55,1.55,0,0,1,97,96a1.6,1.6,0,0,1,2.37-.65c3.59,2.05,7.17,4.1,10.71,6.21C110.57,101.85,110.81,102.45,111,102.68Z"/><path class="cls-1" d="M91.56,71.17c-1.66,0-2.56-1.26-1.91-2.44,2-3.7,4.17-7.34,6.33-11a1.71,1.71,0,0,1,2.92,1.76c-2.06,3.63-4.13,7.25-6.26,10.84C92.39,70.8,91.77,71,91.56,71.17Z"/></svg>