<?xml version="1.0" encoding="UTF-8"?><svg id="Layer_1" xmlns="http://www.w3.org/2000/svg" viewBox="0 0 42.95 42.95"><defs><style>.cls-1{fill:#fff;}</style></defs><path class="cls-1" d="M21.47,7.16c5.1,0,10.2,0,15.3,0,.38,0,.46,.09,.46,.46-.01,5.9-.01,11.81,0,17.71,0,.38-.1,.46-.46,.46-10.2-.01-20.4-.01-30.59,0-.38,0-.46-.1-.45-.46,.01-5.9,.01-11.81,0-17.71,0-.38,.1-.45,.46-.45,5.1,.01,10.2,0,15.3,0Zm-2.06,17.18c.34,0,.52-.28,.64-.65,1.37-4.13,2.75-8.26,4.13-12.38,.23-.69,.13-1.09-.31-1.25-.47-.17-.81,.09-1.05,.8-.92,2.75-1.83,5.5-2.75,8.24-.47,1.41-.94,2.82-1.4,4.23-.18,.56,.11,.99,.74,1.01Zm-3.75-2.83c.45-.01,.67-.19,.79-.49,.12-.33,0-.6-.27-.83-1.11-.92-2.21-1.85-3.33-2.77-.23-.18-.26-.27,0-.48,1.09-.88,2.15-1.78,3.23-2.68,.43-.36,.51-.76,.24-1.12-.28-.35-.71-.35-1.13,0-1.36,1.13-2.72,2.27-4.08,3.4-.49,.41-.48,.85,.01,1.27,1.37,1.15,2.74,2.29,4.11,3.43,.16,.13,.33,.26,.45,.25Zm11.55-.01c.2,.02,.37-.12,.55-.27,1.35-1.12,2.7-2.25,4.05-3.37,.54-.45,.54-.88,0-1.33-1.33-1.12-2.67-2.23-4.01-3.35-.45-.38-.88-.38-1.17-.02-.28,.35-.19,.75,.25,1.11,1.07,.9,2.14,1.8,3.23,2.69,.21,.17,.27,.28,.01,.45-.22,.15-.42,.34-.62,.51-.91,.76-1.83,1.53-2.75,2.29-.27,.23-.37,.51-.24,.83,.11,.28,.33,.46,.7,.46Z"/><path class="cls-1" d="M21.48,27.2c6.52,0,13.03,0,19.55,.01,.42,0,.5-.11,.5-.51-.01-6.65,0-13.3,0-19.95,0-.83-.2-1.02-1.03-1.02-.52,0-1.04,0-1.57,0-.21,0-.27-.06-.28-.27-.05-1.16-.06-1.16,1.08-1.16,.34,0,.69,0,1.03,0,1.25,.02,2.18,.93,2.19,2.17,.01,1.07,0,2.15,0,3.22,0,7.41,0,14.82,0,22.23,0,1.58-.85,2.43-2.43,2.43-12.7,0-25.41,0-38.11,0-1.55,0-2.41-.86-2.41-2.4C0,23.53,0,15.1,0,6.68c0-1.51,.87-2.38,2.38-2.38,.54,0,1.07,0,1.61,0,.22,0,.3,.04,.31,.29,.03,1.15,.04,1.15-1.1,1.15-.31,0-.63,0-.94,0-.59,0-.83,.25-.83,.85,0,.07,0,.15,0,.22,0,6.64,0,13.27-.01,19.91,0,.42,.12,.5,.51,.5,6.52-.01,13.03,0,19.55,0Zm-.03,4.29c.48,0,.95,0,1.43,0,.46-.01,.74-.3,.74-.72,0-.42-.28-.7-.75-.71-.94,0-1.88-.01-2.81,0-.47,0-.74,.29-.73,.72,0,.43,.27,.7,.74,.71,.46,.01,.92,0,1.38,0Z"/><path class="cls-1" d="M21.43,5.73c-5.08,0-10.17,0-15.25,0-.37,0-.47-.09-.46-.46,.03-1.01,0-2.03,.01-3.04C5.73,.93,6.64,0,7.94,0c9.02,0,18.04,0,27.06,0,1.3,0,2.21,.93,2.21,2.24,0,1.03-.01,2.06,.01,3.09,0,.34-.09,.41-.42,.41-5.13-.01-10.26,0-15.38,0Zm7.92-2.86c-1.38,0-2.77,0-4.15,0-.58,0-.87,.25-.87,.72,0,.47,.29,.71,.88,.71,2.75,0,5.51,0,8.26,0,.57,0,.88-.27,.88-.72,0-.46-.31-.71-.89-.71-1.37,0-2.74,0-4.11,0Zm-19.33,.7c0-.39-.32-.7-.71-.7-.41,0-.73,.34-.72,.74,.02,.38,.35,.7,.73,.69,.38-.01,.7-.34,.7-.72Zm2.14,.72c.38,.01,.71-.3,.73-.69,.02-.39-.29-.72-.67-.74-.4-.02-.75,.3-.75,.7,0,.38,.31,.71,.7,.72Zm2.89,0c.38,0,.7-.34,.7-.72,0-.4-.34-.73-.75-.71-.39,.02-.69,.35-.68,.73,.01,.38,.35,.7,.73,.69Z"/><path class="cls-1" d="M21.47,42.95c-3.01,0-6.02,0-9.03,0-.78,0-.99-.22-.99-1.01,0-.39,0-.77,0-1.16,.02-1.17,.94-2.11,2.1-2.11,5.27,0,10.55,0,15.82,0,1.16,0,2.08,.94,2.11,2.11,.01,.43,0,.86,0,1.3,0,.64-.26,.89-.9,.89-3.04,0-6.08,0-9.12,0Z"/><path class="cls-1" d="M26.78,37.21h-10.6c.26-.44,.54-.85,.71-1.3,.06-.16,.19-.12,.3-.12,2.86,0,5.72,0,8.59,0,.17,0,.27,.04,.34,.21,.15,.42,.4,.79,.68,1.22Z"/></svg>