<?xml version="1.0" encoding="UTF-8"?><svg id="Layer_1" xmlns="http://www.w3.org/2000/svg" viewBox="0 0 43.05 43.06"><defs><style>.cls-1{fill:#fff;}</style></defs><path class="cls-1" d="M0,.94C.33,.21,.91-.02,1.69,0c1.48,.04,2.97,.01,4.46,.01,1.02,0,1.5,.47,1.5,1.48,0,.33-.11,.78,.06,.97,.2,.22,.66,.07,1,.07,2.97,0,5.94,0,8.91,0,.26,0,.38-.08,.49-.31C18.8,.81,19.94,.03,21.51,.03c1.58,0,2.74,.78,3.43,2.21,.11,.22,.21,.3,.46,.3,3.22,0,6.45-.01,9.67,0,.29,0,.35-.09,.33-.35-.02-.31-.01-.62,0-.92,.03-.7,.53-1.24,1.22-1.24,1.74-.02,3.47-.02,5.21,0,.67,0,1.2,.54,1.21,1.21,.02,1.71,.02,3.42,0,5.13,0,.67-.54,1.2-1.21,1.21-1.74,.02-3.47,.02-5.21,0-.67,0-1.18-.53-1.21-1.21-.02-.35-.02-.7,0-1.05,0-.2-.05-.26-.26-.26-1.6,0-3.19,0-4.79,0-.02,.14,.1,.15,.17,.2,4.05,2.76,6.43,6.58,7.14,11.42,.12,.81,.29,1.35,1.1,1.8,1.51,.82,2.03,2.76,1.41,4.46-.57,1.54-2.31,2.57-3.96,2.35-1.66-.23-3-1.45-3.26-3-.3-1.78,.48-3.34,2.09-4.13,.19-.09,.27-.17,.24-.41-.29-2.8-1.27-5.32-3.05-7.51-1.87-2.31-4.25-3.85-7.12-4.65-.2-.06-.29,.01-.4,.17-1.57,2.42-4.85,2.43-6.39,.01-.12-.18-.21-.25-.43-.18-5.38,1.65-8.68,5.23-9.92,10.72-.1,.46-.13,.94-.22,1.41-.04,.22,.03,.32,.22,.42,1.59,.8,2.37,2.23,2.11,4-.2,1.37-.99,2.34-2.24,2.87-1.27,.54-2.55,.42-3.66-.41-2.42-1.8-2.01-5.32,.76-6.51,.34-.15,.3-.4,.32-.65,.15-1.66,.55-3.25,1.18-4.78,1.26-3.04,3.24-5.5,5.98-7.35,.09-.06,.18-.12,.27-.19-.05-.12-.15-.07-.22-.07-1.5,0-3,0-4.5,0-.28,0-.37,.07-.34,.34,.02,.29,.01,.59,0,.88-.02,.77-.53,1.3-1.29,1.31-1.68,.01-3.36,0-5.04,0-.66,0-1.04-.39-1.31-.93V.94Z"/><path class="cls-1" d="M13.79,43.06c-.07-.14-.23-.15-.34-.22-.49-.34-.67-.88-.47-1.43,.73-2.07,2.62-3.45,4.82-3.47,2.48-.02,4.96-.02,7.44,0,2.2,.02,4.09,1.39,4.82,3.46,.22,.61-.03,1.22-.61,1.52-.09,.05-.23,0-.28,.14H13.79Z"/><path class="cls-1" d="M22.78,11.07c.93,1.4,1.8,2.7,2.67,4,2.34,3.51,4.68,7.03,7.03,10.55,.56,.84,.54,1.32-.15,2.05-2.12,2.24-3.48,4.87-4.09,7.9-.06,.29-.12,.42-.47,.28-.82-.32-1.67-.44-2.55-.44-2.47,0-4.93,0-7.4,0-.86,0-1.71,.12-2.51,.43-.35,.14-.44,.04-.5-.29-.51-2.6-1.61-4.93-3.29-6.98-.3-.37-.64-.7-.95-1.07-.49-.58-.53-1.09-.11-1.72,3.22-4.83,6.44-9.66,9.66-14.49,.03-.04,.06-.08,.15-.19v.46c0,3.7,0,7.4,0,11.1,0,.27-.06,.41-.33,.53-1.59,.72-2.4,2.31-2.12,4.11,.25,1.59,1.63,2.84,3.4,3.05,1.53,.18,3.17-.81,3.79-2.3,.78-1.88-.05-4.01-1.92-4.87-.18-.08-.32-.14-.32-.41,.01-3.78,0-7.57,0-11.35v-.35Z"/><path class="cls-1" d="M20.26,26.54c.02-.68,.6-1.24,1.28-1.22,.7,.01,1.26,.62,1.23,1.31-.03,.68-.62,1.23-1.3,1.2-.68-.02-1.23-.61-1.21-1.29Z"/></svg>