<?xml version="1.0" encoding="UTF-8"?><svg id="Layer_1" xmlns="http://www.w3.org/2000/svg" viewBox="0 0 43.07 48.32"><defs><style>.cls-1{fill:#fff;}</style></defs><path class="cls-1" d="M28.15,0c.15,.18,.36,.09,.54,.12,3.64,.63,6.39,3.65,6.51,7.17,.03,1.05,.02,2.11,0,3.16-.02,1.11-.88,1.93-2,1.92-1.1,0-1.95-.82-1.97-1.91-.02-.91,0-1.82,0-2.74-.02-2.32-1.71-3.94-4.16-3.95-4.14,0-8.29,0-12.43,0-2.14,0-4.28,0-6.41,0-2.55,0-4.24,1.6-4.24,4.01,0,10.91,0,21.83,0,32.74,0,2.41,1.7,4.01,4.24,4.01,6.25,0,12.5,0,18.75,0,2.58,0,4.26-1.6,4.26-4.04,0-1.05,0-2.11,0-3.16,0-1.18,.85-2.04,1.99-2.03,1.15,0,1.99,.86,1.98,2.05-.02,1.49,.11,2.99-.09,4.48-.45,3.32-3.32,6-6.82,6.4-.07,0-.13,.02-.15,.09H6.87c-.04-.13-.15-.09-.24-.11-.67-.12-1.33-.28-1.94-.57C1.62,46.18,.01,43.83,0,40.57,0,29.63,0,18.69,0,7.75c0-.16,0-.31,0-.47C.12,4.23,2.21,1.52,5.23,.46c.57-.2,1.17-.25,1.73-.46H28.15Z"/><path class="cls-1" d="M9.75,24.07c.03-1.17,.58-2.31,1.67-3.19,1.59-1.28,3.19-2.55,4.8-3.82,.98-.77,2.17-.7,2.91,.16,.74,.85,.59,1.97-.38,2.75-1.51,1.21-3.02,2.4-4.53,3.6-.67,.54-.68,.85,0,1.39,1.55,1.24,3.1,2.46,4.64,3.7,.72,.58,.91,1.39,.57,2.17-.33,.76-1.09,1.2-1.97,1.16-.47-.02-.86-.21-1.21-.49-1.6-1.27-3.21-2.54-4.8-3.82-1.13-.91-1.7-2.1-1.7-3.61Z"/><path class="cls-1" d="M43.07,24.26c-.03,1.21-.43,2.3-1.38,3.12-1.69,1.44-3.42,2.83-5.16,4.21-.85,.67-2.08,.51-2.75-.29-.69-.8-.6-1.91,.26-2.62,1.43-1.19,2.89-2.36,4.34-3.53,.99-.8,.99-.98,.01-1.77-1.42-1.15-2.85-2.3-4.27-3.46-.66-.54-.95-1.2-.7-2.02,.23-.77,.79-1.21,1.61-1.35,.55-.09,1.07,.04,1.49,.37,1.74,1.4,3.5,2.79,5.2,4.24,.94,.8,1.33,1.89,1.36,3.09Z"/><path class="cls-1" d="M24.28,33.6c-1.25-.02-2.15-1.08-1.83-2.26,.51-1.88,1.09-3.75,1.65-5.62,.92-3.09,1.86-6.18,2.77-9.27,.24-.83,.67-1.46,1.62-1.66,1.4-.3,2.74,.89,2.38,2.2-.53,1.99-1.15,3.96-1.74,5.93-.89,3-1.79,6-2.69,9-.32,1.08-1.11,1.69-2.16,1.67Z"/><path class="cls-1" d="M17.61,10.48c-.66,0-1.32,.01-1.99,0-1.12-.02-1.96-.81-1.99-1.83-.03-1.02,.78-1.89,1.89-1.92,1.39-.04,2.78-.04,4.17,0,1.11,.04,1.92,.91,1.89,1.92-.03,1.02-.87,1.81-1.99,1.83-.66,.01-1.32,0-1.99,0Z"/><path class="cls-1" d="M17.58,41.62c-1.09-.01-1.97-.87-1.95-1.91,.02-1.03,.94-1.88,2.02-1.86,1.09,.02,1.97,.89,1.95,1.92-.02,1.04-.92,1.86-2.02,1.85Z"/></svg>