<?xml version="1.0" encoding="UTF-8"?><svg id="Layer_1" xmlns="http://www.w3.org/2000/svg" viewBox="0 0 43.4 43.97"><defs><style>.cls-1{fill:#fff;}</style></defs><path class="cls-1" d="M29.93,18.14c.01,1.05-.31,1.99-.95,2.81-.16,.21-.16,.35-.06,.57,.87,1.9,1.75,3.79,2.6,5.7,.75,1.7-.29,3.48-2.14,3.64-1.07,.09-1.89-.41-2.43-1.33-.13-.22-.26-.34-.51-.4-2.85-.74-5.63-.42-8.37,.52-.78,.26-1.52,.61-2.29,.89-.35,.13-.34,.26-.17,.56,1.5,2.62,2.99,5.25,4.47,7.88,.89,1.56,.43,2.92-1.21,3.63-.88,.38-1.76,.76-2.65,1.13-1.24,.52-2.39,.13-3.06-1.05-1.56-2.75-3.12-5.49-4.67-8.25-.2-.36-.36-.48-.81-.39-2.02,.39-4.14-.66-5.06-2.51-.79-1.59-1.54-3.21-2.23-4.85-1.05-2.49,.03-5.16,2.5-6.31,2.43-1.13,4.88-2.2,7.29-3.36,2.78-1.34,5.24-3.08,6.92-5.75,.12-.18,.22-.38,.33-.56,.31-.49,.46-.95,.28-1.59-.36-1.3,.4-2.57,1.65-2.99,1.25-.42,2.58,.13,3.16,1.36,.87,1.86,1.72,3.74,2.56,5.62,.14,.31,.3,.43,.65,.45,2.38,.18,4.2,2.17,4.21,4.57Zm-11.27-6.72c-.07,.03-.08,.03-.09,.04-.12,.18-.23,.37-.35,.55-1.5,2.35-3.58,4.05-5.96,5.42-.32,.18-.37,.33-.21,.67,1.54,3.34,3.07,6.69,4.58,10.05,.18,.41,.35,.46,.75,.32,2.02-.71,4.08-1.14,6.24-1.09,.81,.02,1.6,.13,2.45,.27l-7.41-16.22Zm-3.36,31.16s.18-.02,.29-.07c1.01-.43,2.03-.84,3.03-1.3,.55-.25,.71-.79,.4-1.33-1.57-2.79-3.16-5.58-4.73-8.37-.11-.19-.2-.22-.39-.13-1.37,.64-2.75,1.27-4.13,1.89-.22,.1-.26,.18-.14,.4,1.59,2.78,3.16,5.57,4.74,8.36,.19,.33,.46,.54,.93,.54ZM26,15.01c.2,.67,1.97,4.46,2.19,4.7,1.22-2.25-.53-4.59-2.19-4.7Z"/><path class="cls-1" d="M34.99,9.43c-.72-.15-1.62-.27-2.47-.54-1.11-.36-2.13-.31-3.13,.31-.39,.24-.84,.4-1.27,.57-.39,.16-.61-.02-.54-.43,.07-.38,.16-.76,.26-1.13,.06-.22,0-.33-.24-.39-1.29-.32-1.66-.94-1.37-2.24,.3-1.36,.59-2.72,.88-4.08,.26-1.22,.94-1.67,2.14-1.42,2.35,.5,4.69,1.01,7.03,1.52,1.13,.25,1.58,.95,1.34,2.08-.31,1.48-.63,2.97-.96,4.45-.18,.83-.75,1.31-1.68,1.31Zm-.79-5.31c0-.85-.86-1.4-1.68-1.08-.15,.06-.26,.16-.43-.03-.52-.54-1.19-.59-1.7-.18-.49,.39-.58,1.11-.19,1.72,.34,.55,.72,1.08,1.07,1.63,.18,.27,.39,.34,.66,.16,.58-.38,1.17-.76,1.74-1.16,.36-.25,.55-.62,.54-1.07Z"/><path class="cls-1" d="M40.49,28.14c-.2,.02-.42-.06-.64-.14-.98-.34-1.96-.68-2.93-1.04-.25-.09-.46-.09-.71-.01-.72,.24-1.45,.45-2.17,.67-.18,.05-.37,.13-.52-.04-.14-.15-.07-.32,0-.48,.04-.1,.07-.2,.11-.31,.09-.26,.28-.54,.25-.78-.04-.28-.45-.23-.68-.37-.59-.36-.86-1.04-.62-1.73,.47-1.39,.96-2.78,1.46-4.16,.29-.79,1.03-1.14,1.84-.86,2.18,.75,4.35,1.5,6.52,2.27,.87,.31,1.21,1.06,.9,1.94-.46,1.33-.92,2.66-1.39,3.98-.24,.69-.73,1.05-1.41,1.05Zm-3.67-3.38c.66-.18,1.36-.34,2.03-.57,.29-.1,.28-.39,.11-.63-.36-.5-.72-1-1.11-1.49-.23-.29-.57-.26-.7,.07-.27,.69-.51,1.39-.73,2.1-.1,.3,.1,.46,.41,.52Z"/><path class="cls-1" d="M39.35,10.15c.85,0,1.71,0,2.56,0,.78,0,1.22,.44,1.22,1.21,0,1.04,0,2.08,0,3.12,0,.81-.43,1.22-1.25,1.23-.76,0-1.52,0-2.28-.01-.26,0-.48,.06-.68,.22-.44,.34-.89,.67-1.35,.99-.29,.2-.45,.12-.47-.24,0-.09-.01-.19,0-.28,.08-.48,0-.75-.61-.75-.51,0-.86-.47-.87-1.04-.02-1.12-.02-2.24,0-3.35,.01-.69,.47-1.1,1.17-1.11,.85,0,1.71,0,2.56,0h0Zm.16,3.35c.39,0,.77,0,1.16,0,.51-.01,.81-.28,.8-.7,0-.4-.3-.67-.78-.67-.79,0-1.58-.01-2.37,0-.48,0-.77,.27-.78,.68,0,.41,.29,.68,.76,.69,.4,.01,.8,0,1.21,0Z"/></svg>