<?xml version="1.0" encoding="UTF-8"?><svg id="Layer_1" xmlns="http://www.w3.org/2000/svg" viewBox="0 0 43.4 52.43"><defs><style>.cls-1{fill:#fff;}</style></defs><path class="cls-1" d="M20.97,52.43c-.08-.17-.26-.14-.4-.19-1.29-.48-2.17-1.64-2.22-2.96-.05-1.34,.71-2.58,1.98-3.1,.38-.16,.46-.35,.46-.72-.01-5.63-.01-11.27,0-16.9,0-.41-.07-.59-.53-.53-.4,.04-.8,.03-1.2,0-.32-.02-.42,.06-.41,.39,.02,.97,0,1.95,0,2.92,0,3.74,0,7.48,0,11.22,0,.87-.3,1.16-1.19,1.17-2.1,0-4.19,0-6.29,0-.32,0-.47,.07-.6,.38-.61,1.44-2.18,2.26-3.7,1.95-1.59-.32-2.71-1.63-2.72-3.19,0-1.54,1.11-2.91,2.62-3.22,1.58-.32,3.15,.45,3.78,1.89,.14,.31,.27,.44,.63,.43,1.73-.02,3.46-.02,5.19,0,.35,0,.48-.07,.48-.44-.01-4.35-.01-8.71,0-13.06,0-.34-.1-.45-.44-.42-.55,.05-1.27-.22-1.61,.11-.31,.31-.08,1.01-.08,1.53,0,1.45,0,2.9,0,4.35,0,.82-.3,1.11-1.13,1.12-2.11,0-4.23,0-6.34,0-.32,0-.48,.08-.61,.39-.65,1.49-2.2,2.27-3.8,1.94-1.47-.3-2.6-1.64-2.62-3.12-.03-1.58,1.03-2.9,2.62-3.27,1.55-.36,3.17,.44,3.81,1.92,.13,.3,.27,.4,.6,.39,1.75-.02,3.5-.02,5.24,0,.35,0,.43-.09,.43-.42-.02-1.48-.02-2.97,0-4.46,0-.37-.07-.49-.48-.48-1.96,.02-3.92,.03-5.87,0-3.14-.04-5.73-2.08-6.38-5.07-.51-2.33,.15-4.35,1.9-6.02,.24-.23,.32-.4,.21-.73-1-3.06,.48-6.34,3.47-7.71,.32-.15,.42-.29,.41-.63-.09-3.8,2.85-7.24,6.64-7.79,4.15-.6,7.96,1.76,9.02,5.61,.08,.29,.18,.43,.53,.47,1.41,.15,2.6,.77,3.49,1.85,.19,.23,.31,.25,.59,.12,4.37-2.08,9.34,.33,10.31,4.98,.11,.54,.2,1.09,.1,1.63-.07,.42,.1,.47,.46,.49,3.34,.2,6.03,2.95,6.1,6.23,.07,3.56-2.8,6.49-6.47,6.56-1.99,.04-3.98,.02-5.98,0-.38,0-.46,.1-.45,.45,.02,1.48,.02,2.97,0,4.46,0,.35,.08,.46,.45,.45,1.73-.02,3.46-.02,5.19,0,.35,0,.5-.1,.64-.42,.61-1.41,2.15-2.2,3.67-1.93,1.5,.27,2.65,1.55,2.73,3.03,.08,1.55-.92,2.92-2.45,3.34-1.56,.43-3.27-.32-3.91-1.79-.18-.42-.41-.49-.81-.49-2.04,.02-4.09,0-6.13,0-.91,0-1.19-.27-1.19-1.16,0-1.83-.01-3.65,0-5.48,0-.39-.1-.51-.49-.48-.4,.04-.81,.03-1.2,0-.39-.03-.45,.12-.45,.46,.01,4.34,.01,8.67,0,13.01,0,.36,.1,.46,.47,.45,1.75-.02,3.5-.02,5.24,0,.32,0,.44-.11,.56-.38,.65-1.48,2.2-2.26,3.8-1.94,1.49,.3,2.61,1.64,2.62,3.17,.02,1.56-1.07,2.88-2.66,3.23-1.52,.34-3.14-.48-3.76-1.93-.13-.3-.27-.4-.6-.39-2.11,.02-4.23,.01-6.34,0-.83,0-1.14-.31-1.14-1.11,0-4.69,0-9.39,0-14.08,0-.41-.11-.53-.51-.49-.4,.03-.81,.03-1.2,0-.36-.03-.42,.11-.42,.43,.01,3.19,0,6.38,0,9.58,0,2.51,0,5.02,0,7.53,0,.24,0,.42,.31,.55,1.45,.6,2.28,1.95,2.11,3.37-.17,1.47-1.19,2.53-2.77,2.87-.02,0-.03,.05-.05,.08h-1.26Z"/></svg>