<svg id="Layer_1" data-name="Layer 1" xmlns="http://www.w3.org/2000/svg" viewBox="0 0 152 123.89"><defs><style>.cls-1{fill:rgb(238,246,249);}.cls-2{fill:rgb(238,246,249);}</style></defs><path class="cls-1" d="M153,74.87a5.29,5.29,0,0,1-3.51,2.2,4.6,4.6,0,0,0-4,3.82,18.11,18.11,0,0,1-1.78,4.22A3.94,3.94,0,0,0,143.7,89c2.13,4.2,2.1,4.22-1.24,7.56-2.51,2.5-3,2.65-6,.93a4.85,4.85,0,0,0-5.39-.07,20.16,20.16,0,0,1-4.38,1.76,3.68,3.68,0,0,0-2.7,2.66c-1.41,5.06-2,4.52-6.32,4.52-3.47,0-3.89-.19-4.82-3.5a5,5,0,0,0-3.87-4,27.54,27.54,0,0,1-4.62-2,3.35,3.35,0,0,0-3.25,0c-4.48,2.4-4.47,2.31-8-1.33-2.17-2.21-2.4-2.86-.84-5.55a5.18,5.18,0,0,0,.05-5.92A20,20,0,0,1,90.59,80a3.57,3.57,0,0,0-2.48-2.5c-4.91-1.49-4.67-1.58-4.65-6.54,0-3.27.24-3.75,3.39-4.61A5.16,5.16,0,0,0,91,62.23a22.34,22.34,0,0,1,1.86-4.34,3.4,3.4,0,0,0,0-3.38c-2.46-4.6-2.21-4.5,1.36-8,2.25-2.24,2.77-2.43,5.53-.84a5.21,5.21,0,0,0,5.94,0,17.71,17.71,0,0,1,4.11-1.63,3.67,3.67,0,0,0,2.69-2.67c1.4-4.8,1.75-4.54,6.34-4.51,3.43,0,3.86.22,4.79,3.55a4.93,4.93,0,0,0,3.89,3.93,20.43,20.43,0,0,1,4.34,1.86,3.65,3.65,0,0,0,3.66,0c4.17-2.21,4.23-2.34,7.8,1.32,2.34,2.39,2.52,2.84.85,5.78a5,5,0,0,0,0,5.68,11.86,11.86,0,0,1,1.45,3.55,4.47,4.47,0,0,0,3.77,3.66c1.52.32,2.94.87,3.65,2.44ZM103.1,71.6a15.14,15.14,0,0,0,30.27.09,15.14,15.14,0,1,0-30.27-.09Z"/><path class="cls-2" d="M1.05,68.05V66.43q0-28.47,0-56.95C1.06,4.15,4.2,1,9.54,1H109.66c5.42,0,8.57,3.16,8.58,8.56q0,10.38,0,20.77v1.61c-.74,0-1.32,0-1.9,0-3.88.09-6.64,2-7.78,5.68-.4,1.31-1,2.2-2.35,2.45a.94.94,0,0,0-.28.1,5.7,5.7,0,0,1-6.12.15c-2.66-1.3-5.45-.6-7.72,1.39a39.56,39.56,0,0,0-3.78,3.77,7.42,7.42,0,0,0-1,8.82,4.06,4.06,0,0,1,.12,3.7c-.84,2.23-1.88,3.82-4.4,4.52A6.17,6.17,0,0,0,79,67c-.27.87-.61,1.16-1.52,1.16q-37.68,0-75.35,0C1.82,68.12,1.53,68.08,1.05,68.05ZM32,35.84c.61-.37,1.06-.66,1.53-.93,4.69-2.62,9.4-5.23,14.09-7.86,1.7-.95,2.22-2.29,1.48-3.62s-2.19-1.59-3.86-.65q-9.51,5.28-19,10.6c-2.42,1.36-2.41,3.49,0,4.86q9.48,5.32,19,10.61c1.69.94,3.12.67,3.85-.68s.2-2.63-1.53-3.6c-3-1.7-6-3.37-9-5.06Zm55.37,0-6.17,3.45c-3.27,1.83-6.56,3.65-9.83,5.5a2.4,2.4,0,0,0-1.18,3.37c.68,1.29,2.07,1.64,3.57.89.23-.11.44-.24.65-.36q9.19-5.13,18.37-10.26c1.09-.6,2.07-1.24,2-2.65s-1-1.94-2-2.51q-9.26-5.15-18.5-10.32a7.31,7.31,0,0,0-1.19-.59,2.26,2.26,0,0,0-2.9,1.13,2.22,2.22,0,0,0,.64,3,15.76,15.76,0,0,0,2,1.21ZM66.27,17.75a2.47,2.47,0,0,0-2.47-2.61c-1.33,0-2.11.76-2.5,2.45q-2.37,10.32-4.73,20.64c-1.16,5.05-2.33,10.11-3.47,15.16a2.43,2.43,0,1,0,4.69,1.29,6.42,6.42,0,0,0,.23-.86q3.24-14.08,6.46-28.15C65.1,23,65.7,20.28,66.27,17.75Z"/><path class="cls-1" d="M1.05,73.13H78.41c0,.29.09.56.11.84.22,4.61,2.09,7.78,5.66,9.12A3.38,3.38,0,0,1,86.64,86a5.67,5.67,0,0,0,.69,2c1.18,1.86.46,3.5-.34,5.12a1.58,1.58,0,0,1-.91.64,3.28,3.28,0,0,1-1,0c-25.06,0-50.13-.1-75.2.07C4.42,93.85.67,89.21,1,83.08,1.21,79.84,1.05,76.58,1.05,73.13Z"/><path class="cls-1" d="M58.75,124.89q-12.53,0-25.06,0c-1.83,0-2.87-1.48-3-4.21-.18-3.14.86-5.36,2.7-5.41a88.07,88.07,0,0,1,8.9,0c1.23.09,1.73-.79,2.08-3,.68-4.23,1.55-8.33,2.24-12.55.29-1.82.78-2.29,1.71-2.28q10.38.11,20.76,0c1,0,1.49.44,1.8,2.4.67,4.23,1.59,8.31,2.24,12.54.36,2.32,1,2.89,2.12,2.82,2.82-.16,5.64-.07,8.45,0,2,0,3.09,1.7,3.13,4.67s-1.1,5-3.13,5Q71.21,124.91,58.75,124.89Z"/><path class="cls-2" d="M118.21,61.43a10.24,10.24,0,0,1,0,20.47,10.24,10.24,0,1,1,0-20.47Z"/></svg>