<svg width="200" height="200" viewBox="0 0 200 200" fill="none" xmlns="http://www.w3.org/2000/svg">
<g opacity="0.05" clip-path="url(#clip0_5_307)">
<path d="M173.18 119.904H26.7813V33.5022H173.18V119.904ZM113.377 49.9944C113.299 49.6382 113.26 49.3655 113.171 49.1039C112.681 47.64 111.679 46.7438 110.126 46.6938C108.25 46.6325 107.242 47.7958 106.691 49.4545C103.674 58.5105 100.651 67.5609 97.6397 76.6114C94.0826 87.3094 90.5144 98.0018 86.9907 108.705C86.1612 111.221 87.6531 113.409 90.0857 113.325C92.0842 113.258 92.8468 111.867 93.4146 110.158C99.8497 90.8048 106.324 71.4628 112.781 52.1207C113.02 51.4026 113.187 50.6624 113.377 49.9889V49.9944ZM141.511 80.0234C135.76 84.8158 130.261 89.3799 124.788 93.9664C123.007 95.4636 122.773 97.3116 124.076 98.8589C125.334 100.356 127.143 100.534 128.858 99.115C135.443 93.6825 142.001 88.2278 148.519 82.7173C150.54 81.0086 150.445 79.027 148.43 77.2236C147.239 76.1605 145.992 75.1642 144.767 74.1456C139.551 69.7874 134.346 65.4069 129.103 61.0765C127.277 59.5681 125.418 59.685 124.126 61.2323C122.868 62.7352 123.08 64.5219 124.722 65.9969C125.546 66.7372 126.42 67.4218 127.271 68.1343C131.947 72.0361 136.618 75.9434 141.5 80.0234H141.511ZM58.556 80.0679C59.2129 79.4723 59.6972 79.0048 60.2149 78.5762C65.1637 74.4406 70.1292 70.3273 75.0612 66.1694C76.9094 64.6109 77.1599 62.8743 75.9074 61.2713C74.6771 59.6961 72.7678 59.5402 70.953 61.0375C64.4344 66.431 57.9437 71.8524 51.4752 77.3071C49.5157 78.9603 49.46 81.0141 51.3861 82.645C57.9548 88.1944 64.568 93.6881 71.198 99.1651C72.9014 100.573 74.7105 100.395 75.9742 98.8868C77.21 97.4173 77.0151 95.536 75.4008 94.1334C73.6751 92.6305 71.8938 91.1889 70.1403 89.725C66.3215 86.5412 62.5028 83.3574 58.5504 80.0679H58.556Z" fill="#03A0D7"/>
<path d="M19.9009 20.0045V26.667C16.8114 26.667 13.7831 26.6503 10.7549 26.667C7.88801 26.6893 6.66334 27.8693 6.65777 30.6913C6.64664 62.1452 6.65221 93.599 6.65777 125.053C6.65777 125.52 6.70787 125.988 6.74127 126.55H193.348V124.335C193.348 93.3653 193.348 62.3956 193.348 31.4316C193.348 27.6689 192.324 26.6726 188.505 26.6615C185.866 26.6559 183.228 26.6392 180.589 26.6225C180.467 26.6225 180.344 26.5279 180.121 26.4277V20.2271C184.174 20.2271 188.293 19.7763 192.268 20.344C196.961 21.0175 199.989 25.2867 199.989 30.0846C200 70.01 200 109.935 199.989 149.861C199.989 155.644 195.641 159.974 189.83 159.98C129.971 159.991 70.1069 159.991 10.2483 159.98C4.30306 159.98 0.0111458 155.677 0.0111458 149.738C1.24215e-05 109.891 1.24217e-05 70.0323 0.00557911 30.1792C0.00557911 24.3516 4.25853 20.088 10.098 20.0156C13.2877 19.9766 16.4774 20.01 19.9009 20.01V20.0045ZM99.8775 146.66C101.887 146.66 103.897 146.66 105.901 146.66C105.967 146.66 106.04 146.66 106.107 146.66C108.55 146.582 110.014 145.286 109.964 143.248C109.914 141.267 108.517 140.026 106.168 140.009C102.015 139.976 97.8568 139.97 93.6985 140.009C91.3549 140.031 89.9967 141.289 89.98 143.298C89.9633 145.33 91.2937 146.588 93.6373 146.644C95.7137 146.694 97.79 146.655 99.872 146.655L99.8775 146.66Z" fill="#03A0D7"/>
<path d="M26.6923 26.5223C26.6923 20.5444 26.5475 14.7167 26.7368 8.90014C26.8871 4.35267 31.2068 0.306134 35.7548 0.0389625C36.4451 0 37.1409 0.00556607 37.8368 0.00556607C79.2808 0 120.725 0 162.169 0C168.025 0 171.983 2.822 173.096 7.89269C173.391 9.22298 173.313 10.6479 173.319 12.0338C173.341 16.8151 173.33 21.5963 173.33 26.5223H26.6923ZM136.879 13.3419C130.283 13.3419 123.686 13.2528 117.095 13.4254C115.932 13.4588 114.407 14.3382 113.783 15.3011C113.277 16.0804 113.455 17.9394 114.084 18.6575C114.807 19.4868 116.355 19.9488 117.557 19.9655C125.262 20.0768 132.966 20.0212 140.67 20.0212C145.736 20.0212 150.807 20.0212 155.873 20.0212C157.498 20.0212 158.918 19.6371 159.603 17.9617C160.599 15.5182 158.968 13.3697 156.034 13.353C149.649 13.3196 143.264 13.3419 136.874 13.3419H136.879ZM56.6132 13.353C54.8653 13.392 53.301 15.0284 53.3734 16.7594C53.4402 18.4181 54.9766 19.921 56.6299 19.9488C58.3556 19.9766 59.9866 18.368 59.9755 16.6425C59.9644 14.9004 58.3445 13.314 56.6132 13.353ZM73.3077 16.7483C73.3634 15.0228 71.7936 13.3808 70.0512 13.353C68.3088 13.3252 66.7056 14.9115 66.7056 16.6537C66.7056 18.3012 68.1975 19.8542 69.8564 19.9488C71.5653 20.0434 73.252 18.4794 73.3077 16.7427V16.7483ZM46.6266 16.6871C46.6433 14.9505 45.0456 13.3474 43.3088 13.3586C41.5665 13.3697 39.9855 14.9894 40.0245 16.7205C40.0634 18.3736 41.5832 19.8987 43.2365 19.9544C44.9621 20.01 46.6099 18.4237 46.6266 16.6871Z" fill="#03A0D7"/>
<path d="M99.8831 199.994C85.855 199.994 71.8326 199.994 57.8045 199.994C54.3253 199.994 53.34 199.015 53.3289 195.581C53.3289 193.638 53.3066 191.69 53.34 189.747C53.4346 184.337 57.7711 180.023 63.2209 180.023C87.731 180.007 112.241 180.007 136.757 180.023C142.285 180.023 146.582 184.387 146.654 189.959C146.682 191.974 146.671 193.983 146.654 195.998C146.632 198.853 145.48 199.994 142.585 199.994C128.351 200 114.117 199.994 99.8831 199.994Z" fill="#03A0D7"/>
<path d="M124.538 173.288H75.4509C76.5308 171.196 77.5161 169.175 78.6239 167.233C78.8188 166.887 79.5369 166.681 80.0156 166.681C93.3422 166.654 106.669 166.648 119.996 166.693C120.502 166.693 121.231 167.032 121.465 167.438C122.528 169.275 123.458 171.19 124.538 173.288Z" fill="#03A0D7"/>
</g>
<defs>
<clipPath id="clip0_5_307">
<rect width="200" height="200" fill="white"/>
</clipPath>
</defs>
</svg>
