<svg width="201" height="200" viewBox="0 0 201 200" fill="none" xmlns="http://www.w3.org/2000/svg">
<g opacity="0.05" clip-path="url(#clip0_5_313)">
<path d="M30.8852 167.492C25.9962 164.341 21.2222 161.65 16.8813 158.383C9.39983 152.754 3.68319 145.634 1.24417 136.415C-2.04988 123.979 1.61688 113.198 9.91504 103.837C18.712 93.9052 30.1014 88.1611 42.6254 84.5053C46.7964 83.2886 51.0934 82.5048 55.6426 81.4525C54.6396 91.499 57.6267 99.6657 65.5467 105.497C73.4886 111.346 82.1705 111.768 91.3017 107.898C92.8145 109.926 94.3437 111.976 96.1304 114.366H93.5325C74.9301 114.366 56.3332 114.366 37.7309 114.366C37.117 114.366 36.4922 114.311 35.8838 114.393C34.2724 114.607 33.1981 115.484 33.1543 117.177C33.1104 118.887 34.1902 119.781 35.7687 120.071C36.4319 120.192 37.1335 120.126 37.8131 120.126C58.0543 120.126 78.2954 120.143 98.5366 120.099C99.9123 120.099 100.784 120.499 101.589 121.611C104.763 125.98 107.997 130.304 111.263 134.601C114.925 139.414 120.855 140.055 125.47 136.174C126.725 135.116 127.904 133.971 129.12 132.875C133.933 128.545 134.409 123.617 130.512 118.378C124.971 110.918 119.43 103.458 113.889 95.9934C113.527 95.5001 113.182 94.9959 112.738 94.3711C114.163 93.8065 115.467 93.2365 116.816 92.7871C117.205 92.6555 117.797 92.7432 118.147 92.9625C128.605 99.4574 137.095 107.657 140.219 120.033C143.289 132.184 139.485 142.642 131.494 151.833C131.066 152.327 130.058 152.508 129.323 152.513C120.296 152.557 111.269 152.535 102.242 152.546C95.5001 152.551 91.6635 156.333 91.5977 163.036C91.5703 165.837 91.5484 168.643 91.6141 171.444C91.6415 172.59 91.3182 173.198 90.1178 173.412C80.855 175.056 71.5374 175.632 62.154 174.777C60.581 174.634 59.3094 174.897 57.972 175.84C47.7555 183.047 37.4897 190.178 27.202 197.287C26.5059 197.764 25.5358 197.846 24.6972 198.109C24.6095 197.238 24.2861 196.311 24.467 195.495C26.5826 186.056 28.7805 176.629 30.8797 167.514L30.8852 167.492ZM70.655 135.681C59.5834 135.681 48.5119 135.681 37.4459 135.681C36.832 135.681 36.2017 135.615 35.6043 135.725C34.1737 135.988 33.2529 136.848 33.1488 138.328C33.0447 139.819 33.8284 140.828 35.248 141.195C36.0263 141.398 36.8704 141.392 37.6815 141.392C59.6876 141.403 81.6881 141.403 103.694 141.392C104.505 141.392 105.349 141.381 106.128 141.184C107.569 140.817 108.545 139.66 108.134 138.328C107.816 137.303 106.632 136.465 105.678 135.747C105.284 135.451 104.483 135.681 103.87 135.681C92.798 135.681 81.7265 135.681 70.6604 135.681H70.655Z" fill="#03A0D7"/>
<path d="M123.974 158.279C131.357 158.279 138.745 158.273 146.128 158.279C149.268 158.279 150.671 159.583 150.682 162.73C150.721 173.669 150.721 184.609 150.682 195.544C150.671 198.542 149.224 199.967 146.243 199.973C131.406 200.005 116.563 200.005 101.727 199.973C98.7065 199.967 97.2431 198.416 97.2376 195.347C97.2157 184.478 97.2157 173.604 97.2376 162.735C97.2431 159.682 98.7229 158.284 101.814 158.279C109.197 158.268 116.585 158.279 123.968 158.279H123.974ZM116.618 170.315C116.333 171.165 115.889 171.888 115.878 172.617C115.813 176.914 115.818 181.211 115.856 185.514C115.873 187.69 116.563 188.052 118.526 186.939C122.198 184.851 125.859 182.735 129.499 180.597C131.422 179.468 131.417 178.712 129.499 177.588C125.793 175.423 122.066 173.291 118.345 171.154C117.939 170.918 117.501 170.743 116.624 170.321L116.618 170.315Z" fill="#03A0D7"/>
<path d="M91.3291 58.2954C103.135 48.9997 113.653 38.5475 121.874 25.5029C132.305 43.5681 142.587 61.3647 152.875 79.1833C147.443 79.8959 142.165 80.4111 136.953 81.3154C127.991 82.872 119.348 85.607 110.902 88.9668C109.773 89.4163 109.131 89.4437 108.441 88.2379C102.927 78.5749 97.3417 68.9504 91.784 59.3094C91.6196 59.0244 91.51 58.712 91.3236 58.2899L91.3291 58.2954Z" fill="#03A0D7"/>
<path d="M17.8734 54.8972C17.1718 55.2316 15.6426 55.6975 14.4314 56.5908C12.9076 57.7199 11.7621 57.6596 10.518 56.3168C9.44917 55.1658 8.32557 54.0641 7.19101 52.9734C6.06194 51.8882 5.86462 50.7646 6.97726 49.5862C10.9345 45.3713 7.78296 38.2406 2.21431 38.3612C0.85503 38.3886 0.0931778 37.4514 0.0493302 36.1085C-0.0109603 34.2669 -0.0109603 32.4198 0.0438492 30.5728C0.0876969 29.1532 0.811183 28.3804 2.31296 28.194C8.30365 27.4431 10.6659 21.88 7.02658 17.0896C6.0729 15.8345 5.9852 14.7931 7.11976 13.675C8.38586 12.4308 9.641 11.1702 10.8907 9.90957C11.943 8.85174 13.0885 8.76953 14.1299 9.82187C17.7528 13.4722 25.1302 11.3456 25.3768 5.08085C25.4316 3.66676 26.2976 2.95424 27.6076 2.89395C29.4492 2.81173 31.2962 2.82269 33.1433 2.8775C34.6835 2.92683 35.4015 3.79282 35.5824 5.34393C36.251 11.0332 41.9403 13.4941 46.4675 10.0082C47.9748 8.84626 49.0929 8.87367 50.348 10.2329C51.4114 11.3894 52.5404 12.4856 53.6695 13.5763C54.7931 14.6561 54.9959 15.84 53.9107 16.991C49.9041 21.2551 53.0502 28.1557 58.6407 28.2269C60.0548 28.2434 60.7564 29.0984 60.7838 30.4522C60.8276 32.365 60.8222 34.2779 60.7783 36.1907C60.7454 37.5829 59.9123 38.405 58.5695 38.3722C53.4009 38.2406 49.7177 45.1192 53.949 49.6465C54.952 50.7207 54.8095 51.8717 53.7682 52.9022C52.5569 54.108 51.3346 55.3028 50.1453 56.5251C49.0545 57.6487 47.9858 57.698 46.7142 56.7608C41.6498 53.0282 36.5634 55.1877 35.555 61.4963C35.3412 62.8446 34.6396 63.601 33.2639 63.6284C31.4881 63.6613 29.7123 63.6448 27.9364 63.6448C26.2976 63.6448 25.4974 62.9049 25.333 61.1894C24.9822 57.4952 22.2143 54.952 17.8789 54.8918L17.8734 54.8972ZM15.8893 33.1872C15.8509 41.2168 22.4171 47.8432 30.4357 47.8706C38.2845 47.8981 44.9603 41.2716 45.0151 33.4009C45.0699 25.4097 38.4434 18.7558 30.4357 18.7503C22.4884 18.7503 15.9277 25.2617 15.8893 33.1927V33.1872Z" fill="#03A0D7"/>
<path d="M122.505 13.6037C122.867 9.48205 125.454 5.9852 129.235 4.85064C133.204 3.66127 137.287 5.15757 139.49 8.84077C142.916 14.5793 146.21 20.4001 149.559 26.1935C158.295 41.3209 167.021 56.4538 175.78 71.5703C177.292 74.1792 177.988 76.8594 176.936 79.7808C175.626 83.4091 172.99 85.5029 169.17 85.8043C165.432 86.1003 162.527 84.467 160.641 81.2277C156.109 73.4448 151.625 65.6344 147.12 57.835C139.611 44.8342 132.08 31.8498 124.631 18.8161C123.711 17.2047 123.206 15.3467 122.51 13.6037H122.505Z" fill="#03A0D7"/>
<path d="M105.141 93.812C98.1748 97.3198 91.6525 101.518 84.5218 103.963C75.8619 106.928 66.3305 101.606 62.6747 93.1378C59.0079 84.6424 61.8416 74.5903 69.5917 69.6355C74.7602 66.3305 80.1699 63.3982 85.7002 60.1644C92.0855 71.214 98.427 82.1869 105.141 93.8065V93.812Z" fill="#03A0D7"/>
<path d="M164.286 151.411C161.721 151.499 158.882 150.397 156.278 148.66C154.19 147.268 153.56 144.938 154.733 142.73C156.043 140.258 157.44 137.824 158.931 135.456C160.378 133.154 162.719 132.639 165.185 133.889C170.765 136.722 171.483 136.547 175.286 131.526C178.942 126.703 181.853 121.48 183.891 115.78C185.004 112.672 184.341 111.017 181.54 109.246C180.301 108.463 178.805 107.608 178.219 106.396C177.66 105.229 177.703 103.387 178.23 102.165C179.298 99.6711 180.817 97.3637 182.253 95.0397C183.749 92.6117 186.045 92.0691 188.627 93.4119C194.777 96.6128 197.682 101.979 197.068 108.583C195.522 125.092 187.767 138.328 174.519 148.276C171.559 150.496 168.134 151.389 164.292 151.406L164.286 151.411Z" fill="#03A0D7"/>
<path d="M96.2455 105.015C100.318 102.664 104.209 100.422 108.243 98.0927C108.715 98.6572 109.164 99.145 109.553 99.6712C114.985 106.961 120.406 114.256 125.832 121.551C128.232 124.779 128.101 126.095 125.081 128.879C124.127 129.762 123.163 130.633 122.187 131.488C119.715 133.664 117.561 133.505 115.582 130.869C110.485 124.1 105.426 117.298 100.356 110.507C99.0463 108.759 97.7418 107.005 96.251 105.015H96.2455Z" fill="#03A0D7"/>
<path d="M164.714 17.5062C162.165 17.4952 160.586 15.4508 161.524 13.7024C163.798 9.44918 166.232 5.27269 168.753 1.1565C169.553 -0.147971 171.055 -0.323362 172.381 0.504262C173.757 1.36477 174.322 2.69116 173.483 4.19294C171.23 8.23241 168.934 12.2499 166.528 16.2017C166.1 16.9088 165.081 17.2541 164.708 17.5062H164.714Z" fill="#03A0D7"/>
<path d="M190.326 45.4152C192.508 45.4152 194.683 45.3823 196.865 45.4261C198.734 45.4645 199.962 46.5991 200.006 48.2105C200.049 49.8931 198.761 51.1263 196.799 51.1428C192.508 51.1757 188.216 51.1757 183.924 51.1428C181.918 51.1263 180.685 49.9698 180.702 48.2433C180.718 46.5333 181.94 45.4481 183.99 45.4152C186.1 45.3823 188.21 45.4097 190.326 45.4097V45.4152Z" fill="#03A0D7"/>
<path d="M195.193 21.4799C194.831 21.9074 194.305 22.9378 193.461 23.453C189.975 25.596 186.413 27.6185 182.834 29.6191C181.206 30.5289 179.583 30.085 178.75 28.6709C177.928 27.2623 178.356 25.5796 179.951 24.6314C183.53 22.5048 187.131 20.4056 190.781 18.405C192.869 17.2595 195.215 18.6462 195.188 21.4799H195.193Z" fill="#03A0D7"/>
<path d="M158.087 29.6355C161.442 28.4571 165.93 30.2384 168.309 33.5928C170.978 37.3582 170.83 42.2308 167.684 46.2264C164.44 40.6248 161.272 35.1439 158.087 29.641V29.6355Z" fill="#03A0D7"/>
</g>
<defs>
<clipPath id="clip0_5_313">
<rect width="200.011" height="200" fill="white"/>
</clipPath>
</defs>
</svg>
