<svg id="Layer_1" data-name="Layer 1" xmlns="http://www.w3.org/2000/svg" viewBox="0 0 150 136.59"><defs><style>.cls-1{fill:rgb(238,246,249);}.cls-2{fill:rgb(238,246,249);}</style></defs><path class="cls-1" d="M75,86.61l-.27,3.12H8V29.47H85v1.85c0,11.61,0,23.21,0,34.82a3.42,3.42,0,0,1-1.36,3.22C82.76,70,82,70.76,81,71.57V70.09q0-15.15,0-30.29c0-4.9-2.28-7.19-7.13-7.19-1.67,0-3.33,0-5,0A6.1,6.1,0,0,0,62.52,39c0,7,0,14,0,21.08V82.77H58.69c0-.65-.08-1.25-.08-1.86V52.34c0-5-2.31-7.24-7.27-7.24H46.81c-4.27,0-6.75,2.49-6.76,6.81q0,14.45,0,28.89v2h-3.8c0-.56-.08-1.11-.08-1.66,0-5.51,0-11,0-16.55,0-4.52-2.44-6.95-6.93-6.95H24.08c-3.9,0-6.42,2.51-6.46,6.47-.05,4.73,0,9.47,0,14.21v4.59c-.88,0-1.64,0-2.4,0a1.74,1.74,0,0,0-1.91,1.82,1.8,1.8,0,0,0,1.87,1.9,13,13,0,0,0,1.4,0H75Z"/><path class="cls-1" d="M74.55,93.58l3.67,11H8.3C3,104.59,0,101.51,0,96.22V29.84c0-5.37,3.06-8.45,8.39-8.45q37.41,0,74.82,0h1.65V25.6H9c-3.8,0-4.79,1-4.79,4.82V88.83c0,3.73,1,4.75,4.7,4.75H74.55Z"/><path class="cls-2" d="M99.73,61.16,88.72,65V63.54c0-16.12,0-32.25,0-48.38,0-1.51-.42-2.06-1.93-1.92a29.86,29.86,0,0,1-3.9,0,1.24,1.24,0,0,1-.92-.37c-.1-.19.1-.69.31-.91C86,8.1,89.78,4.26,93.5.4c.58-.6,1-.49,1.56.06,3.65,3.78,7.33,7.54,11,11.33a3.48,3.48,0,0,1,.47,1.07,3.77,3.77,0,0,1-1.08.38c-1.14,0-2.29,0-3.43,0-2.26,0-2.26,0-2.26,2.34V61.16Z"/><path class="cls-2" d="M60.45,136.55H29.68c-2.78,0-3.54-.75-3.55-3.5a19.7,19.7,0,0,1,0-2,4.89,4.89,0,0,1,4.29-4.46,15.18,15.18,0,0,1,2-.1c18.75,0,37.49,0,56.23,0a8.69,8.69,0,0,1,4,.89c2.19,1.2,3.15,5.46,2,7.72-.64,1.26-1.78,1.45-3,1.45-5.62,0-11.24,0-16.87,0Z"/><path class="cls-1" d="M125.13,116.6c-1.25-1.26-2.61-2.68-4-4.07-1.92-1.93-2.86-2.06-5.22-.73a24.93,24.93,0,1,1,9.35-9.37c-1.38,2.46-1.26,3.34.74,5.34l3.85,3.88a.64.64,0,0,1,.1.26Zm-1-26.53a20.66,20.66,0,1,0-20.61,20.66A20.59,20.59,0,0,0,124.14,90.07Z"/><path class="cls-2" d="M66.26,82.86v-43c0-2.84.66-3.51,3.45-3.51h4.37c2.44,0,3.19.72,3.2,3.13,0,5.09,0,10.19,0,15.29,0,7.38.1,14.77-.07,22.15,0,1.85-.91,3.68-1.46,5.51a.94.94,0,0,1-.74.4C72.16,82.87,69.31,82.86,66.26,82.86Z"/><path class="cls-2" d="M77.08,122.6h-33a26,26,0,0,0,4-13.26c.08-1.13.81-1,1.54-1h23.1C73.35,113.31,73.94,118.22,77.08,122.6Z"/><path class="cls-2" d="M43.8,82.8V81.14q0-14.43,0-28.86c0-2.73.7-3.43,3.39-3.43H51.4c2.8,0,3.46.66,3.46,3.53v28.7c0,.55,0,1.11-.08,1.72Z"/><path class="cls-2" d="M103.58,29.44h9.48V62.69l-9.48-1.63Z"/><path class="cls-1" d="M150,130.61c-.18,2.75-1.11,4.41-3.06,5.35a4.79,4.79,0,0,1-5.69-.65c-4.28-4.1-8.44-8.32-12.59-12.56a2.82,2.82,0,0,1,0-4,42,42,0,0,1,3.52-3.54,2.88,2.88,0,0,1,4.1.06c4.19,4.12,8.36,8.26,12.42,12.5A8.37,8.37,0,0,1,150,130.61Z"/><path class="cls-1" d="M103.57,25.52v-4c3.77,0,7.48-.28,11.12.07,4,.38,6.44,3.68,6.45,7.92q0,16,0,32v5.73c-1.41-.87-2.71-1.57-3.88-2.46-.33-.25-.34-1-.34-1.56q0-16.24,0-32.47c0-.53,0-1,0-1.57a3.29,3.29,0,0,0-3.51-3.53c-2.71-.06-5.41,0-8.12,0C104.72,25.59,104.17,25.55,103.57,25.52Z"/><path class="cls-2" d="M32.18,82.78H21.47c0-.48-.11-.88-.11-1.28,0-5.72,0-11.43,0-17.15,0-2.2.83-3,3-3,1.81,0,3.63,0,5.45,0a2.28,2.28,0,0,1,2.54,2.37c0,6.23,0,12.47,0,18.7C32.36,82.52,32.27,82.61,32.18,82.78Z"/><path class="cls-2" d="M120.38,90.07a16.9,16.9,0,1,1-16.85-16.86A16.84,16.84,0,0,1,120.38,90.07Z"/></svg>