<svg width="200" height="200" viewBox="0 0 200 200" fill="none" xmlns="http://www.w3.org/2000/svg">
<g opacity="0.05" clip-path="url(#clip0_5_326)">
<path d="M158.657 68.8745V99.9021H134.622V86.3265H120.856V124.012H107.021V79.4666H93.1805V124.053H79.4206V93.2323H65.6549V99.8675H48.0647C46.7458 91.971 43.0135 85.3991 36.2574 80.7856C29.4955 76.1663 22.0597 74.8704 13.95 76.7481C13.8982 76.1087 13.8118 75.5616 13.8118 75.0202C13.8003 69.4851 13.7715 63.95 13.8118 58.4207C13.8579 52.9029 18.3101 48.3642 23.7703 48.3066C29.3745 48.2433 34.9845 48.2433 40.5886 48.347C41.2856 48.3585 42.2302 49.0151 42.6045 49.6429C44.7817 53.283 47.8689 55.2183 52.1426 55.2125C61.4849 55.2068 70.8329 55.2125 80.1751 55.2125C80.9527 55.2125 81.736 55.2125 82.79 55.2125C82.79 56.7734 82.79 58.1845 82.79 59.5957C82.7958 63.1724 84.1723 66.0293 87.3517 67.8148C90.6463 69.6636 93.8314 69.1741 96.884 67.1582C102.333 63.5526 107.747 59.8952 113.253 56.3817C114.319 55.7021 115.747 55.2759 117.008 55.2644C127.145 55.178 137.277 55.1722 147.414 55.2356C152.022 55.2644 155.403 53.4213 157.62 49.3491C157.902 48.8308 158.789 48.347 159.4 48.3412C165.148 48.2663 170.902 48.226 176.65 48.3297C181.58 48.4218 186.056 52.7762 186.252 57.6834C186.401 61.3351 186.28 65.004 186.28 68.8976H158.64L158.657 68.8745Z" fill="#03A0D7"/>
<path d="M186.286 145.012C186.286 148.917 186.447 152.655 186.246 156.37C185.992 161.18 181.511 165.332 176.673 165.54C176.028 165.568 175.377 165.551 174.732 165.551C124.934 165.551 75.1296 165.476 25.3312 165.643C18.8112 165.666 13.2013 160.874 13.7599 153.957C13.9961 151.042 13.8003 148.088 13.8003 145.012H186.286ZM86.1652 151.78C84.3739 151.837 82.7727 153.525 82.8246 155.299C82.8822 157.084 84.5755 158.697 86.338 158.64C88.1235 158.582 89.7362 156.889 89.6786 155.12C89.621 153.335 87.9277 151.722 86.1594 151.78H86.1652ZM103.485 155.259C103.513 153.485 101.889 151.809 100.104 151.78C98.3297 151.751 96.6594 153.375 96.6248 155.161C96.596 156.935 98.2203 158.611 100.006 158.64C101.774 158.674 103.456 157.038 103.485 155.259ZM113.864 158.64C115.638 158.64 117.291 156.975 117.285 155.201C117.285 153.421 115.62 151.774 113.846 151.78C112.067 151.78 110.419 153.439 110.425 155.218C110.425 156.998 112.084 158.645 113.858 158.64H113.864Z" fill="#03A0D7"/>
<path d="M89.7132 48.347C88.734 48.347 87.968 48.347 87.1962 48.347C75.838 48.347 64.4799 48.347 53.1218 48.347C49.2455 48.347 48.3066 47.3851 48.3066 43.5088C48.3066 30.4976 48.3066 17.4922 48.3066 4.48105C48.3066 1.14042 49.4586 0.00575971 52.8568 0C84.3451 0 115.828 0 147.316 0C150.662 0 151.803 1.16346 151.803 4.54441C151.803 17.5556 151.803 30.561 151.803 43.5722C151.803 47.3909 150.841 48.3412 146.913 48.3412C136.344 48.347 125.78 48.2894 115.211 48.4046C113.748 48.4218 112.118 48.9575 110.874 49.7466C105.115 53.404 99.4931 57.2687 93.7565 60.9607C92.904 61.5079 91.539 61.9341 90.7211 61.6173C90.1221 61.3869 89.7823 59.8549 89.7535 58.893C89.6383 55.466 89.7074 52.0274 89.7074 48.347H89.7132ZM82.7324 17.1582C82.214 11.3524 78.8331 7.62585 73.3902 7.0902C70.4757 6.80221 67.4865 6.79645 64.572 7.0902C58.893 7.67193 54.8669 12.4467 55.2183 17.8032C55.5869 23.3959 60.0564 27.5314 65.8104 27.589C68.0394 27.612 70.2684 27.5314 72.4916 27.6235C74.5248 27.7099 75.8841 29.1729 75.8899 31.0736C75.8956 33.0031 74.5939 34.3854 72.5089 34.5006C70.7868 34.5928 69.0531 34.4488 67.3367 34.5698C64.6296 34.7541 62.4755 34.1608 61.9168 31.2464H55.345C55.466 36.8333 59.7281 41.2107 65.1365 41.3777C67.3597 41.4468 69.5888 41.4065 71.8178 41.395C78.0613 41.3662 82.7785 36.937 82.79 31.1082C82.8015 25.2736 78.1304 20.8444 71.8523 20.7522C69.7673 20.7234 67.6823 20.7925 65.603 20.7119C63.4892 20.6313 62.1587 19.3008 62.1069 17.4001C62.0551 15.4072 63.4489 13.9154 65.5973 13.8233C67.3885 13.7427 69.1971 13.8924 70.9826 13.783C73.5975 13.6217 75.4925 14.4165 76.0396 17.1639H82.7266L82.7324 17.1582ZM117.302 24.1216H117.308C117.308 26.4889 117.233 28.8619 117.325 31.2291C117.544 37.0291 121.968 41.3144 127.75 41.3892C129.979 41.418 132.203 41.418 134.432 41.3892C140.232 41.3144 144.707 37.0695 144.88 31.2637C145.018 26.5292 145.024 21.7832 144.88 17.0487C144.718 11.8016 141.09 7.7468 135.854 7.16507C132.738 6.81949 129.524 6.81373 126.408 7.15355C121.011 7.7468 117.446 11.9687 117.319 17.4404C117.268 19.6636 117.314 21.8926 117.314 24.1216H117.302ZM110.35 6.95196C106.975 6.95196 103.824 6.9462 100.68 6.95772C100.035 6.95772 99.3895 7.00956 98.7501 7.10748C93.5491 7.90232 89.8917 11.8304 89.742 17.0545C89.6037 21.789 89.6152 26.535 89.742 31.2752C89.8744 36.3034 93.3475 40.5829 98.2836 41.1646C102.223 41.6311 106.261 41.2568 110.304 41.2568V34.5294C106.906 34.5294 103.617 34.5813 100.334 34.5122C97.8516 34.4603 96.6824 33.2162 96.6248 30.7568C96.6018 29.7719 96.6248 28.787 96.6248 27.5602H110.298V20.6946H96.7803C96.2331 14.6988 97.0395 13.7945 102.661 13.7945C105.213 13.7945 107.77 13.7945 110.362 13.7945V6.95196H110.35Z" fill="#03A0D7"/>
<path d="M186.263 130.999V137.784H13.9615V130.227C21.8639 132.018 29.3054 130.843 36.0558 126.282C42.8465 121.691 46.694 115.194 48.0302 107.05H65.39V124.081H55.3623V130.93H144.782V124.231H134.731V107.061H158.582V131.004H186.257L186.263 130.999Z" fill="#03A0D7"/>
<path d="M200 124.058H165.776V76.0051H200V124.058ZM193.134 82.9109H172.688V89.5519H193.134V82.9109ZM193.065 103.381V96.6594H172.636V103.381H193.065ZM193.083 117.164V110.517H172.618V117.164H193.083Z" fill="#03A0D7"/>
<path d="M20.7925 124.15C9.31918 124.174 0.0345332 114.998 -2.5012e-05 103.611C-0.0345832 92.0228 9.16367 82.767 20.7061 82.7727C32.1564 82.7727 41.3777 91.9767 41.3892 103.416C41.4007 114.877 32.214 124.127 20.7983 124.15H20.7925ZM20.614 93.1114C15.027 93.1632 10.3271 97.9092 10.3444 103.479C10.3617 109.054 15.0846 113.783 20.66 113.806C26.3161 113.829 31.1312 108.968 31.039 103.329C30.9469 97.7192 26.1894 93.0596 20.614 93.1172V93.1114Z" fill="#03A0D7"/>
<path d="M72.5147 186.108V172.641H127.485V186.108H72.5147Z" fill="#03A0D7"/>
<path d="M147.506 200H52.7358C53.1909 196.475 57.4185 193.221 61.6979 193.181C67.5152 193.129 73.3383 193.163 79.1556 193.163C98.6983 193.163 118.241 193.221 137.784 193.117C141.867 193.094 146.867 196.256 147.506 200Z" fill="#03A0D7"/>
<path d="M138.003 24.3348C138.003 26.4198 138.02 28.5048 138.003 30.584C137.974 33.222 136.833 34.4546 134.253 34.5237C132.03 34.5813 129.795 34.5928 127.572 34.4949C125.469 34.397 124.26 33.1471 124.237 31.0448C124.185 26.4486 124.185 21.8466 124.237 17.2503C124.26 15.2344 125.596 13.9097 127.641 13.829C129.939 13.7427 132.243 13.7427 134.541 13.829C136.672 13.9097 137.939 15.2747 137.985 17.4404C138.037 19.7385 137.997 22.0366 137.997 24.3405L138.003 24.3348Z" fill="#03A0D7"/>
</g>
<defs>
<clipPath id="clip0_5_326">
<rect width="200" height="200" fill="white"/>
</clipPath>
</defs>
</svg>
