<svg id="Layer_1" data-name="Layer 1" xmlns="http://www.w3.org/2000/svg" viewBox="0 0 500 500"><defs><style>.cls-1,.cls-2{fill:#ced8de;}.cls-2{opacity:0.7;}.cls-3{fill:#66bbd8;}.cls-4{fill:#f0f0f0;}.cls-5{fill:#03a1d8;}.cls-22,.cls-6{opacity:0.3;}.cls-7{fill:#fff;}.cls-8{fill:#1a2e35;}.cls-9{fill:#093a5b;}.cls-10{fill:#375a64;}.cls-11{fill:#ffef99;}.cls-12{fill:#f5f5f5;}.cls-13{fill:#e1e1e1;}.cls-14{fill:#fafafa;}.cls-15{fill:#ececec;}.cls-16{fill:#00a2ff;}.cls-17{fill:#345367;}.cls-18{fill:#7c4235;}.cls-19{fill:#c27460;}.cls-20{fill:#ffc19d;}.cls-21{fill:#ff9c6a;}.cls-23{fill:#6d6e71;}</style></defs><path class="cls-1" d="M345.9,14.77C320.15,30.93,302,58.11,280,79.91c-27.19,26.93-60.89,45.89-96.69,54.4-29.46,7-60.33,7.1-88.77,18.05C39.08,173.71,1,237.07,0,301.49s32.46,126.84,81.57,162.2a187.84,187.84,0,0,0,54.25,27.11C172,502,210.26,501.46,247.59,497.2c64.47-7.36,132.06-47.52,172.69-104.14a415.07,415.07,0,0,0,45.61-82.14,442.64,442.64,0,0,0,33.67-153c1.71-45.32,0-95.54-32.78-128.56S384.33-9.35,345.9,14.77Z"/><path class="cls-2" d="M345.9,14.77C320.15,30.93,302,58.11,280,79.91c-27.19,26.93-60.89,45.89-96.69,54.4-29.46,7-60.33,7.1-88.77,18.05C39.08,173.71,1,237.07,0,301.49s32.46,126.84,81.57,162.2a187.84,187.84,0,0,0,54.25,27.11C172,502,210.26,501.46,247.59,497.2c64.47-7.36,132.06-47.52,172.69-104.14a415.07,415.07,0,0,0,45.61-82.14,442.64,442.64,0,0,0,33.67-153c1.71-45.32,0-95.54-32.78-128.56S384.33-9.35,345.9,14.77Z"/><rect class="cls-3" x="355.56" y="7.13" width="70.49" height="90.57" rx="3.51" transform="translate(22.67 -88.85) rotate(13.35)"/><path class="cls-4" d="M414,37.83,376.65,29a3,3,0,0,1-2.23-3.62h0A3,3,0,0,1,378,23.11L415.39,32a3,3,0,0,1,2.23,3.62h0A3,3,0,0,1,414,37.83Z"/><path class="cls-4" d="M410.45,52.8l-37.36-8.87a3,3,0,0,1-2.23-3.62h0a3,3,0,0,1,3.62-2.23L411.84,47a3,3,0,0,1,2.23,3.62h0A3,3,0,0,1,410.45,52.8Z"/><path class="cls-4" d="M406.89,67.77,369.54,58.9a3,3,0,0,1-2.23-3.62h0a3,3,0,0,1,3.62-2.23l37.35,8.87a3,3,0,0,1,2.23,3.62h0A3,3,0,0,1,406.89,67.77Z"/><path class="cls-4" d="M382.9,77.89l-16.91-4a3,3,0,0,1-2.23-3.62h0A3,3,0,0,1,367.38,68l16.91,4a3,3,0,0,1,2.23,3.62h0A3,3,0,0,1,382.9,77.89Z"/><rect class="cls-5" x="134.32" y="52.03" width="228.6" height="324.47" rx="9.24"/><path class="cls-5" d="M353.69,376.5l.71-.05a9.89,9.89,0,0,0,2.05-.4,9.59,9.59,0,0,0,3-1.64,9.34,9.34,0,0,0,2.78-3.82,9.11,9.11,0,0,0,.6-2.79c0-1,0-2.08,0-3.2q0-3.36,0-7.35,0-8,0-18.33c0-27.59,0-67.5-.07-116.83,0-24.66,0-51.67,0-80.67q0-21.75,0-44.95,0-11.58,0-23.5c0-4,0-8,0-12a9,9,0,0,0-7-8.52,13,13,0,0,0-3-.23H143.58a9,9,0,0,0-9,8.57c0,4.65,0,9.33,0,14v81.83c0,35.49,0,69.72,0,102.33s0,63.61,0,92.61v10.78c0,1.78,0,3.56,0,5.31a9,9,0,0,0,1.64,4.83,9.28,9.28,0,0,0,3.94,3.16,10,10,0,0,0,2.46.62c.84.08,1.7.06,2.56.06h10.2l38.71,0,116.82.07,31.76,0,8.26,0,2.82,0-2.82,0-8.26,0-31.76,0L194,376.65l-38.71,0h-10.2c-.86,0-1.71,0-2.6-.06A10.28,10.28,0,0,1,140,376a9.52,9.52,0,0,1-4.1-3.28,9.25,9.25,0,0,1-1.71-5c0-1.78,0-3.55,0-5.33V351.56c0-29,0-60,0-92.61s0-66.84,0-102.33V74.79c0-4.65,0-9.3,0-14a9.45,9.45,0,0,1,9.46-9H352.69a13.47,13.47,0,0,1,3.09.24A9.43,9.43,0,0,1,363.11,61q0,6,0,12v23.5q0,23.18,0,44.95c0,29,0,56,0,80.67,0,49.33-.05,89.24-.07,116.83q0,10.35,0,18.33,0,4,0,7.35c0,1.12,0,2.19,0,3.21a9,9,0,0,1-.62,2.81,9.26,9.26,0,0,1-2.81,3.84,9.45,9.45,0,0,1-3,1.63,9.09,9.09,0,0,1-2.07.38Z"/><g class="cls-6"><polygon points="154.26 369.16 346.13 369.16 344.02 329.26 344.02 308.02 154.26 337.67 154.26 369.16"/></g><g class="cls-6"><polygon points="306.31 52.69 310.67 65.62 310.67 71.96 305.75 71.96 306.31 52.69"/></g><polygon class="cls-7" points="144.52 65.03 144.52 363.08 300 363.08 352.73 363.08 352.73 65.03 144.52 65.03"/><path class="cls-8" d="M352.73,309.79s0-.39,0-1.15,0-1.89,0-3.39c0-3,0-7.42,0-13.19,0-11.55,0-28.47-.06-49.94,0-43-.05-104.14-.08-177.09l.2.19-208.21,0,.22-.22v.26c0,114.58,0,219.22-.06,297.79l-.16-.16,113.67.07,31,.05,8.07,0,2.76,0-2.76,0-8.07,0-31,.05-113.67.07h-.17v-.17c0-78.57,0-183.21,0-297.79v-.48h.22l208.21,0h.19V65c0,72.95-.06,134.14-.08,177.09,0,21.47,0,38.39,0,49.94,0,5.77,0,10.2,0,13.19,0,1.5,0,2.63,0,3.39S352.73,309.79,352.73,309.79Z"/><path class="cls-9" d="M207.28,43.95H300a6.33,6.33,0,0,1,6.33,6.33V74.5a0,0,0,0,1,0,0H201a0,0,0,0,1,0,0V50.27A6.33,6.33,0,0,1,207.28,43.95Z"/><polygon class="cls-9" points="267.04 32.45 240.22 32.45 243.36 55.44 263.56 55.44 267.04 32.45"/><path class="cls-10" d="M299.54,44c0,.12-20.56.22-45.91.22s-45.91-.1-45.91-.22,20.55-.22,45.91-.22S299.54,43.82,299.54,44Z"/><path class="cls-10" d="M203.31,69.57c-.12,0-.22-4.32-.22-9.65s.1-9.65.22-9.65.23,4.32.23,9.65S203.44,69.57,203.31,69.57Z"/><path class="cls-10" d="M302.9,67.29a82.89,82.89,0,0,1-.23-8.77,82.62,82.62,0,0,1,.23-8.76c.12,0,.22,3.92.22,8.76S303,67.29,302.9,67.29Z"/><path class="cls-10" d="M297.81,71.35c0,.12-21.09.22-47.12.22s-47.12-.1-47.12-.22,21.09-.22,47.12-.22S297.81,71.23,297.81,71.35Z"/><path class="cls-9" d="M278.81,303.93a31.2,31.2,0,1,1,27.61,34.42A31.25,31.25,0,0,1,278.81,303.93Zm61.46,6.75a30.63,30.63,0,1,0-33.79,27.1A30.67,30.67,0,0,0,340.27,310.68Z"/><path class="cls-9" d="M282.35,304.32a27.21,27.21,0,1,1,24.08,30A27.24,27.24,0,0,1,282.35,304.32Zm50.11,5.5a23.2,23.2,0,1,0-25.59,20.53A23.24,23.24,0,0,0,332.46,309.82Z"/><path class="cls-11" d="M289,305.43a19.89,19.89,0,0,1,3.1-8.74l3.37,2.18a16.11,16.11,0,0,0,20.41,23.33l1.72,3.63a20.12,20.12,0,0,1-28.6-20.4Z"/><path class="cls-9" d="M301.65,288.88a20.13,20.13,0,0,1,23.12,31.23l-3.15-2.49a16.12,16.12,0,0,0-18.51-25Z"/><path class="cls-9" d="M336.29,145.65c0,.15-40.13.35-89.62.47s-89.63.08-89.63-.06,40.12-.35,89.63-.46S336.29,145.51,336.29,145.65Z"/><path class="cls-9" d="M240.07,134.54c0,.15-18.53.3-41.38.36s-41.37,0-41.37-.17,18.52-.3,41.37-.35S240.07,134.4,240.07,134.54Z"/><path class="cls-9" d="M336,157.26c0,.14-40.13.35-89.62.46s-89.63.09-89.63-.06,40.12-.35,89.63-.46S336,157.12,336,157.26Z"/><path class="cls-9" d="M335.72,168.86c0,.15-40.13.36-89.63.47s-89.63.08-89.63-.06,40.12-.35,89.63-.46S335.72,168.72,335.72,168.86Z"/><path class="cls-9" d="M335.43,180.47c0,.14-40.13.35-89.63.46s-89.63.09-89.63-.06,40.12-.35,89.63-.46S335.43,180.33,335.43,180.47Z"/><path class="cls-9" d="M335.14,192.08c0,.14-40.13.35-89.62.46s-89.64.08-89.64-.06,40.13-.35,89.64-.46S335.14,191.93,335.14,192.08Z"/><path class="cls-9" d="M334.85,203.68c0,.15-40.13.35-89.62.46s-89.63.09-89.63,0,40.12-.35,89.63-.47S334.85,203.54,334.85,203.68Z"/><path class="cls-9" d="M334.56,215.29c0,.14-39.6.35-88.45.46s-88.46.08-88.46-.06,39.6-.35,88.46-.46S334.56,215.14,334.56,215.29Z"/><path class="cls-9" d="M264,231.16c0,.15-23.9.21-53.38.15s-53.39-.23-53.39-.37,23.9-.21,53.39-.15S264,231,264,231.16Z"/><path class="cls-9" d="M224.57,323.57c0,.14-14.55-.06-32.48-.46s-32.48-.84-32.47-1,14.54.07,32.48.47S224.57,323.43,224.57,323.57Z"/><path class="cls-9" d="M203,250.93c0,.14-9.62.32-21.48.39s-21.48,0-21.48-.12,9.61-.32,21.48-.4S203,250.78,203,250.93Z"/><path class="cls-5" d="M267.77,256.05l.17.08a2.3,2.3,0,0,1,.47.29,7.23,7.23,0,0,1,1.51,1.58,23.78,23.78,0,0,1,3.41,7.66,30.33,30.33,0,0,1,.77,13.21,19.8,19.8,0,0,1-1.13,3.88,26.25,26.25,0,0,1-2,3.8,26.74,26.74,0,0,1-6.31,6.85,27.6,27.6,0,0,1-9.12,4.66,23.38,23.38,0,0,1-11.07.54,24,24,0,0,1-17.64-15.7,19.42,19.42,0,0,1-1-6.5,14.85,14.85,0,0,1,1.41-6.59,10.71,10.71,0,0,1,4.57-5.14,7.74,7.74,0,0,1,3.44-.88,8,8,0,0,1,3.49.79,10.51,10.51,0,0,1,5,5.11,16.7,16.7,0,0,1,1.42,7.12,30.19,30.19,0,0,1-3.67,14.25,28.64,28.64,0,0,1-10,10.77,26.43,26.43,0,0,1-13.73,3.88,24.74,24.74,0,0,1-13.27-3.65,23.08,23.08,0,0,1-8.65-10,22.48,22.48,0,0,1-2-12.4,16.35,16.35,0,0,1,1.8-5.81,11.73,11.73,0,0,1,3.91-4.41,7.06,7.06,0,0,1,5.56-1,8.09,8.09,0,0,1,4.47,3.15,10.33,10.33,0,0,1,1.89,4.93,13.27,13.27,0,0,1-.55,5,26.09,26.09,0,0,1-4.46,8.18,41.05,41.05,0,0,1-5.67,6.07,46,46,0,0,1-5.81,4.3,44.81,44.81,0,0,1-5.4,2.81,39,39,0,0,1-8,2.55c-1.89.38-2.89.48-2.89.48s.24-.06.73-.15,1.2-.19,2.13-.43a41,41,0,0,0,7.94-2.64,42,42,0,0,0,11.09-7.14,41.61,41.61,0,0,0,5.61-6,26.05,26.05,0,0,0,4.37-8.08,13,13,0,0,0,.51-4.87,9.86,9.86,0,0,0-1.82-4.73,7.73,7.73,0,0,0-4.25-3,6.66,6.66,0,0,0-5.23,1A11.28,11.28,0,0,0,196,274.1a16,16,0,0,0-1.74,5.66,22.12,22.12,0,0,0,1.94,12.14,22.7,22.7,0,0,0,8.48,9.74,24.31,24.31,0,0,0,13,3.56,25.85,25.85,0,0,0,13.45-3.81,28,28,0,0,0,9.82-10.58,29.8,29.8,0,0,0,3.62-14,16.36,16.36,0,0,0-1.38-6.91,10,10,0,0,0-4.71-4.87,7.67,7.67,0,0,0-3.28-.75,7.19,7.19,0,0,0-3.21.83,10.23,10.23,0,0,0-4.35,4.9,14.33,14.33,0,0,0-1.37,6.38,19.11,19.11,0,0,0,1,6.35,23.59,23.59,0,0,0,17.28,15.43,23,23,0,0,0,10.87-.51,27.34,27.34,0,0,0,9-4.56,26.59,26.59,0,0,0,6.25-6.74,26.13,26.13,0,0,0,2-3.74,20.38,20.38,0,0,0,1.13-3.81,30.36,30.36,0,0,0-.69-13.11,24.53,24.53,0,0,0-3.29-7.65,7.46,7.46,0,0,0-1.46-1.6C268,256.16,267.75,256.08,267.77,256.05Z"/><path class="cls-9" d="M298.59,118.67s0-.17,0-.5,0-.81,0-1.43c0-1.27,0-3.12,0-5.53,0-4.82,0-11.85,0-20.75l.16.16-108.59-.21h0l.26-.26c0,9.68-.06,19.12-.09,28.21l-.25-.26,77.47.34,22.81.14,6.15,0,1.6,0,.56,0h-.52l-1.57,0H267.64L190,118.61h-.25v-.26c0-9.08,0-18.52.08-28.2v-.26h.26l108.59.42h.16v.16c-.07,8.93-.12,16-.15,20.84,0,2.39,0,4.23-.06,5.49,0,.61,0,1.07,0,1.41S298.59,118.67,298.59,118.67Z"/><path class="cls-9" d="M206,99.28a3.64,3.64,0,0,1,1.5,1.41,4.55,4.55,0,0,1,0,4.26,3.64,3.64,0,0,1-1.5,1.41,5.09,5.09,0,0,1-2.27.49H201V110h-2.63V98.79h5.38A5,5,0,0,1,206,99.28Zm-1.08,4.81a1.85,1.85,0,0,0,0-2.51,1.85,1.85,0,0,0-1.32-.46H201v3.43h2.64A1.85,1.85,0,0,0,204.92,104.09Z"/><path class="cls-9" d="M213.71,106.32h-1.53V110h-2.63V98.79H215a4.53,4.53,0,0,1,2.14.48,3.32,3.32,0,0,1,1.41,1.34,3.91,3.91,0,0,1,.5,2,3.59,3.59,0,0,1-.67,2.2,3.53,3.53,0,0,1-1.88,1.3l3.17,3.94h-3.13Zm2.3-4.86a1.84,1.84,0,0,0-1.29-.42h-2.55v3.16h2.55a1.88,1.88,0,0,0,1.3-.41,1.48,1.48,0,0,0,.45-1.16A1.47,1.47,0,0,0,216,101.46Z"/><path class="cls-9" d="M223.33,109.57a5.2,5.2,0,0,1-2.12-2.06,6.78,6.78,0,0,1,0-6.2,5.13,5.13,0,0,1,2.12-2.06,6.61,6.61,0,0,1,3.18-.73,6.67,6.67,0,0,1,3.19.73,5.19,5.19,0,0,1,2.12,2.06,6.86,6.86,0,0,1,0,6.2,5.26,5.26,0,0,1-2.12,2.06,6.79,6.79,0,0,1-3.19.73A6.72,6.72,0,0,1,223.33,109.57Zm5-2.06a3,3,0,0,0,1.21-1.24,4.33,4.33,0,0,0,0-3.72,3.1,3.1,0,0,0-1.21-1.25,3.84,3.84,0,0,0-3.57,0,3.05,3.05,0,0,0-1.19,1.25,4.24,4.24,0,0,0,0,3.72,3,3,0,0,0,1.19,1.24,3.84,3.84,0,0,0,3.57,0Z"/><path class="cls-9" d="M242,99.28a3.58,3.58,0,0,1,1.5,1.41,4.55,4.55,0,0,1,0,4.26,3.58,3.58,0,0,1-1.5,1.41,5.09,5.09,0,0,1-2.27.49H237V110h-2.63V98.79h5.38A5,5,0,0,1,242,99.28Zm-1.08,4.81a1.85,1.85,0,0,0,0-2.51,1.83,1.83,0,0,0-1.32-.46H237v3.43h2.63A1.83,1.83,0,0,0,240.93,104.09Z"/><path class="cls-9" d="M247.78,109.57a5.17,5.17,0,0,1-2.11-2.06,6.78,6.78,0,0,1,0-6.2,5.11,5.11,0,0,1,2.11-2.06,7.33,7.33,0,0,1,6.38,0,5.11,5.11,0,0,1,2.11,2.06,6.78,6.78,0,0,1,0,6.2,5.17,5.17,0,0,1-2.11,2.06,7.33,7.33,0,0,1-6.38,0Zm5-2.06a2.93,2.93,0,0,0,1.2-1.24,4.24,4.24,0,0,0,0-3.72,3,3,0,0,0-1.2-1.25,3.62,3.62,0,0,0-1.79-.44,3.56,3.56,0,0,0-1.78.44,3.14,3.14,0,0,0-1.2,1.25,4.33,4.33,0,0,0,0,3.72,3.05,3.05,0,0,0,1.2,1.24A3.46,3.46,0,0,0,251,108,3.52,3.52,0,0,0,252.76,107.51Z"/><path class="cls-9" d="M260.32,109.87a6.78,6.78,0,0,1-2.21-1.18l1.37-1.91A5.46,5.46,0,0,0,263,108a3.23,3.23,0,0,0,1.58-.33,1,1,0,0,0,.58-.92,1,1,0,0,0-.54-.85,4.73,4.73,0,0,0-1.73-.43,6.84,6.84,0,0,1-3.37-1.08,2.76,2.76,0,0,1-1.06-2.34,3,3,0,0,1,.57-1.81A3.72,3.72,0,0,1,260.62,99a6.16,6.16,0,0,1,2.4-.43,8,8,0,0,1,2.29.33,6.8,6.8,0,0,1,2,.95L266,101.66a5,5,0,0,0-2.91-.91,3.29,3.29,0,0,0-1.56.32,1,1,0,0,0-.59.87.91.91,0,0,0,.51.82,5,5,0,0,0,1.69.43,6.83,6.83,0,0,1,3.41,1.13,2.89,2.89,0,0,1,1.12,2.4,3.05,3.05,0,0,1-.6,1.87,3.74,3.74,0,0,1-1.66,1.25,6.61,6.61,0,0,1-2.48.44A8.69,8.69,0,0,1,260.32,109.87Z"/><path class="cls-9" d="M277.92,110l-.84-2h-5.54l-.83,2H267.9l5-11.24h2.81l5,11.24Zm-3.58-8.72-1.85,4.43h3.66Z"/><path class="cls-9" d="M281.86,98.79h2.63v8.86h5.65V110h-8.28Z"/><path class="cls-12" d="M34.1,491.64c-1.32-1.13-4.27-4.71-2-8.88.84-1.53,2.6-2.29,4.2-3a17.26,17.26,0,0,0,4.61-2.39c2.49-2.12,3.18-5.65,4.84-8.48,1.9-3.25,5.45-5.69,9.2-5.52,4.3.2,7.88,3.7,9.5,7.7s1.68,8.45,1.72,12.77c0,2.38-.09,5.08-1.84,6.69s-4.06,1.51-6.25,1.44l-23.47-.72"/><path class="cls-13" d="M79,427.09H17.26L28.38,493.4a7.39,7.39,0,0,0,5.27,5.9,1.8,1.8,0,0,0,.22.06,4.92,4.92,0,0,0,.55.14,7.24,7.24,0,0,0,1.25.15v.06l.3,0H63.5a7.51,7.51,0,0,0,1.51-.15A7.42,7.42,0,0,0,71.25,493l5.37-45.68.24-1.82h0L79,427.44Zm-11.64,42.3H61l.64-19.24H69Zm2.26-19.24h6.06l-2.26,19.24H68Zm-18.1,40.57L51.12,474h9.12l-.55,16.72ZM41.64,474h8.87l.38,16.72h-8Zm.69,16.72H34.9c-.71-4.51-1.63-10.38-2.62-16.72H41Zm-1-21.33-1.5-19.24H50l.44,19.24Zm9.73,0-.45-19.24H61l-.64,19.24Zm-.55-23.86-.41-17.82H61.78l-.59,17.82Zm-.62,0H39.43l-1.38-17.82H49.44Zm-11,0h-11c-.39-2.46-.76-4.79-1.09-6.89-1.15-7.2-1.59-9.91-1.83-10.93H37.43Zm.36,4.62,1.49,19.24H31.55c-.3-1.95-.62-3.93-.93-5.91-.71-4.54-1.43-9.08-2.1-13.33Zm-8.25,19.24H25l-3.23-19.24H27.9C28.84,456.09,29.88,462.71,30.93,469.39Zm.73,4.61c.9,5.79,1.8,11.49,2.62,16.72H28.55L25.75,474ZM60.3,490.72,60.86,474H67l-1.43,16.72Zm1.5-45.19.6-17.82h8.51l-1.53,17.82ZM24.29,427.71c.24,1.29,1.37,8.3,2.88,17.82H21l-3-17.82Zm46.62,63H66.14L67.57,474h5.3Zm5.3-45.19H70l1.52-17.82H78.3Z"/><rect class="cls-14" x="374.82" y="115.22" width="83.2" height="74.44"/><path class="cls-13" d="M458,189.66s0-.48,0-1.38,0-2.25,0-4c0-3.5,0-8.6-.05-15.11,0-13-.06-31.59-.1-54l.19.19-83.19,0h0l.22-.22c0,27.08,0,52.57,0,74.44l-.2-.2,60.18.1,17,.05,4.49,0h.05l-4.46,0-16.93.06-60.3.09h-.2v-.19c0-21.87,0-47.36,0-74.44V115h.23L458,115h.19v.19c0,22.42-.07,41-.1,54.08,0,6.49,0,11.58-.05,15.07,0,1.72,0,3,0,3.95S458,189.66,458,189.66Z"/><path class="cls-13" d="M406.72,128.45c0,.12-4.38.22-9.78.22s-9.78-.1-9.78-.22,4.38-.22,9.78-.22S406.72,128.32,406.72,128.45Z"/><path class="cls-13" d="M442,134c0,.12-12,.22-26.87.22s-26.87-.1-26.87-.22,12-.23,26.87-.23S442,133.91,442,134Z"/><rect class="cls-13" x="387.3" y="143.5" width="3.51" height="3.51"/><rect class="cls-13" x="395.93" y="143.5" width="3.51" height="3.51"/><rect class="cls-13" x="404.72" y="143.34" width="3.51" height="3.51"/><rect class="cls-13" x="413.19" y="143.5" width="3.51" height="3.51"/><rect class="cls-13" x="421.82" y="143.5" width="3.51" height="3.51"/><rect class="cls-13" x="430.45" y="143.5" width="3.51" height="3.51"/><rect class="cls-15" x="439.07" y="143.5" width="3.51" height="3.51"/><rect class="cls-15" x="387.3" y="150.96" width="3.51" height="3.51"/><rect class="cls-13" x="395.93" y="150.96" width="3.51" height="3.51"/><rect class="cls-15" x="404.56" y="150.96" width="3.51" height="3.51"/><rect class="cls-13" x="413.19" y="150.96" width="3.51" height="3.51"/><rect class="cls-13" x="421.82" y="150.96" width="3.51" height="3.51"/><rect class="cls-13" x="430.61" y="150.8" width="3.51" height="3.51"/><rect class="cls-13" x="439.07" y="150.96" width="3.51" height="3.51"/><rect class="cls-13" x="387.3" y="158.41" width="3.51" height="3.51"/><rect class="cls-13" x="396.09" y="158.25" width="3.51" height="3.51"/><rect class="cls-13" x="404.56" y="158.41" width="3.51" height="3.51"/><rect class="cls-15" x="413.19" y="158.41" width="3.51" height="3.51"/><rect class="cls-13" x="421.82" y="158.41" width="3.51" height="3.51"/><rect class="cls-13" x="430.45" y="158.41" width="3.51" height="3.51"/><rect class="cls-13" x="439.07" y="158.41" width="3.51" height="3.51"/><rect class="cls-13" x="387.3" y="165.86" width="3.51" height="3.51"/><rect class="cls-13" x="395.93" y="165.86" width="3.51" height="3.51"/><rect class="cls-13" x="404.56" y="165.86" width="3.51" height="3.51"/><rect class="cls-13" x="413.35" y="165.7" width="3.51" height="3.51"/><rect class="cls-13" x="421.82" y="165.86" width="3.51" height="3.51"/><rect class="cls-15" x="430.45" y="165.86" width="3.51" height="3.51"/><rect class="cls-13" x="439.07" y="165.86" width="3.51" height="3.51"/><rect class="cls-13" x="387.3" y="173.31" width="3.51" height="3.51"/><rect class="cls-15" x="395.93" y="173.31" width="3.51" height="3.51"/><rect class="cls-13" x="404.56" y="173.31" width="3.51" height="3.51"/><rect class="cls-13" x="413.19" y="173.31" width="3.51" height="3.51"/><rect class="cls-13" x="421.82" y="173.31" width="3.51" height="3.51"/><rect class="cls-13" x="430.61" y="173.15" width="3.51" height="3.51"/><rect class="cls-13" x="439.07" y="173.31" width="3.51" height="3.51"/><rect class="cls-13" x="27.51" y="34.25" width="98.23" height="155.23"/><rect class="cls-12" x="30.16" y="37.17" width="92.6" height="149.76"/><rect class="cls-7" x="76.46" y="45.9" width="36.92" height="57.3"/><path class="cls-13" d="M96.88,51a1.38,1.38,0,1,1-1.38-1.38A1.38,1.38,0,0,1,96.88,51Z"/><rect class="cls-7" x="39.25" y="119.14" width="36.92" height="57.3"/><path class="cls-13" d="M59.67,124.2a1.38,1.38,0,1,1-1.38-1.38A1.38,1.38,0,0,1,59.67,124.2Z"/><rect class="cls-7" x="38.75" y="45.9" width="31.53" height="44.74"/><path class="cls-13" d="M55.66,50a1.15,1.15,0,1,1-1.15-1.15A1.14,1.14,0,0,1,55.66,50Z"/><rect class="cls-7" x="81.82" y="121.77" width="33.94" height="18.8" transform="translate(-14.08 11.9) rotate(-6.44)"/><path class="cls-13" d="M99.3,125.37a1.17,1.17,0,1,1-1.17-1.17A1.17,1.17,0,0,1,99.3,125.37Z"/><path class="cls-13" d="M71.24,132.21c0,.15-5.8.27-12.95.27s-12.95-.12-12.95-.27,5.8-.28,12.95-.28S71.24,132.05,71.24,132.21Z"/><path class="cls-13" d="M71.24,136.3c0,.16-5.8.28-12.95.28s-12.95-.12-12.95-.28,5.8-.27,12.95-.27S71.24,136.15,71.24,136.3Z"/><path class="cls-13" d="M71.24,140.4c0,.16-5.8.28-12.95.28s-12.95-.12-12.95-.28,5.8-.27,12.95-.27S71.24,140.25,71.24,140.4Z"/><path class="cls-13" d="M71.24,144.5c0,.16-5.8.28-12.95.28s-12.95-.12-12.95-.28,5.8-.27,12.95-.27S71.24,144.35,71.24,144.5Z"/><path class="cls-13" d="M71.24,148.6c0,.15-5.8.28-12.95.28s-12.95-.13-12.95-.28,5.8-.27,12.95-.27S71.24,148.45,71.24,148.6Z"/><path class="cls-13" d="M71.24,152.7c0,.15-5.8.28-12.95.28s-12.95-.13-12.95-.28,5.8-.27,12.95-.27S71.24,152.55,71.24,152.7Z"/><path class="cls-13" d="M71.24,156.8c0,.15-5.8.28-12.95.28s-12.95-.13-12.95-.28,5.8-.27,12.95-.27S71.24,156.65,71.24,156.8Z"/><path class="cls-13" d="M111.43,127.81c0,.15-5.7,1.09-12.78,2.09s-12.84,1.68-12.86,1.53,5.7-1.08,12.78-2.08S111.41,127.66,111.43,127.81Z"/><path class="cls-13" d="M112,130.38c0,.15-5.7,1.08-12.78,2.08S86.33,134.15,86.3,134s5.71-1.09,12.79-2.09S111.93,130.23,112,130.38Z"/><path class="cls-13" d="M112.42,132.75c0,.15-5.7,1.08-12.78,2.08s-12.84,1.69-12.87,1.53,5.71-1.08,12.79-2.08S112.4,132.6,112.42,132.75Z"/><path class="cls-13" d="M110.13,57.88c0,.15-6.55.28-14.62.28S80.88,58,80.88,57.88s6.54-.27,14.63-.27S110.13,57.73,110.13,57.88Z"/><path class="cls-13" d="M110.13,60.32c0,.15-6.55.27-14.62.27s-14.63-.12-14.63-.27S87.42,60,95.51,60,110.13,60.17,110.13,60.32Z"/><path class="cls-13" d="M110.13,62.76c0,.15-6.55.27-14.62.27s-14.63-.12-14.63-.27,6.54-.28,14.63-.28S110.13,62.6,110.13,62.76Z"/><path class="cls-13" d="M110.13,65.19c0,.16-6.55.28-14.62.28s-14.63-.12-14.63-.28,6.54-.27,14.63-.27S110.13,65,110.13,65.19Z"/><path class="cls-13" d="M110.13,67.63c0,.15-6.55.28-14.62.28s-14.63-.13-14.63-.28,6.54-.27,14.63-.27S110.13,67.48,110.13,67.63Z"/><path class="cls-13" d="M110.13,70.07c0,.15-6.55.27-14.62.27s-14.63-.12-14.63-.27,6.54-.28,14.63-.28S110.13,69.92,110.13,70.07Z"/><path class="cls-13" d="M110.13,72.51c0,.15-6.55.27-14.62.27s-14.63-.12-14.63-.27,6.54-.28,14.63-.28S110.13,72.35,110.13,72.51Z"/><path class="cls-13" d="M110.13,79.74c0,.15-6.55.27-14.62.27s-14.63-.12-14.63-.27,6.54-.28,14.63-.28S110.13,79.59,110.13,79.74Z"/><path class="cls-13" d="M110.34,82.31c0,.16-6.55.28-14.63.28s-14.63-.12-14.63-.28S87.63,82,95.71,82,110.34,82.16,110.34,82.31Z"/><path class="cls-13" d="M110.55,84.89c0,.15-6.55.27-14.63.27S81.29,85,81.29,84.89s6.55-.28,14.63-.28S110.55,84.74,110.55,84.89Z"/><path class="cls-13" d="M110.75,87.46c0,.15-6.55.28-14.63.28s-14.63-.13-14.63-.28,6.55-.27,14.63-.27S110.75,87.31,110.75,87.46Z"/><path class="cls-13" d="M111,90c0,.15-6.55.27-14.63.27S81.7,90.19,81.7,90s6.55-.28,14.63-.28S111,89.88,111,90Z"/><path class="cls-13" d="M111.16,92.61c0,.15-6.55.28-14.63.28s-14.63-.13-14.63-.28,6.55-.27,14.63-.27S111.16,92.46,111.16,92.61Z"/><path class="cls-8" d="M219.89,476.41s-3.45-23.72-3.16-37.53,0-29.33,0-29.33h1.59s-1.07,27.4.1,43.92,4.26,22.94,4.26,22.94h-2.77"/><path class="cls-9" d="M230.17,382.85a4.18,4.18,0,0,0-1.45-2.12,4,4,0,0,0-3.45,0c-4.81,1.7-9.07,10.65-11,15.37l6.38,21.49C232.15,406.94,234.15,392.93,230.17,382.85Z"/><path class="cls-9" d="M228.35,381.6a1,1,0,0,1-.09.28l-.31.78c-.28.68-.67,1.66-1.14,2.89-.94,2.44-2.14,5.85-3.21,9.69s-1.8,7.39-2.25,10c-.23,1.28-.4,2.33-.51,3.05-.05.34-.1.62-.13.84a1.24,1.24,0,0,1-.07.28,1.59,1.59,0,0,1,0-.29c0-.22,0-.5.09-.84.08-.73.22-1.78.43-3.07a90.15,90.15,0,0,1,2.18-10,93.39,93.39,0,0,1,3.28-9.69c.5-1.22.91-2.19,1.22-2.86l.36-.76A2.21,2.21,0,0,1,228.35,381.6Z"/><path class="cls-10" d="M217.8,422.77A19.48,19.48,0,0,1,208,406.43c-.23-4.77,1.24-9.45,2.9-13.93a1.82,1.82,0,0,1,.67-1,1.71,1.71,0,0,1,1.63.26c4.35,2.47,7,7.19,8.38,12a24.25,24.25,0,0,1,1,9.86,16.36,16.36,0,0,1-4.74,9.17"/><path class="cls-8" d="M217.8,422.77s0-.1,0-.28,0-.49,0-.83c0-.72,0-1.75-.09-3a83.82,83.82,0,0,0-1.11-9.93c-.67-3.85-1.47-7.3-2.07-9.79-.29-1.22-.53-2.22-.7-3-.08-.32-.14-.59-.19-.8a.92.92,0,0,1,0-.29,2.16,2.16,0,0,1,.09.27c.07.21.14.47.24.8.19.69.46,1.69.79,2.93.63,2.48,1.47,5.93,2.14,9.79a73.08,73.08,0,0,1,1,10c0,1.29,0,2.32,0,3,0,.34,0,.61,0,.83A1,1,0,0,1,217.8,422.77Z"/><path class="cls-9" d="M217.8,422.77A19.48,19.48,0,0,1,208,406.43c-.23-4.77,1.24-9.45,2.9-13.93a1.82,1.82,0,0,1,.67-1,1.71,1.71,0,0,1,1.63.26c4.35,2.47,7,7.19,8.38,12a24.25,24.25,0,0,1,1,9.86,16.36,16.36,0,0,1-4.74,9.17"/><path class="cls-9" d="M224.55,459.08c5.89,1.29,10.73,5.44,16.41,7.46,3.75,1.33,8,1.81,11,4.43-.72-1.81-2.42-3-4.08-4.06a73.28,73.28,0,0,0-14.87-7.1c-2.67-.92-5.57-1.69-8.29-.93"/><path class="cls-9" d="M216,464.32c-7.37-.12-15.13-6.39-22.46-6.77,7.67-2.48,18.67-.45,22.46,6.77"/><path class="cls-9" d="M218.92,446.64a24,24,0,0,1,11.78-.8A72.28,72.28,0,0,1,242.21,449c-.38-2.55-2.45-4.48-4.4-6.18a30.49,30.49,0,0,0-4.62-3.55,10.3,10.3,0,0,0-5.54-1.56,8.78,8.78,0,0,0-6.11,3.08,10.18,10.18,0,0,0-2.62,5.89"/><path class="cls-10" d="M203.8,438.5c-4.64-4-11.67-3.57-17.77-3.43a143.86,143.86,0,0,1,27.55,17.17C213.83,447.92,209.66,443.51,203.8,438.5Z"/><g class="cls-6"><path class="cls-9" d="M203.8,438.5c-4.64-4-11.67-3.57-17.77-3.43a143.86,143.86,0,0,1,27.55,17.17C213.83,447.92,209.66,443.51,203.8,438.5Z"/></g><path class="cls-9" d="M221,433a51.14,51.14,0,0,1,7.13-4.15c2.44-1.11,4.72-2.88,7.08-4.16,3.06-1.65,5.71-4,8.52-6s5.89-3.9,9.32-4.45a18.38,18.38,0,0,0-8.49.5,54.88,54.88,0,0,0-8,3.1c-3.62,1.63-7.3,3.3-10.26,5.95S220.7,429.08,221,433"/><path class="cls-8" d="M240.82,464.32l-.23-.1-.64-.33c-.56-.3-1.35-.74-2.36-1.24-.49-.26-1.05-.54-1.64-.82s-1.24-.58-1.92-.88a28.92,28.92,0,0,0-4.53-1.58,9.9,9.9,0,0,0-4.73-.12,14.32,14.32,0,0,0-2,.6,10.25,10.25,0,0,0-3.65,2.51c-.43.46-.64.74-.66.72a1.94,1.94,0,0,1,.13-.21c.1-.14.25-.34.45-.58a9.36,9.36,0,0,1,2-1.76,9.6,9.6,0,0,1,1.63-.88,13,13,0,0,1,2-.63,9.76,9.76,0,0,1,4.85.1,27.42,27.42,0,0,1,4.57,1.61c.68.3,1.32.6,1.91.91s1.15.57,1.64.84c1,.53,1.78,1,2.32,1.32l.62.37C240.76,464.26,240.83,464.31,240.82,464.32Z"/><path class="cls-9" d="M210.54,460.67a1.53,1.53,0,0,1,.47.13,12.43,12.43,0,0,1,1.2.52,14.88,14.88,0,0,1,3.52,2.5,14.46,14.46,0,0,1,2.63,3.42,9.84,9.84,0,0,1,.57,1.18,2.27,2.27,0,0,1,.16.45s-.32-.6-.89-1.54a16.18,16.18,0,0,0-6.08-5.84C211.16,461,210.53,460.71,210.54,460.67Z"/><path class="cls-8" d="M194.24,438.13l.31.1.89.31,1.39.51c.55.21,1.14.5,1.8.8a42.3,42.3,0,0,1,9.6,6.11,46.79,46.79,0,0,1,4.47,4.41c1.27,1.46,2.34,2.83,3.18,4s1.48,2.19,1.92,2.87c.2.33.37.59.5.79a1.54,1.54,0,0,1,.16.29,1.86,1.86,0,0,1-.2-.26c-.13-.17-.32-.42-.55-.76-.46-.67-1.12-1.65-2-2.82s-1.94-2.53-3.21-4a48.91,48.91,0,0,0-4.46-4.37,44.75,44.75,0,0,0-9.51-6.14c-.66-.31-1.24-.62-1.77-.83l-1.38-.55-.86-.36Z"/><path class="cls-8" d="M230,442.5a3.2,3.2,0,0,1-.59-.08l-.67-.12c-.27-.05-.58-.06-.91-.09a9.17,9.17,0,0,0-5.06,1,9,9,0,0,0-2.31,1.71,10.24,10.24,0,0,0-1.48,1.83,14.32,14.32,0,0,0-1,1.93,1.66,1.66,0,0,1,.15-.57,8,8,0,0,1,.7-1.46,10,10,0,0,1,1.47-1.9,8.79,8.79,0,0,1,2.35-1.77,9.06,9.06,0,0,1,5.21-1c.34.05.65.07.91.13l.68.17A2.66,2.66,0,0,1,230,442.5Z"/><path class="cls-8" d="M237.39,419.52l-.28.17-.82.45c-.72.38-1.75.95-3,1.69s-2.71,1.66-4.27,2.78a35.1,35.1,0,0,0-4.76,4,11.77,11.77,0,0,0-1.95,2.52c-.49.93-.95,1.83-1.37,2.69a49,49,0,0,0-2.05,4.66,29.52,29.52,0,0,0-1,3.28c-.18.79-.25,1.23-.28,1.23a1.38,1.38,0,0,1,0-.33c0-.21.07-.52.15-.92a23.73,23.73,0,0,1,.93-3.32,44.69,44.69,0,0,1,2-4.71c.42-.87.88-1.77,1.36-2.7a11.88,11.88,0,0,1,2-2.58,34.18,34.18,0,0,1,4.81-4c1.58-1.11,3.06-2,4.32-2.74s2.31-1.27,3-1.62l.84-.41A1.15,1.15,0,0,1,237.39,419.52Z"/><path class="cls-8" d="M216.72,441.83a2.49,2.49,0,0,1-.14-.62c-.09-.45-.2-1-.33-1.7a48.86,48.86,0,0,0-1.39-5.53,47.32,47.32,0,0,0-2.11-5.3L212,427.1a2.6,2.6,0,0,1-.24-.59,2.61,2.61,0,0,1,.33.54c.19.36.47.89.79,1.55a37.56,37.56,0,0,1,2.19,5.3,38.82,38.82,0,0,1,1.33,5.58c.11.72.19,1.31.24,1.72A3,3,0,0,1,216.72,441.83Z"/><path class="cls-9" d="M216.19,425.07a20,20,0,0,0-2.4-8A26.29,26.29,0,0,0,196,403.83l16.48,24.57,2.13,4.38A12.63,12.63,0,0,0,216.19,425.07Z"/><rect class="cls-5" x="201.51" y="473.48" width="38.32" height="6.79"/><polygon class="cls-5" points="204.37 478.92 207.63 500 233.07 500 236.97 478.92 204.37 478.92"/><path class="cls-8" d="M239.81,480.28c0,.07-8.65.13-19.31.13s-19.3-.06-19.3-.13,8.64-.14,19.3-.14S239.81,480.2,239.81,480.28Z"/><rect class="cls-3" x="456.91" y="188.03" width="38.6" height="49.59" rx="3.51" transform="translate(62.04 -104.24) rotate(13.35)"/><path class="cls-7" d="M488.91,204.85,468.45,200a1.65,1.65,0,0,1-1.22-2h0a1.65,1.65,0,0,1,2-1.22l20.45,4.85a1.65,1.65,0,0,1,1.22,2h0A1.65,1.65,0,0,1,488.91,204.85Z"/><path class="cls-7" d="M487,213l-20.45-4.85a1.64,1.64,0,0,1-1.22-2h0a1.64,1.64,0,0,1,2-1.23l20.45,4.86a1.65,1.65,0,0,1,1.23,2h0A1.65,1.65,0,0,1,487,213Z"/><path class="cls-7" d="M485,221.24l-20.46-4.85a1.65,1.65,0,0,1-1.22-2h0a1.65,1.65,0,0,1,2-1.22L485.78,218a1.64,1.64,0,0,1,1.22,2h0A1.65,1.65,0,0,1,485,221.24Z"/><path class="cls-7" d="M471.88,226.78l-9.26-2.2a1.64,1.64,0,0,1-1.23-2h0a1.65,1.65,0,0,1,2-1.22l9.26,2.2a1.65,1.65,0,0,1,1.22,2h0A1.65,1.65,0,0,1,471.88,226.78Z"/><rect class="cls-3" x="4.16" y="209.09" width="38.6" height="49.59" rx="3.51" transform="translate(-49.09 10.3) rotate(-12.25)"/><path class="cls-7" d="M31.46,221.2l-20.54,4.46a1.65,1.65,0,0,1-2-1.26H9a1.64,1.64,0,0,1,1.26-2L30.76,218a1.65,1.65,0,0,1,2,1.26h0A1.65,1.65,0,0,1,31.46,221.2Z"/><path class="cls-7" d="M33.25,229.43,12.7,233.89a1.64,1.64,0,0,1-2-1.26h0A1.65,1.65,0,0,1,12,230.68l20.55-4.46a1.65,1.65,0,0,1,2,1.25h0A1.65,1.65,0,0,1,33.25,229.43Z"/><path class="cls-7" d="M35,237.67l-20.54,4.46a1.65,1.65,0,0,1-2-1.26h0a1.65,1.65,0,0,1,1.26-2l20.55-4.46a1.64,1.64,0,0,1,1.95,1.26h0A1.64,1.64,0,0,1,35,237.67Z"/><path class="cls-7" d="M25.58,248.34l-9.3,2a1.65,1.65,0,0,1-2-1.26h0a1.65,1.65,0,0,1,1.26-2l9.3-2a1.65,1.65,0,0,1,2,1.26h0A1.65,1.65,0,0,1,25.58,248.34Z"/><path class="cls-7" d="M381.57,237l-2-4.82a20,20,0,1,0-3.37,6.31h0Z"/><path class="cls-9" d="M381.57,237a1.53,1.53,0,0,1-.33.11l-1,.31-4,1.17a.09.09,0,0,1-.12-.06.17.17,0,0,1,0-.07h0l.17.1a19.92,19.92,0,0,1-7.6,5.94,20.7,20.7,0,0,1-6.17,1.64,20.38,20.38,0,0,1-7.24-.62,20.7,20.7,0,0,1-7.15-3.63,19.52,19.52,0,0,1-5.51-6.7,20.53,20.53,0,0,1-2.17-9,20.18,20.18,0,0,1,8.76-16.71,20.6,20.6,0,0,1,8.7-3.34,19.69,19.69,0,0,1,8.72.79,20.39,20.39,0,0,1,7.06,3.92,20.15,20.15,0,0,1,4.59,5.69l.73,1.53c.23.5.39,1,.58,1.53a17.32,17.32,0,0,1,.77,3,19.81,19.81,0,0,1-.69,9.6v-.07c.63,1.56,1.13,2.78,1.47,3.63.16.39.28.7.37.93a2,2,0,0,1,.11.3,2.46,2.46,0,0,1-.16-.32l-.41-.93c-.36-.83-.88-2-1.55-3.53a.09.09,0,0,1,0-.07,19.8,19.8,0,0,0,.58-9.48,17.35,17.35,0,0,0-.79-2.94c-.19-.5-.35-1-.58-1.51l-.73-1.5a19.87,19.87,0,0,0-4.53-5.55,20.33,20.33,0,0,0-6.94-3.82,19.29,19.29,0,0,0-8.53-.74,20.1,20.1,0,0,0-8.5,3.28,19.75,19.75,0,0,0-8.55,16.32A20.09,20.09,0,0,0,343,235a19.28,19.28,0,0,0,5.38,6.56,19.67,19.67,0,0,0,14.08,4.24,20.39,20.39,0,0,0,6.08-1.57,19.85,19.85,0,0,0,7.58-5.78.09.09,0,0,1,.13,0,.13.13,0,0,1,0,.12h0l-.11-.13,4-1,1.06-.27Z"/><circle class="cls-9" cx="353.75" cy="226.63" r="2.18"/><path class="cls-9" d="M363.27,226.63a2.18,2.18,0,1,1-2.18-2.18A2.19,2.19,0,0,1,363.27,226.63Z"/><circle class="cls-9" cx="368.23" cy="226.63" r="2.18"/><path class="cls-7" d="M116.91,195.88l1-5.56a18.89,18.89,0,1,1,4.36,5.2h0Z"/><path class="cls-5" d="M116.91,195.88h.33l1,0,4-.23a.07.07,0,0,0,.07-.08.08.08,0,0,0,0,0h0l-.12.11a18.74,18.74,0,0,0,11.2,4.4c.51,0,1,0,1.55,0,.27,0,.54,0,.8,0l.81-.1A18.88,18.88,0,0,0,149.07,193a18.94,18.94,0,0,0,3.86-16.19,19.79,19.79,0,0,0-1.51-4.34,19.41,19.41,0,0,0-2.6-3.91,18.64,18.64,0,0,0-7.43-5.34,19.06,19.06,0,0,0-26.13,18.26,18.84,18.84,0,0,0,2.53,8.87v-.05c-.29,1.8-.51,3.2-.67,4.17l-.16,1.06a2.4,2.4,0,0,0,0,.34l.08-.37c.05-.26.11-.62.2-1.07.17-.95.42-2.33.75-4.11a.11.11,0,0,0,0-.05,18.82,18.82,0,0,1,7.15-25.62,18.69,18.69,0,0,1,16.17-1.07,19.44,19.44,0,0,1,3.92,2.14,19.26,19.26,0,0,1,5.9,6.92,18.76,18.76,0,0,1-8.08,24.9,18.47,18.47,0,0,1-6.49,2l-.8.1c-.26,0-.52,0-.78,0-.53,0-1,0-1.54,0a20.07,20.07,0,0,1-2.88-.35,19.08,19.08,0,0,1-8.23-3.9.07.07,0,0,0-.11,0,.07.07,0,0,0,0,.09h0l0-.12-3.92.31-1,.09Z"/><polygon class="cls-16" points="126.12 182.26 128.2 180.17 132.23 183.75 140.13 176.14 142.07 178.23 131.93 187.77 126.12 182.26"/><path class="cls-17" d="M461.42,400.32c0-.24,0-.47.05-.71.2-4.5-1.62-8.81-3.38-13-4.72-11.12-9.28-22.92-8-34.92,1.76-15.87,13.43-29,17.59-44.35a4.17,4.17,0,0,1,4-3.05h0a4.17,4.17,0,0,1,4,5.41c-4.64,14.35-15.23,26.94-16.89,42-1.33,12,3.24,23.8,7.95,34.92,1.76,4.15,3.59,8.46,3.39,13s-3.1,9.23-7.55,9.95H396.33a4.18,4.18,0,0,1-4.19-4.17v-.9a4.17,4.17,0,0,1,4.19-4.17Z"/><path class="cls-17" d="M474.75,499.74H378.51a4.24,4.24,0,0,1-3.43-1.81,5.18,5.18,0,0,1-.7-4.65l27.4-83.95,1.42.47-27.39,83.94a3.67,3.67,0,0,0,.49,3.3,2.75,2.75,0,0,0,2.21,1.2h96.24a2.73,2.73,0,0,0,2.18-1.14,3.68,3.68,0,0,0,.57-3.21L454,409.76l1.45-.4L479,493.49a5.18,5.18,0,0,1-.83,4.52A4.22,4.22,0,0,1,474.75,499.74Z"/><path class="cls-5" d="M394,461.57l14.25,13.94s-10.29,19.88-7.92,22.72l29.76-28-21.27-22.68Z"/><path class="cls-13" d="M416.27,465.64a1.57,1.57,0,0,1,2.08.51,1.61,1.61,0,0,1-.61,2.09,1.67,1.67,0,0,1-2.2-.56,1.69,1.69,0,0,1,.88-2.11"/><path class="cls-9" d="M430.06,470.23l-2.24-2.2-27.7,27.67s-.81,1.79.18,2.53Z"/><path class="cls-7" d="M407.61,475.82c.13.14.92-.49,2.05-.72s2.06,0,2.14-.19-.88-.77-2.25-.47S407.46,475.73,407.61,475.82Z"/><path class="cls-7" d="M405.64,480c.09.16.94-.2,2-.08s1.77.59,1.91.45-.5-1-1.8-1.12S405.52,479.85,405.64,480Z"/><path class="cls-7" d="M407.21,485.17c.16-.09-.29-1-1.38-1.37s-2-.06-2,.12.85.17,1.74.51S407.05,485.29,407.21,485.17Z"/><path class="cls-7" d="M404.73,472.27c.18.07.67-.75,1.54-1.47s1.74-1.08,1.71-1.27-1.12-.1-2.13.77S404.56,472.23,404.73,472.27Z"/><path class="cls-5" d="M316.7,460.63l-3.1,21.53s-24.13,3.72-25.11,7.64L332.31,498l6.28-33.32Z"/><path class="cls-13" d="M327.47,482.89a1.73,1.73,0,0,1,.89,2.16,1.76,1.76,0,0,1-2.23.81,1.83,1.83,0,0,1-.93-2.3,1.85,1.85,0,0,1,2.43-.59"/><path class="cls-9" d="M332.31,498l.49-3.38L290.61,488s-2.1.44-2.12,1.78Z"/><path class="cls-7" d="M312.92,481.81c0,.21,1,.5,2,1.35s1.34,1.8,1.55,1.76.11-1.28-1-2.28S312.91,481.62,312.92,481.81Z"/><path class="cls-7" d="M308,482.75c-.09.19.78.71,1.35,1.7s.61,1.94.83,2,.56-1.09-.18-2.31S308,482.56,308,482.75Z"/><path class="cls-7" d="M304.44,487.48c.18.08.67-.88.32-2.09s-1.27-1.84-1.39-1.69.39.86.66,1.86S304.23,487.42,304.44,487.48Z"/><path class="cls-7" d="M314.2,477c.06.21,1.09.11,2.29.41s2.07.84,2.21.69-.63-1-2-1.38S314.13,476.81,314.2,477Z"/><path class="cls-18" d="M339.77,347.36s3.51-8.51,7-10.32a44.13,44.13,0,0,1,7.87-3H370l.15,10a6.81,6.81,0,0,1-5.28,1.81c-3-.42-10.67-2.31-10.67-2.31l-3.76.21L347,348.22s-2.82.86-1.83-1.8l1.44-3.84s-3.33,5.18-4.61,5.42A2.83,2.83,0,0,1,339.77,347.36Z"/><path class="cls-19" d="M403.48,315.24l-12.27,17.65L370,334.09l-.29,9.68,16,3.14a25.73,25.73,0,0,0,22.92-6.8h0L411,318.77Z"/><path class="cls-9" d="M395.64,362.19c-2.61,0-66.11,18.5-73,24.76s-12,83.64-12,83.64l26.63,9.13s5.61-37.8,9-50A62.39,62.39,0,0,0,348.37,411l52.72-23Z"/><path class="cls-9" d="M397.24,366.29c-1.18.52-47.32,20.22-51.66,33.42-3.53,10.75.57,20.22,5.51,27.63,5.57,8.35,46.44,45.64,46.44,45.64l23.07-16.49-39.55-40.84s20.75-12.81,21.46-12.81,22.28-1.42,29.12-2.2c6.39-.72,9.88-9.88,9.88-9.88l5.69-26.25-42.79-9.87Z"/><path class="cls-10" d="M397.24,366.29s.15-.27.45-.77l1.36-2.24,5.3-8.68,0,0h.05l42.8,9.81.14,0,0,.13c-1.71,7.9-3.62,16.76-5.67,26.26h0a23,23,0,0,1-4.06,6.58,11.86,11.86,0,0,1-3.13,2.49,4.61,4.61,0,0,1-.93.43,5.33,5.33,0,0,1-1,.31c-.33.06-.67.14-1,.19l-1,.11c-5.4.53-11,.93-16.74,1.35l-8.74.6-2.22.13h-.29c-.06,0-.05,0-.08,0l-.11,0c-.16.07-.32.17-.49.25l-1,.54Q399,405,397,406.16q-7.78,4.66-15.85,9.65l0-.29c9.85,10.17,20.23,20.88,30.88,31.89l8.67,8.95.16.16-.19.13-23.07,16.49-.12.09-.12-.1Q385,461.78,373.68,451c-3.76-3.6-7.42-7.15-10.94-10.67s-6.94-7-10-10.58c-.4-.44-.73-.93-1.1-1.4s-.72-.93-1-1.43c-.63-1-1.24-2-1.8-3a41.4,41.4,0,0,1-2.87-6.17,30.42,30.42,0,0,1-1.59-6.4,26.64,26.64,0,0,1,0-6.37,23,23,0,0,1,1.44-6,17.14,17.14,0,0,1,3.4-4.81,56.65,56.65,0,0,1,8.51-7,164.64,164.64,0,0,1,16.15-9.68c4.86-2.59,9.11-4.67,12.59-6.32s6.2-2.87,8-3.68l2.1-.91.72-.29-.7.32-2.09.94c-1.83.83-4.54,2.07-8,3.74s-7.71,3.76-12.56,6.37a165.9,165.9,0,0,0-16.1,9.71,56.94,56.94,0,0,0-8.45,7A17.07,17.07,0,0,0,346,399.1a23.44,23.44,0,0,0-1.41,5.9,26.5,26.5,0,0,0,.05,6.29,29.81,29.81,0,0,0,1.59,6.33,40.75,40.75,0,0,0,2.85,6.12c.56,1,1.16,2,1.8,2.95a15.4,15.4,0,0,0,1,1.42c.36.45.68.94,1.09,1.37,3.06,3.58,6.49,7,10,10.55s7.18,7.06,10.95,10.66q11.3,10.79,23.72,22.15h-.24l23.07-16.5,0,.3-8.67-8.95-30.87-31.9-.17-.17.2-.12q8.07-5,15.86-9.65c1.31-.77,2.6-1.54,3.91-2.28l1-.55.51-.25.15-.06a.54.54,0,0,1,.19,0h.27l2.22-.14,8.74-.59c5.74-.41,11.33-.8,16.72-1.33a9.08,9.08,0,0,0,3.81-1,11.51,11.51,0,0,0,3-2.42,22.67,22.67,0,0,0,4-6.47v0c2.07-9.49,4-18.36,5.72-26.24l.1.16-42.78-9.94.08,0-5.37,8.65c-.6,1-1.07,1.71-1.38,2.22S397.24,366.29,397.24,366.29Z"/><path class="cls-8" d="M401.44,240.07a4.33,4.33,0,0,1-2.56-8.22,4.5,4.5,0,0,1,3.25-7.9,5.39,5.39,0,0,1,7.71-5.11,6.07,6.07,0,0,1,7.42-.8,4.31,4.31,0,0,1,4.42,7"/><path class="cls-19" d="M418.56,222.22l-.95.08a18.35,18.35,0,0,0-16.74,18.43c.07,8.9.26,18.73.73,23.46,1,9.81,10.94,10.47,10.94,10.47l.22,11.86,23.75-2.84-1.67-43C434.82,230.46,428.82,221.91,418.56,222.22Z"/><path class="cls-18" d="M412.53,274.65a23.82,23.82,0,0,0,12.46-4.9s-2.53,7.51-12.4,7.49Z"/><path class="cls-8" d="M404.41,249.83a1.4,1.4,0,0,0,1.48,1.29,1.34,1.34,0,0,0,1.33-1.39,1.4,1.4,0,0,0-1.48-1.29A1.34,1.34,0,0,0,404.41,249.83Z"/><path class="cls-8" d="M403.4,245.34c.19.17,1.18-.71,2.69-.84s2.68.53,2.83.33-.13-.4-.64-.71a3.85,3.85,0,0,0-2.29-.49,3.66,3.66,0,0,0-2.12.9C403.44,244.93,403.31,245.27,403.4,245.34Z"/><path class="cls-8" d="M418,249.05a1.4,1.4,0,0,0,1.48,1.29,1.34,1.34,0,0,0,1.33-1.39,1.4,1.4,0,0,0-1.47-1.29A1.34,1.34,0,0,0,418,249.05Z"/><path class="cls-8" d="M418.25,244.31c.19.17,1.19-.71,2.69-.84s2.68.53,2.83.33-.13-.4-.64-.71a3.85,3.85,0,0,0-2.29-.49,3.73,3.73,0,0,0-2.12.9C418.29,243.9,418.16,244.24,418.25,244.31Z"/><path class="cls-8" d="M413.77,256a10.61,10.61,0,0,0-2.49-.22c-.39,0-.76,0-.85-.31a2,2,0,0,1,.16-1.16c.28-1,.57-2,.88-3,1.21-4.31,2-7.85,1.88-7.89s-1.3,3.41-2.51,7.72c-.29,1.07-.57,2.08-.83,3a2.21,2.21,0,0,0-.07,1.53,1,1,0,0,0,.68.51,2.56,2.56,0,0,0,.66,0A9.42,9.42,0,0,0,413.77,256Z"/><path class="cls-8" d="M416.43,238.63c.23.36,1.49-.17,3.08-.36s2.95-.05,3.06-.46c0-.19-.27-.51-.87-.76a4.8,4.8,0,0,0-2.43-.3,4.55,4.55,0,0,0-2.24.92C416.53,238.07,416.33,238.45,416.43,238.63Z"/><path class="cls-8" d="M402.78,239.13c.35.32,1.56-.15,3.06-.3s2.78,0,3-.4c.11-.18-.12-.51-.7-.78a4.81,4.81,0,0,0-2.54-.34,4.73,4.73,0,0,0-2.38.9C402.77,238.61,402.62,239,402.78,239.13Z"/><path class="cls-8" d="M401.41,236.14s2-6.37,4.89-8.07c3.43-2,5.32,1.75,8.66.49s6.61-3.22,10.34-.89c4.08,2.55,2.47,4.74,3.09,9.08,2.52,17.57,6.18,22.28,6.37,13.88,0-.92,2.48-1.87,2.51-5.75.05-5-.3-11.11-1.72-14.56-1.21-2.9-3.09-4.81-6.34-6.82-5.14-3.16-11.77-2.65-16.22-1.8S400.32,228.48,401.41,236.14Z"/><path class="cls-19" d="M434.11,250.42a2.66,2.66,0,0,1,2.65-2.82c1.84,0,4,.87,4.18,4.66.38,6.73-6.45,5.72-6.47,5.53S434.24,253.23,434.11,250.42Z"/><path class="cls-18" d="M435.79,255.17s.12.08.32.16a1.17,1.17,0,0,0,.88,0,2.91,2.91,0,0,0,1.2-2.68,3.85,3.85,0,0,0-.43-1.66,1.34,1.34,0,0,0-.93-.85.6.6,0,0,0-.67.36c-.08.19,0,.33-.07.34s-.15-.11-.11-.39a.76.76,0,0,1,.24-.43.92.92,0,0,1,.64-.21,1.66,1.66,0,0,1,1.28,1,4,4,0,0,1,.52,1.86,3.06,3.06,0,0,1-1.55,3,1.24,1.24,0,0,1-1.08-.12C435.81,255.34,435.77,255.19,435.79,255.17Z"/><path class="cls-8" d="M432.83,237.43A6.47,6.47,0,0,1,430.1,239a2.19,2.19,0,0,1-2.56-1.32c-.13-.46-.06-1-.4-1.35s-1.07-.2-1.62-.09c-1.94.38-4.41-1.58-5.07-3.43a1.76,1.76,0,0,1-2.3.69,6.45,6.45,0,0,1-1.74-1.29,2.74,2.74,0,0,0-2.41-.95,7,7,0,0,1-1.43.45c-.89,0-1.41-1-1.62-1.86s-.4-1.87-1.19-2.28a3.54,3.54,0,0,0-2.41.14c-.8.19-1.86.1-2.14-.68a1.65,1.65,0,0,1,.19-1.24,4.37,4.37,0,0,1,5-2.1,5.91,5.91,0,0,1,10.72-2.1,6,6,0,0,1,9.75,1.34,4.35,4.35,0,0,1,5.44,5.87,4.1,4.1,0,0,1,2.55,3.07c.15,1.39-1.08,2.89-2.45,2.65a2.41,2.41,0,0,1-3.94,2.76"/><path class="cls-10" d="M410.06,225.7a.56.56,0,0,0,0,.12,3.07,3.07,0,0,0,.07.36,4.53,4.53,0,0,0,.6,1.25,4.8,4.8,0,0,0,1.63,1.45,4.44,4.44,0,0,0,2.82.54l-.13-.14a2.42,2.42,0,0,0,.3,1.84,7,7,0,0,0,1.29,1.55,5.82,5.82,0,0,0,.82.71,2.48,2.48,0,0,0,1.1.3,2.44,2.44,0,0,0,2.09-1l-.25-.05a5,5,0,0,0,2.44,3.3,3.71,3.71,0,0,0,2.27.52,6.5,6.5,0,0,0,2.12-.67l-.18-.06a5.24,5.24,0,0,0,1.77,1.93,2.79,2.79,0,0,0,2.39.43,3.69,3.69,0,0,0,2.59-3.14l-.14.08a3.46,3.46,0,0,0,2.33.14,3.91,3.91,0,0,0,1.55-.86,3.32,3.32,0,0,0,.68-.89,3.86,3.86,0,0,0,.14-.36,4.21,4.21,0,0,1-.9,1.16A3.65,3.65,0,0,1,436,235a3.31,3.31,0,0,1-2.21-.17l-.13-.06V235a3.52,3.52,0,0,1-2.46,2.92,2.58,2.58,0,0,1-2.17-.42,5.09,5.09,0,0,1-1.67-1.83l-.06-.12-.13.05a6.25,6.25,0,0,1-2,.64,3.43,3.43,0,0,1-2.1-.49,4.8,4.8,0,0,1-2.31-3.1l-.07-.32-.18.27a2.22,2.22,0,0,1-1.85.85,2,2,0,0,1-1-.26,4.73,4.73,0,0,1-.77-.66,6.71,6.71,0,0,1-1.27-1.48,2.22,2.22,0,0,1-.29-1.66l0-.17-.17,0a4.3,4.3,0,0,1-2.69-.48,4.8,4.8,0,0,1-1.62-1.37A5.33,5.33,0,0,1,410.06,225.7Z"/><path class="cls-8" d="M413.9,260.81c0-.25,1.69-.05,3.06-1.35s1.4-3.1,1.63-3.09.28.44.21,1.2a4.15,4.15,0,0,1-1.27,2.59,3.69,3.69,0,0,1-2.55,1C414.27,261.17,413.87,260.93,413.9,260.81Z"/><path class="cls-5" d="M411.68,288.05l.9-4.08,23.93-11.88,2.09,3.26S447.55,282.64,451,289s-.63,58.12-1.21,65.68c-1.15,15.23-6.84,35.17-6.84,35.17s-7.68-5.35-30.27-14.62-23.8-13.48-23.8-13.48l13.31-16.88Z"/><path class="cls-16" d="M412,289.47c-.13.75-11,26.73-11,26.73s5.62,3.13,6.41,3.29S412,289.47,412,289.47Z"/><path class="cls-9" d="M411,293.73c.11,0-.85,6.62-2.14,14.74s-2.42,14.7-2.53,14.68.85-6.61,2.14-14.74S410.85,293.72,411,293.73Z"/><path class="cls-19" d="M335,345.7s6.45-9.52,10.29-11.19a47.25,47.25,0,0,1,8.65-2.57l16.21,2.17-.29,9.68a7.29,7.29,0,0,1-5.79,1.54c-3.23-.68-11.25-3.26-11.25-3.26l-4-.07-4,4.5s-3.07.71-1.81-2.07l1.81-4s-3.95,5.3-5.33,5.46A28.06,28.06,0,0,1,335,345.7Z"/><path class="cls-19" d="M419.74,307.6,408.5,333.72l-38.47.37-.29,9.68s37.1,13.08,47,10.54S443,316.83,443,316.83Z"/><path class="cls-5" d="M428.84,285.57c-1,.95-4.53,5-8.24,13.91s-8.92,19.25-8.92,19.25l26.53,10.58s6-13.92,8.85-20.11c2.14-4.71,3.63-14,1.69-18.46S438.07,277.19,428.84,285.57Z"/><path class="cls-8" d="M428.84,285.57a2,2,0,0,1,.24-.24c.17-.14.41-.37.75-.64a13.11,13.11,0,0,1,3.27-1.93,10,10,0,0,1,5.95-.45,14.35,14.35,0,0,1,6.8,4.07,16.37,16.37,0,0,1,2.77,3.74,12.33,12.33,0,0,1,1.15,4.91,35.07,35.07,0,0,1-1.38,11,41.56,41.56,0,0,1-2.19,5.6q-1.23,2.81-2.52,5.72l-5.29,12-.08.18-.18-.07-.38-.15L411.62,318.9l-.18-.07.08-.18c2.48-5,4.68-9.59,6.55-13.73S421.4,297,423,294.13A45.13,45.13,0,0,1,427,287.6a19.44,19.44,0,0,1,1.31-1.56,5.23,5.23,0,0,1,.52-.47l-.12.13-.35.38c-.31.35-.74.87-1.27,1.59a46.05,46.05,0,0,0-4,6.56c-1.53,2.91-2.93,6.65-4.81,10.81s-4,8.79-6.5,13.77l-.09-.24L437.89,329l.39.15-.25.11c1.81-4.13,3.59-8.15,5.3-12l2.53-5.72a40.56,40.56,0,0,0,2.19-5.54,35,35,0,0,0,1.4-10.88,11.9,11.9,0,0,0-1.1-4.79,16.26,16.26,0,0,0-2.7-3.69,14,14,0,0,0-6.65-4,9.82,9.82,0,0,0-5.85.37,14,14,0,0,0-3.27,1.85c-.35.26-.6.48-.77.61Z"/><path class="cls-18" d="M352,336.83a12,12,0,0,0-4.1,1,12.18,12.18,0,0,0-3.27,2.68,2.84,2.84,0,0,1,.66-1.1,7.67,7.67,0,0,1,5.43-2.74A2.66,2.66,0,0,1,352,336.83Z"/><path class="cls-18" d="M414.47,319.85a.94.94,0,0,1-.09.26l-.29.77-1.18,2.85c-1.05,2.49-2.51,6-4.25,10.06l0,.1h-.12l-11.68.14-18.95.12h-5.74l-1.56,0a2.77,2.77,0,0,1-.54,0,2.77,2.77,0,0,1,.54,0l1.56-.06,5.74-.11,18.94-.25,11.69-.09-.16.11c1.79-4.08,3.29-7.53,4.38-10l1.26-2.82c.15-.3.26-.54.35-.74S414.46,319.84,414.47,319.85Z"/><rect class="cls-17" x="66.63" y="354.64" width="7.41" height="144.91"/><rect class="cls-17" x="370.63" y="355.66" width="7.41" height="143.91"/><rect class="cls-17" x="48.13" y="353.21" width="337.24" height="8.74"/><path class="cls-8" d="M382.12,362c0,.1-39.35.19-87.89.19s-87.89-.09-87.89-.19,39.34-.2,87.89-.2S382.12,361.85,382.12,362Z"/><path class="cls-5" d="M101.09,462.72l-8.22,17.21s15.78,14.46,14.59,17.79L71.52,482.36,83.16,455Z"/><path class="cls-13" d="M82.39,473.7a1.5,1.5,0,0,0-1.69,1.15,1.53,1.53,0,0,0,1.23,1.67,1.44,1.44,0,1,0,.31-2.83"/><path class="cls-9" d="M71.52,482.36l1.29-2.71,34,15.74s1.31,1.35.67,2.33Z"/><path class="cls-7" d="M93.53,480c-.08.17-1-.13-2.08,0s-1.86.66-2,.53.54-1,1.87-1.16S93.63,479.87,93.53,480Z"/><path class="cls-7" d="M96.66,483.09c0,.17-.91.13-1.81.58s-1.39,1.11-1.56,1,.12-1.07,1.25-1.6S96.73,482.93,96.66,483.09Z"/><path class="cls-7" d="M97,488.27c-.17,0-.06-1,.78-1.68s1.82-.73,1.84-.56-.7.44-1.39,1S97.14,488.32,97,488.27Z"/><path class="cls-8" d="M62.64,189.21a24.11,24.11,0,0,1,17.77-10.9c4.21-.45,6,.27,9.15.82a13.41,13.41,0,0,1,8,4.35,22.45,22.45,0,0,1,5.28,9.81,32.24,32.24,0,0,1,.35,10.69,42.57,42.57,0,0,1-4.59,13.08l-6.41,1.36c-5.37.66-10.81,1.33-16.16.57s-10.71-3.13-13.93-7.48C57.68,205.47,58.42,195.43,62.64,189.21Z"/><path class="cls-20" d="M71.31,188.38l12.54-6.33,3.43.09c7.64-.65,13.66,7.31,14.26,13.49.67,6.87,1.22,15.28.58,20.45-1.29,10.38-9.91,12-9.91,12s1.44,12.11,1.81,15.53l-20.81-6.36-5-45.08A3.63,3.63,0,0,1,71.31,188.38Z"/><path class="cls-21" d="M86.62,215.05a2.17,2.17,0,0,1,.63-1.4,2.23,2.23,0,0,1,2.68-.39,3,3,0,0,1,1.37,2.68h0a2.68,2.68,0,0,1-1.83,1.29,2.23,2.23,0,0,1-.36.05,2.43,2.43,0,0,1-1.69-.5A2.18,2.18,0,0,1,86.62,215.05Z"/><path class="cls-8" d="M99.55,204.91a1.32,1.32,0,0,1-1.23,1.38,1.27,1.27,0,0,1-1.41-1.15,1.33,1.33,0,0,1,1.23-1.38A1.27,1.27,0,0,1,99.55,204.91Z"/><path class="cls-8" d="M99.52,199.27c-.16.18-1.19-.53-2.61-.47s-2.45.8-2.61.63.08-.4.52-.74A3.66,3.66,0,0,1,96.9,198a3.47,3.47,0,0,1,2.09.59C99.44,198.89,99.6,199.19,99.52,199.27Z"/><path class="cls-8" d="M91.4,211.21a9.79,9.79,0,0,1,2.3-.5c.36-.05.7-.13.76-.38a1.91,1.91,0,0,0-.28-1.07c-.38-.87-.77-1.78-1.17-2.74-1.63-3.89-2.83-7.1-2.67-7.16s1.61,3,3.24,6.93l1.12,2.76a2.09,2.09,0,0,1,.24,1.42.93.93,0,0,1-.58.55,2.62,2.62,0,0,1-.62.11A9.58,9.58,0,0,1,91.4,211.21Z"/><path class="cls-21" d="M92.22,228.07a26.2,26.2,0,0,1-14-3.22s3.92,7,14.23,5.72Z"/><path class="cls-8" d="M99.53,194.91c-.23.35-1.33.16-2.6.31s-2.32.52-2.61.22c-.13-.15,0-.5.43-.86a4.07,4.07,0,0,1,4.19-.43C99.43,194.42,99.63,194.74,99.53,194.91Z"/><path class="cls-8" d="M84.92,206a1.34,1.34,0,0,0,1.37,1.24,1.28,1.28,0,0,0,1.28-1.29,1.32,1.32,0,0,0-1.37-1.24A1.27,1.27,0,0,0,84.92,206Z"/><path class="cls-8" d="M80.28,200.44c.17.16,1.12-.66,2.54-.75s2.52.53,2.66.35-.12-.38-.6-.68a3.65,3.65,0,0,0-2.14-.5,3.53,3.53,0,0,0-2,.81C80.32,200,80.19,200.36,80.28,200.44Z"/><path class="cls-8" d="M82.15,195.41c.3.31,1.38-.09,2.7-.18s2.45.09,2.69-.26c.11-.18-.09-.49-.59-.77a4.32,4.32,0,0,0-4.35.36C82.16,194.92,82,195.26,82.15,195.41Z"/><path class="cls-20" d="M71.49,209.29c0-.77-1-2.56-1.74-2.65-2-.24-5.69,0-5.55,5.2.2,7,7.23,5.39,7.24,5.19S71.59,211.94,71.49,209.29Z"/><path class="cls-21" d="M69.42,214.51s-.12.09-.32.19a1.22,1.22,0,0,1-.92,0,3,3,0,0,1-1.48-2.68,4.05,4.05,0,0,1,.29-1.77,1.46,1.46,0,0,1,.9-1,.66.66,0,0,1,.74.32c.1.2.05.34.09.35s.15-.12.09-.41a.83.83,0,0,0-.29-.44,1,1,0,0,0-.69-.16,1.74,1.74,0,0,0-1.25,1.13,4.21,4.21,0,0,0-.37,2c.08,1.42.85,2.73,1.87,3a1.35,1.35,0,0,0,1.12-.22C69.41,214.68,69.45,214.52,69.42,214.51Z"/><path class="cls-8" d="M69.47,206.69l1.94,1.69C82.62,201,94,180.93,91.08,181.75A22.47,22.47,0,0,0,80,181.53c-5.63,1.49-16.21,5.31-15.44,12S69.47,206.69,69.47,206.69Z"/><path class="cls-8" d="M66.17,178.53c2.73,1.6,5.16,6.25,4,9.2A9.27,9.27,0,0,1,58.37,198.1a8.91,8.91,0,0,1-5-3.88,10.74,10.74,0,0,1-1.1-7.45,11.89,11.89,0,0,1,4.94-7.8A8.76,8.76,0,0,1,66.17,178.53Z"/><path class="cls-10" d="M65.55,206.7a5.92,5.92,0,0,0,1.29-.55c.81-.39,2-1,3.36-1.79a50.87,50.87,0,0,0,10.1-7.47,33.74,33.74,0,0,0,7.31-10.21,23.82,23.82,0,0,0,1.3-3.58,6,6,0,0,0,.29-1.37c-.1,0-.54,1.92-1.93,4.79a36.11,36.11,0,0,1-7.34,10A57.66,57.66,0,0,1,70,204c-1.37.83-2.49,1.48-3.27,1.93A7.91,7.91,0,0,0,65.55,206.7Z"/><path class="cls-10" d="M59.41,201.42c.1,0,.14-1.31.53-3.38a26.73,26.73,0,0,1,7.7-14.21c1.51-1.46,2.59-2.21,2.54-2.29a3,3,0,0,0-.81.46,18,18,0,0,0-2,1.55A24.26,24.26,0,0,0,59.57,198a17.26,17.26,0,0,0-.21,2.52A3.1,3.1,0,0,0,59.41,201.42Z"/><path class="cls-8" d="M66.89,217.75a2.64,2.64,0,1,0,2.64-2.63A2.64,2.64,0,0,0,66.89,217.75Z"/><path class="cls-8" d="M91.73,216.17c0-.25-1.68,0-3.09-1.16s-1.55-3-1.78-3-.25.45-.14,1.2a4.1,4.1,0,0,0,1.39,2.48,3.62,3.62,0,0,0,2.57.88C91.38,216.54,91.76,216.28,91.73,216.17Z"/><path class="cls-9" d="M54.15,305.85s-7.87,27.76-3.2,42.82c2.81,9,42.15,58.83,44,61,1.32,1.49-16.82,48.53-20.14,58.32l20.86,10.11s26.1-55.49,27.7-65.22c2-12.49-27.31-65.93-26.24-66.64l10.56-22L99,301.53s-36.92.4-44.45,1Z"/><path class="cls-9" d="M99.78,322.22s50.88,18,56.62,21.11c6.25,3.33,11,15,5.76,24.95s-51,38.38-51,38.38L99.78,389.27l33.1-26.07L97,354.75,85.37,340.92Z"/><path class="cls-10" d="M123.41,412.54a18.85,18.85,0,0,0,0-3.54,39.32,39.32,0,0,0-2.57-9.29c-.73-1.92-1.6-4-2.51-6.21-.47-1.11-.91-2.29-1.37-3.49s-1-2.4-1.52-3.64c-2.17-5-4.64-10.38-7.24-16.07C104,361.18,100.1,352.75,97,346l0-.07,0-.07c1.32-5.48,2.49-10,3.37-13.07.45-1.55.83-2.75,1.12-3.56a8.7,8.7,0,0,1,.38-.9A1.73,1.73,0,0,1,102,328a2.25,2.25,0,0,1-.13.31c-.09.2-.18.52-.32.92-.26.82-.59,2-1,3.58-.81,3.12-1.91,7.62-3.19,13.11l0-.14c3.17,6.72,7.1,15.13,11.29,24.28,2.6,5.68,5,11.11,7.2,16.09.53,1.25,1.06,2.46,1.51,3.67s.88,2.37,1.34,3.48c.9,2.24,1.75,4.32,2.45,6.25a38.17,38.17,0,0,1,2.44,9.4A10.35,10.35,0,0,1,123.41,412.54Z"/><path class="cls-22" d="M100.5,332.67c-.1.37,0,13.37,0,13.37L107,357.1l-5.22-1.22-4.64-9.66Z"/><path class="cls-10" d="M129.37,330.68c-1.47-1.44-5.77-5.48-8.8-8.32a1.76,1.76,0,0,1,1.17-3.05l34.85-.72a1.79,1.79,0,0,1,1.36.59l7.28,8.19a1.77,1.77,0,0,1-1.27,2.94l-33.31.87A1.7,1.7,0,0,1,129.37,330.68Z"/><path class="cls-20" d="M119.51,324.42a30.46,30.46,0,0,1,8.1-2.2c4-.4,6.07,1.3,8.24,1.1s8.1.38,8.1,2-8.24,2.17-8.24,2.17l7.23,2.31s8.24-1,8.39,0-7.38,2-10.85,2.46-23.58.72-26.47,0-23.43-13.16-23.43-13.16l9.84-10.13Z"/><path class="cls-9" d="M68.86,233.89a16.9,16.9,0,0,0-12.69,11.75c-2.69,8.56,2.44,43.75,4.62,50.1s25.66,26.81,27.73,25.07S102,308.94,102,308.94L83.65,287.23s1-25.78-.24-30.65S74,233.4,68.86,233.89Z"/><path class="cls-5" d="M57.38,276.81c1.34,12.22-1.28,17.48-1.28,17.48a9.44,9.44,0,0,0-3.42,6.26,1.78,1.78,0,0,0,1.84,2l44.45-1s6.22.6,6.09-5.3c-.15-6.58,1.66-29.72-.73-38.81-.82-3.14-11-18.44-11-18.44L72.17,227l-2.25,5.78s-6.72,2.45-9.79,6.41a22.2,22.2,0,0,0-4.25,8.64C54,254.12,56.66,270.26,57.38,276.81Z"/><path class="cls-20" d="M169.14,256.41s-.38-.34-1.73.09-5.18,2.32-6.92,2.76-5.51,1.9-5.51,1.9a7.63,7.63,0,0,0-4.76,1.6c-2.66,1.85-10.18,6.81-10.18,6.81l2.58,7.32a15.43,15.43,0,0,1,3.73-.25,11.39,11.39,0,0,0,5.33-.22c2-.61,4.81-1.71,4.81-1.71s2.69.22,3.4-.76,0-2.75,0-2.75h0s2.64-2.42,1.51-3.79-2.55-2.87-2.55-2.87,7.84-4.16,9.32-5.26S169.9,257.3,169.14,256.41Z"/><polygon class="cls-20" points="140.04 269.57 115.64 277.78 105.78 282.76 119.62 290.22 142.62 276.88 140.04 269.57"/><path class="cls-21" d="M154.82,263.54a12.17,12.17,0,0,1-.3,6.29l-.12.39-.2-.33c1.62.29,3.06.57,4.1.8s1.63.67,1.57.72a12.67,12.67,0,0,0-1.64-.37c-1-.14-2.5-.36-4.12-.64l-.28,0,.08-.28c0-.12.07-.25.1-.38A33.24,33.24,0,0,0,154.82,263.54Z"/><path class="cls-21" d="M154.7,267s.22,0,.5.17a2,2,0,0,1,.8,1.13l-.27-.18a9.53,9.53,0,0,1,1.39-.13,5.44,5.44,0,0,1,3.11.63c0,.15-1.41-.15-3.1-.11-.48,0-.93,0-1.33.08l-.22,0,0-.21C155.35,267.47,154.63,267.1,154.7,267Z"/><path class="cls-21" d="M158.37,265.14c.09.13-.57.68-1.16,1.53s-.91,1.64-1.05,1.6,0-1,.62-1.9S158.31,265,158.37,265.14Z"/><path class="cls-5" d="M92.9,233.61l2.45,6.58c2.66,2.53,9.3,9.64,10.56,14.53,1.65,6.39,9.09,22.47,9.09,22.47s16.86-7.18,18-6,7.07,15,5.13,17.94S119,299.65,112,297.94s-13.57-11.79-13.57-11.79Z"/><path class="cls-8" d="M104,254.78a11.77,11.77,0,0,1,.55,1.5,14.5,14.5,0,0,1,.5,1.81,23.14,23.14,0,0,1,.5,2.44,44.3,44.3,0,0,1,.58,6.45c0,2.43,0,5.11-.22,7.91-.38,5.6-.78,10.65-.73,14.31,0,.92,0,1.74,0,2.47s.06,1.35.1,1.86a8.76,8.76,0,0,1,.07,1.6,10.43,10.43,0,0,1-.27-1.58c-.07-.51-.15-1.13-.19-1.86s-.13-1.56-.13-2.48c-.14-3.69.2-8.77.58-14.35.18-2.8.28-5.46.26-7.88a49.89,49.89,0,0,0-.46-6.39C104.64,257,103.85,254.82,104,254.78Z"/><path class="cls-5" d="M114.74,286.72a46,46,0,0,1,.14-9.77,22.56,22.56,0,0,1,.19,4.89A21.93,21.93,0,0,1,114.74,286.72Z"/><path class="cls-8" d="M83.29,253.64a2.44,2.44,0,0,1,0,.59c0,.44,0,1,0,1.69,0,1.54.05,3.65.08,6.22.06,5.25.34,12.51.12,20.53a11.58,11.58,0,0,0,1,5.57,24.89,24.89,0,0,0,3.3,4.24c2.28,2.6,4.34,4.95,6.08,6.95L98,304.14l1.09,1.29a2.91,2.91,0,0,1,.35.48,2.94,2.94,0,0,1-.43-.41l-1.16-1.23-4.19-4.6-6.16-6.87a25,25,0,0,1-3.39-4.32,12,12,0,0,1-1.1-5.82c.22-8,0-15.26,0-20.52,0-2.63,0-4.75.08-6.22,0-.74.06-1.31.08-1.69A2.49,2.49,0,0,1,83.29,253.64Z"/><path class="cls-8" d="M68,233.89c0,.06-1,.35-2.68,1.26a18.6,18.6,0,0,0-6,5.26,17.8,17.8,0,0,0-2.57,4.89,16.44,16.44,0,0,0-.74,3c-.14,1-.23,2.15-.3,3.27a57.54,57.54,0,0,0,0,7.07c.16,2.45.5,5,.76,7.58.55,5.2,1.07,10.15,1.55,14.66a75.17,75.17,0,0,0,1.76,11.85,20.71,20.71,0,0,0,3.45,7.22,16.68,16.68,0,0,0,1.46,1.64,4.65,4.65,0,0,1,.54.55s-.06,0-.17-.11a5.54,5.54,0,0,1-.44-.36,12.57,12.57,0,0,1-1.54-1.59,20,20,0,0,1-3.65-7.25,71.08,71.08,0,0,1-1.89-11.9c-.49-4.51-1-9.46-1.59-14.65-.26-2.6-.59-5.13-.75-7.61a56.41,56.41,0,0,1,0-7.13c.08-1.13.17-2.23.33-3.31a17.35,17.35,0,0,1,.78-3.06A18.38,18.38,0,0,1,65.25,235a13.16,13.16,0,0,1,2-.87A5,5,0,0,1,68,233.89Z"/><path class="cls-8" d="M93.22,240.41a5.19,5.19,0,0,1-1-.61L89.48,238l.28-.15c0,1.39,0,3,0,4.79V243l-.35-.17L83.76,240c-3.83-2-7.28-3.73-9.77-5l-2.93-1.58a6.32,6.32,0,0,1-1-.65,6.24,6.24,0,0,1,1.14.46l3,1.44c2.53,1.23,6,3,9.83,4.9l5.6,2.87-.35.2c.06-1.78.12-3.4.16-4.78v-.36l.28.21,2.61,2A5.55,5.55,0,0,1,93.22,240.41Z"/><path class="cls-8" d="M274.18,353h55.93a1.61,1.61,0,0,0,1.74-1.42,1.65,1.65,0,0,0-.09-.43l-24.88-57a4.87,4.87,0,0,0-4.63-2.75h-56a1.58,1.58,0,0,0-1.72,1.38,1.07,1.07,0,0,0,.11.46l24.88,57.05A4.89,4.89,0,0,0,274.18,353Z"/><path class="cls-23" d="M246.29,291.4h56a4.87,4.87,0,0,1,4.63,2.75l24.88,57a1.65,1.65,0,0,1,.09.43,1.61,1.61,0,0,1-1.74,1.42H274.18a4.89,4.89,0,0,1-4.62-2.75l-24.88-57.05a1.07,1.07,0,0,1-.11-.46A1.58,1.58,0,0,1,246.29,291.4Z"/><path class="cls-22" d="M301.92,291.4h.33a4.87,4.87,0,0,1,4.63,2.75l24.88,57a1.65,1.65,0,0,1,.09.43,1.61,1.61,0,0,1-1.74,1.42h-1.79Z"/><path class="cls-8" d="M384.87,353H326.64v-3.93h54.3a3.93,3.93,0,0,1,3.93,3.93Z"/><path class="cls-23" d="M384.87,353H326.64v-3.93h54.3a3.93,3.93,0,0,1,3.93,3.93Z"/><path class="cls-7" d="M268.51,334.65s-.05,0-.05-.06h0a.11.11,0,0,1,0-.08,1.09,1.09,0,0,0,.22-.57l.13-2.54a1,1,0,0,0-.17-.57.19.19,0,0,1,0-.08h0s0-.05.06-.05h1.39c.64,0,1.53.44,1.47,2s-1,2-1.64,2Zm1.1-.22c.51,0,1.14-.35,1.19-1.77s-.53-1.75-1-1.75h-.14l-.16,3.52Z"/><path class="cls-7" d="M272.76,332.79l-.06,1.66h.73a1.38,1.38,0,0,0,.8-.27l0,0a.19.19,0,0,1,.1,0s.06,0,.05.05l-.05.4a.12.12,0,0,1-.13.12h-2.49a.06.06,0,0,1-.06-.06h0a.32.32,0,0,1,0-.09A1,1,0,0,0,272,334l.09-2.55a1,1,0,0,0-.17-.56.11.11,0,0,1,0-.08h0a.06.06,0,0,1,.06-.06l2.4,0a.11.11,0,0,1,.12.11l0,.39a0,0,0,0,1-.05.06.19.19,0,0,1-.1,0l-.05,0a1.33,1.33,0,0,0-.77-.27h-.66l-.06,1.64h.14a2.52,2.52,0,0,0,.81-.15.21.21,0,0,1,.11,0,0,0,0,0,1,.05.05v.44a.07.07,0,0,1-.07.08l-.08,0-.18-.07a1.39,1.39,0,0,0-.45-.09Z"/><path class="cls-7" d="M277.22,334.62l-2.15-3.56L275,334a1,1,0,0,0,.19.58.19.19,0,0,1,0,.08h0s0,.06,0,.06h-.56a.06.06,0,0,1-.06-.06h0a.19.19,0,0,1,0-.08,1,1,0,0,0,.21-.58l.06-2.55a1,1,0,0,0-.18-.57.19.19,0,0,1,0-.08h0a0,0,0,0,1,.05-.05h.85a.43.43,0,0,1,.35.21l1.4,2.3,0-1.79a1,1,0,0,0-.19-.56.24.24,0,0,1,0-.08h0s0-.06.05-.06h.52a.08.08,0,0,1,.08.08.11.11,0,0,1,0,.06l-.09.12a.6.6,0,0,0-.12.32l0,3.3a.11.11,0,0,1-.11.12A.18.18,0,0,1,277.22,334.62Z"/><path class="cls-7" d="M277.82,330.84a.13.13,0,0,1,.13-.12l2.69,0a.12.12,0,0,1,.12.12l0,.39s0,.05-.05.05a.19.19,0,0,1-.1,0l0,0a1.29,1.29,0,0,0-.78-.27h-.15v3a1.06,1.06,0,0,0,.19.59.11.11,0,0,1,0,.08h0a.06.06,0,0,1-.06.06h-1.11a.06.06,0,0,1-.06-.06h0a.11.11,0,0,1,0-.08,1,1,0,0,0,.2-.58l0-3.05h-.15a1.29,1.29,0,0,0-.78.27l-.05,0a.14.14,0,0,1-.1,0s-.06,0-.05-.06Z"/><path class="cls-7" d="M281.89,330.74a.22.22,0,0,1,.2.14l1.13,3.18a1.35,1.35,0,0,0,.34.5l.06.05a.18.18,0,0,1,0,.1.06.06,0,0,1-.06.06h-1.21a.07.07,0,0,1-.07-.08.31.31,0,0,1,0-.08l.07-.11a.39.39,0,0,0,0-.3l-.24-.66H281l-.19.53a.63.63,0,0,0,.06.52.36.36,0,0,1,0,.1h0s0,.06-.05.05h-.63a.07.07,0,0,1-.06-.07.11.11,0,0,1,0-.08l.13-.11a1,1,0,0,0,.24-.35l1.15-3.25A.21.21,0,0,1,281.89,330.74Zm.23,2.56-.52-1.47-.52,1.47Z"/><path class="cls-7" d="M283.63,330.81a.06.06,0,0,1,.05-.06h1.11s0,0,.06.06h0a.13.13,0,0,1,0,.08,1,1,0,0,0-.19.56l.06,3.07h.74a1.42,1.42,0,0,0,.8-.27l0,0a.12.12,0,0,1,.1,0,.06.06,0,0,1,.05.06l0,.4a.13.13,0,0,1-.13.13l-2.53,0a.06.06,0,0,1-.06-.06h0a.16.16,0,0,1,0-.09,1,1,0,0,0,.19-.58l0-2.56a1,1,0,0,0-.2-.57.11.11,0,0,1,0-.08Z"/><path class="cls-7" d="M288.44,334.73a.11.11,0,0,1,0-.08,1.07,1.07,0,0,0,.18-.58l-.09-2.58a1.15,1.15,0,0,0-.22-.57.11.11,0,0,1,0-.07v0a0,0,0,0,1,.05-.05H290a1.07,1.07,0,0,1,1.18,1,.84.84,0,0,1-.4.81,1.14,1.14,0,0,1,.71,1.07,1,1,0,0,1-1,1.12l-2,0a.06.06,0,0,1-.06-.06Zm1.2-2.18a.71.71,0,0,0,.77-.77.78.78,0,0,0-.83-.77h-.26l.06,1.54Zm.25,2a.8.8,0,0,0,.83-.91.88.88,0,0,0-.9-.89h-.44l.07,1.8Z"/><path class="cls-7" d="M291.76,334.76a.19.19,0,0,1,0-.08,1,1,0,0,0,.17-.59l-.12-2.58a1.05,1.05,0,0,0-.23-.57.19.19,0,0,1,0-.08h0a.06.06,0,0,1,.06-.06h1.94a1.12,1.12,0,0,1,1.14,1.14A.94.94,0,0,1,294,333l.81,1.31a.68.68,0,0,0,.18.2l.25.18a.12.12,0,0,1,.05.1s0,.05-.06.05h-.82a.26.26,0,0,1-.21-.12l-1-1.7h-.44l.05,1.07a1.17,1.17,0,0,0,.23.58.18.18,0,0,1,0,.09h0a.06.06,0,0,1-.06.06h-1.13a.06.06,0,0,1-.06-.06Zm1.35-2a.77.77,0,0,0,.82-.89A.88.88,0,0,0,293,331h-.44l.1,1.77Z"/><path class="cls-7" d="M296.66,330.82a.22.22,0,0,1,.21.14l1.36,3.2a1.27,1.27,0,0,0,.37.51l.07.06a.15.15,0,0,1,0,.09,0,0,0,0,1,0,.06h-1.24s-.07,0-.08-.08a.19.19,0,0,1,0-.07l.06-.11a.4.4,0,0,0,0-.32l-.29-.65h-1.22l-.16.54a.65.65,0,0,0,.09.52.19.19,0,0,1,0,.1h0a.05.05,0,0,1-.06.06h-.63a.08.08,0,0,1-.08-.07.08.08,0,0,1,0-.07l.13-.12a.82.82,0,0,0,.21-.36l1-3.27A.21.21,0,0,1,296.66,330.82Zm.4,2.58-.63-1.48L296,333.4Z"/><path class="cls-7" d="M301.49,334.81l-2.58-3.62.23,2.95a1.19,1.19,0,0,0,.25.59.59.59,0,0,1,0,.08v0a.06.06,0,0,1-.06.06h-.57a.05.05,0,0,1-.06-.06h0a.08.08,0,0,1,0-.08.93.93,0,0,0,.15-.59l-.2-2.59a1,1,0,0,0-.24-.57.3.3,0,0,1,0-.08h0a.05.05,0,0,1,.06-.06h.87a.51.51,0,0,1,.38.21l1.68,2.34-.16-1.81A1,1,0,0,0,301,331a.11.11,0,0,1,0-.08h0s0-.06,0-.06h.54a.09.09,0,0,1,.08.09.07.07,0,0,1,0,.06l-.08.11a.55.55,0,0,0-.09.33l.3,3.35c0,.08,0,.12-.11.12A.24.24,0,0,1,301.49,334.81Z"/><path class="cls-7" d="M302.27,334.91a.07.07,0,0,1-.07-.06h0a.29.29,0,0,1,0-.09.91.91,0,0,0,.15-.58l-.24-2.6a1.11,1.11,0,0,0-.25-.58.11.11,0,0,1,0-.08h0s0,0,.06,0h1.45c.66,0,1.65.45,1.82,2s-.75,2-1.42,2Zm1.11-.23c.53,0,1.13-.36,1-1.81s-.82-1.79-1.34-1.79h-.15l.34,3.6Z"/><path class="cls-7" d="M307.05,330.82a2.23,2.23,0,0,1,2.16,2.08,1.7,1.7,0,0,1-1.69,2.11,2.24,2.24,0,0,1-2.16-2.13A1.68,1.68,0,0,1,307.05,330.82Zm.45,3.95c.64,0,1-.75.9-1.87s-.69-1.85-1.33-1.86-1,.74-.9,1.85S306.85,334.76,307.5,334.77Z"/><path class="cls-7" d="M278.43,318.3h1.39a.33.33,0,0,0,.34-.33v-1.34a.34.34,0,0,0-.35-.32h-1.38a.33.33,0,0,0-.33.33V318A.34.34,0,0,0,278.43,318.3Z"/><path class="cls-7" d="M279.85,315.81h.71a.33.33,0,0,0,.34-.32v-.68a.34.34,0,0,0-.35-.32h-.7a.33.33,0,0,0-.34.32v.68A.32.32,0,0,0,279.85,315.81Z"/><path class="cls-7" d="M282.08,317.87h.61a.33.33,0,0,0,.33-.33V317a.34.34,0,0,0-.35-.33h-.6a.34.34,0,0,0-.34.33v.58A.35.35,0,0,0,282.08,317.87Z"/><path class="cls-7" d="M279.14,320.71H280a.22.22,0,0,0,.22-.22v-.83a.22.22,0,0,0-.23-.22h-.84a.22.22,0,0,0-.22.22v.83A.22.22,0,0,0,279.14,320.71Z"/><path class="cls-7" d="M280.33,318.41a.15.15,0,0,0-.16.16v.36a.17.17,0,0,0,.17.16h.37a.16.16,0,0,0,.17-.16v-.36a.16.16,0,0,0-.17-.16Z"/><path class="cls-7" d="M283.44,316.46h.39a.16.16,0,0,0,.17-.17v-.37a.17.17,0,0,0-.18-.16h-.39a.17.17,0,0,0-.17.17v.37A.18.18,0,0,0,283.44,316.46Z"/><path class="cls-7" d="M277.45,316.26h.37a.16.16,0,0,0,.16-.16v-.36a.17.17,0,0,0-.17-.15h-.37a.16.16,0,0,0-.16.16v.35A.16.16,0,0,0,277.45,316.26Z"/><polygon class="cls-7" points="282.03 316.96 280.57 315.59 280.68 315.49 282.13 316.86 282.03 316.96"/><polygon class="cls-7" points="279.59 320.24 280.47 318.57 280.6 318.63 279.72 320.31 279.59 320.24"/><polygon class="cls-7" points="277.53 315.8 278.98 316.99 278.88 317.1 277.44 315.9 277.53 315.8"/><polygon class="cls-7" points="279.8 317.67 280.62 318.9 280.5 318.97 279.68 317.74 279.8 317.67"/><polygon class="cls-7" points="282.19 317.25 283.63 316.06 283.73 316.17 282.29 317.36 282.19 317.25"/><path class="cls-7" d="M282.54,325.22Z"/><path class="cls-7" d="M286.49,321.68l-3.78,4.14-.17-.6h0l-.12-.36c-.09-.23-.19-.47-.29-.7l-.15-.32c-.08-.15-.16-.31-.25-.46a4.32,4.32,0,0,1-.4-4.2,2,2,0,0,1,2.58-.67c1,.33,1.84.95,2.83,1.28.49.16,1.38.34,1.77-.1a2.44,2.44,0,0,1-1.71-.32c.08,0,.7-.36.76-.39a4.63,4.63,0,0,1,2.19-.75,2.11,2.11,0,0,1,1.87,1.46h0l.12.34-3.2,3.46Z"/><path class="cls-7" d="M291.31,323.27l-.22.45a5.58,5.58,0,0,0-.41.94,6.46,6.46,0,0,0-.27,1.25c-.07.57,0,1.15-.05,1.73s-.29,1.79-1,1.89-.9-.57-1-1a6.41,6.41,0,0,0-.36-1.07,2.3,2.3,0,0,0-1-1.32c-.82-.32-1.33.47-1.51,1.12a5.14,5.14,0,0,1-.61,1.93c-.5.62-1.12.11-1.46-.43a3.87,3.87,0,0,1-.45-1.73l3.61-3,2.18,1.92Z"/><polygon class="cls-7" points="281.04 328.14 286.52 322.12 288.58 323.95 292.59 319.6 292.19 319.26 294.09 318.97 293.97 320.84 293.62 320.54 288.68 325.52 286.5 323.6 281.04 328.14"/></svg>