<svg xmlns="http://www.w3.org/2000/svg" viewBox="0 0 500 500"><g id="freepik--Shadow--inject-261"><ellipse id="freepik--path--inject-261" cx="250" cy="416.24" rx="193.89" ry="11.32" style="fill:#f5f5f5"></ellipse></g><g id="freepik--Padlock--inject-261"><path d="M377.22,123.29H370.7v-20a13.87,13.87,0,0,0-27.74,0v20h-6.52v-20a20.39,20.39,0,0,1,40.78,0Z" style="fill:#263238"></path><g style="opacity:0.30000000000000004"><path d="M377.22,123.29H370.7v-20a13.87,13.87,0,0,0-27.74,0v20h-6.52v-20a20.39,20.39,0,0,1,40.78,0Z" style="fill:#fff"></path></g><path d="M384.69,118.2v32.73a3.8,3.8,0,0,1-3.8,3.8H332.75a3.79,3.79,0,0,1-3.78-3.8V118.2a3.79,3.79,0,0,1,3.78-3.8h48.14a3.65,3.65,0,0,1,1.8.46A3.77,3.77,0,0,1,384.69,118.2Z" style="fill:#0096FA"></path><path d="M382.69,114.86v32.07a3.79,3.79,0,0,1-3.8,3.79H330.75a3.7,3.7,0,0,1-1.78-.45V118.2a3.79,3.79,0,0,1,3.78-3.8h48.14A3.65,3.65,0,0,1,382.69,114.86Z" style="fill:#fff;isolation:isolate;opacity:0.2"></path><path d="M364,130.46a7.17,7.17,0,1,0-9.67,6.82L354,146h5.73l-.85-8.55A7.27,7.27,0,0,0,364,130.46Z" style="opacity:0.5"></path></g><g id="freepik--speech-bubble--inject-261"><polygon points="127.37 139.57 130.69 150.24 134 139.57 127.37 139.57" style="fill:#0096FA"></polygon><rect x="94.95" y="114.08" width="71.47" height="28.75" rx="8.59" style="fill:#0096FA"></rect><path d="M111.75,128.44l1.88,1.06-.49.86-1.91-1.12,0,2.15h-1v-2.15l-1.91,1.12-.49-.86,1.9-1.06-1.9-1,.49-.88,1.91,1.12V125.5h1l0,2.13,1.91-1.12.49.88Z" style="fill:#fff"></path><path d="M118.39,128.44l1.88,1.06-.49.86-1.91-1.12v2.15h-.94v-2.15L115,130.36l-.49-.86,1.9-1.06-1.9-1,.49-.88,1.91,1.12V125.5h.94v2.13l1.91-1.12.49.88Z" style="fill:#fff"></path><path d="M125,128.44l1.88,1.06-.49.86-1.91-1.12v2.15h-1l0-2.15-1.91,1.12-.49-.86,1.89-1.06-1.89-1,.49-.88,1.91,1.12,0-2.13h1v2.13l1.91-1.12.49.88Z" style="fill:#fff"></path><path d="M131.67,128.44l1.88,1.06-.49.86-1.91-1.12v2.15h-.95l0-2.15-1.91,1.12-.49-.86,1.89-1.06-1.89-1,.49-.88,1.91,1.12,0-2.13h.95v2.13l1.91-1.12.49.88Z" style="fill:#fff"></path><path d="M138.31,128.44l1.88,1.06-.49.86-1.92-1.12,0,2.15h-1l0-2.15L135,130.36l-.5-.86,1.9-1.06-1.9-1,.5-.88,1.91,1.12,0-2.13h1l0,2.13,1.92-1.12.49.88Z" style="fill:#fff"></path><path d="M144.94,128.44l1.89,1.06-.49.86-1.92-1.12,0,2.15h-.95l0-2.15-1.92,1.12-.49-.86,1.9-1.06-1.9-1,.49-.88,1.92,1.12,0-2.13h.95l0,2.13,1.92-1.12.49.88Z" style="fill:#fff"></path><path d="M151.58,128.44l1.88,1.06-.49.86-1.91-1.12,0,2.15h-1v-2.15l-1.91,1.12-.49-.86,1.9-1.06-1.9-1,.49-.88,1.91,1.12V125.5h1l0,2.13,1.91-1.12.49.88Z" style="fill:#fff"></path></g><g id="freepik--Character--inject-261"><path d="M174.07,214.07l6.1-3.95-6.87-4.22s-5.23,3.85-3.13,6.46Z" style="fill:#b55b52"></path><polygon points="183.3 203.63 176.16 202.01 173.3 205.9 180.17 210.12 183.3 203.63" style="fill:#b55b52"></polygon><path d="M149,201.25c3.86,5.84,7.73,12.94,13,17.49.1.08.06,0-.33,0-.2.05-.1.15.31,0a10.69,10.69,0,0,0,3.11-2.68,51.65,51.65,0,0,0,5.2-7.59c.07-.11,0,0,0,.12a2,2,0,0,0,0,.55c.09.09-.23-.17.39,1.2a2.66,2.66,0,0,0,2.73,1.13,2.44,2.44,0,0,0,1.59-1.15s0,0,0,0a4.3,4.3,0,0,0-.42.59L170.1,209a4,4,0,0,1,.76-1.75,2.66,2.66,0,0,1,1.37-.82,2.69,2.69,0,0,1,2.75,1.14c.62,1.38.31,1.12.4,1.22a3.69,3.69,0,0,1-.09.95c-1.57,6.67-5.67,17.66-14.17,17.72-6-.55-10.55-7.14-13.92-11.3a103.24,103.24,0,0,1-6.6-10l8.35-4.9Z" style="fill:#b55b52"></path><path d="M145.92,196.86c4,1.32,12.11,19.75,12.11,19.75l-13.78,6.54S141.45,208.67,142,204A11,11,0,0,1,145.92,196.86Z" style="fill:#0096FA"></path><path d="M145.92,196.86c4,1.32,12.11,19.75,12.11,19.75l-13.78,6.54S141.45,208.67,142,204A11,11,0,0,1,145.92,196.86Z" style="fill:#fff;opacity:0.7000000000000001"></path><polygon points="162.12 410.53 155.1 412.52 153.43 401.59 152.53 395.75 159.55 393.76 160.75 401.59 162.12 410.53" style="fill:#b55b52"></polygon><polygon points="121.76 411.1 114.52 412.06 114.45 401.59 114.4 395.08 121.65 394.14 121.7 401.59 121.76 411.1" style="fill:#b55b52"></polygon><polygon points="121.65 394.14 121.7 401.59 114.45 401.59 114.4 395.08 121.65 394.14" style="opacity:0.2"></polygon><polygon points="160.75 401.59 153.43 401.59 152.53 395.75 159.55 393.76 160.75 401.59" style="opacity:0.2"></polygon><path d="M162,409.43l-8-.21a.64.64,0,0,0-.64.48l-1.67,6.42a1,1,0,0,0,1,1.32c2.88,0,7,0,10.65.07,4.23.12,6.92-.09,11.88,0,3,.08,3.93-2.91,2.69-3.22-5.67-1.4-9.37-1.12-14.2-4.28A3.34,3.34,0,0,0,162,409.43Z" style="fill:#263238"></path><path d="M162.61,410.32a.17.17,0,0,1,.09-.18c.34-.16,3.33-1.57,4.2-1.05a.54.54,0,0,1,.27.47,1,1,0,0,1-.36.83c-.82.68-2.9.34-4.07.07h0A.16.16,0,0,1,162.61,410.32Zm.71-.08c1.61.31,2.81.27,3.27-.12a.6.6,0,0,0,.23-.54.2.2,0,0,0-.1-.19l-.06,0C166.11,409.16,164.5,409.72,163.32,410.24Z" style="fill:#0096FA"></path><path d="M162.67,410.43a.14.14,0,0,1-.06-.15,4.87,4.87,0,0,1,1.23-2.77,1.24,1.24,0,0,1,1-.27c.47.06.6.3.63.5.1.82-1.7,2.35-2.6,2.72a.24.24,0,0,1-.12,0Zm2.09-2.85a.93.93,0,0,0-.71.2,4,4,0,0,0-1,2.21c.92-.51,2.15-1.71,2.08-2.21,0,0,0-.11-.15-.16Z" style="fill:#0096FA"></path><path d="M121.47,409.43l-8-.21a.64.64,0,0,0-.64.48l-1.68,6.42a1.05,1.05,0,0,0,1,1.32c2.87,0,7,0,10.65.07,4.23.12,6.91-.09,11.87,0,3,.08,3.94-2.91,2.69-3.22-5.66-1.4-9.37-1.12-14.19-4.28A3.37,3.37,0,0,0,121.47,409.43Z" style="fill:#263238"></path><path d="M122,410.32a.17.17,0,0,1,.1-.18c.34-.16,3.32-1.57,4.19-1.05a.54.54,0,0,1,.27.47,1,1,0,0,1-.35.83c-.83.68-2.91.34-4.08.07h0A.18.18,0,0,1,122,410.32Zm.72-.08c1.6.31,2.81.27,3.27-.12a.62.62,0,0,0,.23-.54.22.22,0,0,0-.11-.19l-.06,0C125.55,409.16,123.94,409.72,122.76,410.24Z" style="fill:#0096FA"></path><path d="M122.11,410.43a.15.15,0,0,1-.07-.15,4.9,4.9,0,0,1,1.24-2.77,1.23,1.23,0,0,1,1-.27c.47.06.6.3.62.5.11.82-1.7,2.35-2.59,2.72a.29.29,0,0,1-.13,0Zm2.09-2.85a.92.92,0,0,0-.71.2,4.08,4.08,0,0,0-1,2.21c.92-.51,2.15-1.71,2.09-2.21a.21.21,0,0,0-.16-.16A.61.61,0,0,0,124.2,407.58Z" style="fill:#0096FA"></path><path d="M106.83,252c-3.84,16.62,2.74,147.39,2.74,147.39h12.72l5.44-109,20,109,13.6-1c-8.89-84.42-16.74-134.82-16.74-134.82v-6.37Z" style="fill:#263238"></path><path d="M161.35,398.37l-13.6,1L132,313.57l-4.26-23.19-5.44,109H109.58S103,268.59,106.83,252l37.8,5.21,0,6.37S152.46,314,161.35,398.37Z" style="fill:#fff;opacity:0.2"></path><path d="M106,195.79a160.19,160.19,0,0,1,2.23,23.74c.13,5.55,0,10.83-.19,15.61-.5,11.21-1.58,19.69-1.53,22.6l38.16.68c9.1-39.9,1.28-61.56,1.28-61.56a75.92,75.92,0,0,0-9-1.92q-1-.13-2-.24a141.37,141.37,0,0,0-16.22-.3c-1,0-2.07.09-3.08.17C110.55,195,106,195.79,106,195.79Z" style="fill:#0096FA"></path><path d="M136.19,196s-2.27,3.29-4.09,3.52c-2.58.35-12-5.42-12-5.42,2.18-1.61,3.25-5.12,3.72-8.83a50.34,50.34,0,0,0,.19-9.07l8.81,9.58c-1.16,3-1.85,6.2.43,8.45h0A7.88,7.88,0,0,0,136.19,196Z" style="fill:#b55b52"></path><path d="M133.23,194.2a25.11,25.11,0,0,1-9.43-9,50.34,50.34,0,0,0,.19-9.07l8.81,9.58C131.64,188.74,131,192,133.23,194.2Z" style="opacity:0.2"></path><path d="M143,167.56c.75,2.77,0,8.39-3.72,6.39S141.75,162.78,143,167.56Z" style="fill:#263238"></path><path d="M123.12,170.41c-.73,7-1.51,11.1,1.42,15.23,4.42,6.2,13.57,4.35,16.38-2.34,2.54-6,3.3-16.5-3.07-20.34A9.75,9.75,0,0,0,123.12,170.41Z" style="fill:#b55b52"></path><path d="M128.22,166.79l.35-7.87s-8.36-1-8.17,3.32c-4.74,2.1-2.86,9.41,3.22,13.22,3.54-2.58,3.43-9.19,3.43-9.19C127.41,166.45,127.81,166.62,128.22,166.79Z" style="fill:#263238"></path><path d="M119.47,175.76a6.63,6.63,0,0,0,2.64,4.38c1.9,1.38,3.69-.14,3.85-2.36.15-2-.66-5.13-2.9-5.63A3.06,3.06,0,0,0,119.47,175.76Z" style="fill:#b55b52"></path><path d="M133.39,174c-.1.57.13,1.07.5,1.13s.75-.35.84-.92-.13-1.07-.5-1.13S133.48,173.43,133.39,174Z" style="fill:#263238"></path><path d="M139.81,175c-.09.57.14,1.08.51,1.13s.75-.35.84-.92-.13-1.07-.5-1.13S139.91,174.44,139.81,175Z" style="fill:#263238"></path><path d="M137.72,175a20,20,0,0,0,2,5.1,3.42,3.42,0,0,1-2.78,0Z" style="fill:#a02724"></path><path d="M133.53,181.8a4.89,4.89,0,0,0,.73.17.17.17,0,0,0,.19-.14.17.17,0,0,0-.14-.2,4.54,4.54,0,0,1-3.38-2.32.16.16,0,0,0-.22-.09.17.17,0,0,0-.09.22A4.71,4.71,0,0,0,133.53,181.8Z" style="fill:#263238"></path><path d="M131.75,171.62a.32.32,0,0,0,.33-.08,2.76,2.76,0,0,1,2.33-.78.33.33,0,1,0,.15-.65,3.34,3.34,0,0,0-2.94.95.34.34,0,0,0,0,.48A.37.37,0,0,0,131.75,171.62Z" style="fill:#263238"></path><path d="M143,173.23a.31.31,0,0,0,.19,0,.34.34,0,0,0,.23-.42,3.31,3.31,0,0,0-2.09-2.25.35.35,0,0,0-.42.23.34.34,0,0,0,.23.42,2.55,2.55,0,0,1,1.63,1.8A.34.34,0,0,0,143,173.23Z" style="fill:#263238"></path><path d="M120.4,162.24s-4.32-4.29,10.34-3.9,17.1,8.61,10.38,10.52l-.3-1.34a9.12,9.12,0,0,1-7.52.38l1.06-.66S124.35,168.26,120.4,162.24Z" style="fill:#263238"></path><path d="M132.1,199.49s-1.87,2.16-4,4.29c-3.11-1.57-10.39-5.78-10-9.67.43-1.13,3.39-1.85,3.39-1.85S124.63,196.45,132.1,199.49Z" style="fill:#0096FA"></path><path d="M132.1,199.49a20.73,20.73,0,0,1,4,4.29c2.29-1.48,1.14-8.72.3-9.52a8.17,8.17,0,0,0-3.95-1A6.68,6.68,0,0,1,132.1,199.49Z" style="fill:#0096FA"></path><g style="opacity:0.5"><path d="M132.1,199.49s-1.87,2.16-4,4.29c-3.11-1.57-10.39-5.78-10-9.67.43-1.13,3.39-1.85,3.39-1.85S124.63,196.45,132.1,199.49Z" style="fill:#fff"></path><path d="M132.1,199.49a20.73,20.73,0,0,1,4,4.29c2.29-1.48,1.14-8.72.3-9.52a8.17,8.17,0,0,0-3.95-1A6.68,6.68,0,0,1,132.1,199.49Z" style="fill:#fff"></path></g><path d="M132,313.57l-4.26-23.19.82-12.27S134.39,299.39,132,313.57Z" style="opacity:0.2"></path><path d="M110,206.38c-3.7,6.17-9.43,15-12.57,21.27-1.67,3.55-2.19,7.35-3.1,11.18-.87,4.09-1.74,8.26-2.7,12.38l-4.78-.42c-.17-4.33-.13-8.62.13-12.95.33-4.51.57-9.38,2.27-13.66,3.38-8.23,7.83-15.59,12.6-23l8.15,5.22Z" style="fill:#b55b52"></path><path d="M106,195.79c-5.37,1.39-15,20.69-15,20.69l11.41,7.39,10.29-10a24.73,24.73,0,0,0-.65-10.85C110.38,197,106,195.79,106,195.79Z" style="fill:#0096FA"></path><path d="M106,195.79c-5.37,1.39-15,20.69-15,20.69l11.41,7.39,10.29-10a24.73,24.73,0,0,0-.65-10.85C110.38,197,106,195.79,106,195.79Z" style="fill:#fff;opacity:0.7000000000000001"></path><path d="M95.58,209.63H211.12a4.74,4.74,0,0,1,4.74,4.74V217a4.74,4.74,0,0,1-4.74,4.74H95.58a0,0,0,0,1,0,0V209.63A0,0,0,0,1,95.58,209.63Z" transform="translate(-108.04 181) rotate(-46.68)" style="fill:#263238"></path><path d="M95.58,209.63H211.12a4.74,4.74,0,0,1,4.74,4.74V217a4.74,4.74,0,0,1-4.74,4.74H95.58a0,0,0,0,1,0,0V209.63A0,0,0,0,1,95.58,209.63Z" transform="translate(-108.04 181) rotate(-46.68)" style="fill:#fff;isolation:isolate;opacity:0.6000000000000001"></path><path d="M196.6,171.59l1.33,1.25a4.73,4.73,0,0,1,.2,6.69L118.86,263.6l-1.32-1.25,79.27-84.07A4.73,4.73,0,0,0,196.6,171.59Z" style="opacity:0.2"></path><polygon points="171.31 204.14 186 218 187.91 215.97 186.01 214.18 189.03 210.97 187.92 209.92 192.46 205.11 193.57 206.16 196.41 203.15 198.31 204.95 200.28 202.85 199.17 201.8 202.01 198.78 199.78 196.68 201.64 194.71 204.99 197.86 208.39 194.26 193.7 180.4 171.31 204.14" style="fill:#263238"></polygon><polygon points="171.31 204.14 186 218 187.91 215.97 186.01 214.18 189.03 210.97 187.92 209.92 192.46 205.11 193.57 206.16 196.41 203.15 198.31 204.95 200.28 202.85 199.17 201.8 202.01 198.78 199.78 196.68 201.64 194.71 204.99 197.86 208.39 194.26 193.7 180.4 171.31 204.14" style="fill:#fff;isolation:isolate;opacity:0.6000000000000001"></polygon><g style="opacity:0.2"><rect x="184.91" y="215.45" width="2.78" height="1.82" transform="translate(-98.93 203.47) rotate(-46.68)" style="isolation:isolate;opacity:0.6000000000000001"></rect><polygon points="193.57 206.16 192.46 205.1 187.92 209.92 189.03 210.97 186.01 214.18 184.68 212.93 187.71 209.72 186.59 208.67 191.13 203.85 192.25 204.91 195.08 201.9 196.41 203.15 193.57 206.16" style="isolation:isolate;opacity:0.6000000000000001"></polygon><polygon points="197.84 200.54 200.69 197.53 202.02 198.78 199.17 201.8 200.29 202.85 198.31 204.95 196.99 203.7 198.96 201.6 197.84 200.54" style="isolation:isolate;opacity:0.6000000000000001"></polygon><rect x="198.69" y="194.15" width="2.71" height="1.82" transform="translate(-79.12 206.78) rotate(-46.68)" style="isolation:isolate;opacity:0.6000000000000001"></rect><rect x="203.55" y="194.52" width="4.96" height="1.82" transform="translate(-77.51 211.26) rotate(-46.68)" style="isolation:isolate;opacity:0.6000000000000001"></rect></g><rect x="161.47" y="182.56" width="37.54" height="14.24" rx="1.06" transform="translate(-81.42 190.68) rotate(-46.68)" style="fill:#263238"></rect><path d="M119.32,290.77h0a20.47,20.47,0,0,1-28.94.85l-6.64-6.26a20.47,20.47,0,0,1-.85-28.94h0a20.48,20.48,0,0,1,29-.85l6.63,6.26A20.47,20.47,0,0,1,119.32,290.77Z" style="fill:#263238"></path><path d="M111.69,283.57h0a10.19,10.19,0,0,1-14.41.43L91,278a10.19,10.19,0,0,1-.42-14.41h0a10.17,10.17,0,0,1,14.4-.42l6.34,6A10.19,10.19,0,0,1,111.69,283.57Z" style="fill:#fff"></path><rect x="161.47" y="182.56" width="37.54" height="14.24" rx="1.06" transform="translate(-81.42 190.68) rotate(-46.68)" style="fill:#fff;isolation:isolate;opacity:0.5"></rect><g style="isolation:isolate;opacity:0.5"><path d="M119.32,290.77h0a20.47,20.47,0,0,1-28.94.85l-6.64-6.26a20.47,20.47,0,0,1-.85-28.94h0a20.48,20.48,0,0,1,29-.85l6.63,6.26A20.47,20.47,0,0,1,119.32,290.77Z" style="fill:#fff"></path><path d="M111.69,283.57h0a10.19,10.19,0,0,1-14.41.43L91,278a10.19,10.19,0,0,1-.42-14.41h0a10.17,10.17,0,0,1,14.4-.42l6.34,6A10.19,10.19,0,0,1,111.69,283.57Z" style="fill:#fff"></path></g><path d="M194.87,177.68l2.66,2.5a1.06,1.06,0,0,1,0,1.51l-24.3,25.76a1.05,1.05,0,0,1-1.5,0l-2.65-2.5a1.06,1.06,0,0,0,1.49,0l24.3-25.77A1.05,1.05,0,0,0,194.87,177.68Z" style="opacity:0.2"></path><g style="opacity:0.2"><path d="M103,261.32l2,1.87A10.2,10.2,0,0,0,91,278l-2-1.88a10.19,10.19,0,0,1,14-14.83Z"></path><path d="M116.49,260l2,1.88a20.48,20.48,0,0,1-28.1,29.79l-2-1.87a20.48,20.48,0,0,0,28.1-29.8Z"></path></g><g style="opacity:0.2"><path d="M103,261.32l2,1.87A10.2,10.2,0,0,0,91,278l-2-1.88a10.19,10.19,0,0,1,14-14.83Z"></path><path d="M103,261.32l2,1.87A10.2,10.2,0,0,0,91,278l-2-1.88a10.19,10.19,0,0,1,14-14.83Z"></path></g><polygon points="87.78 262.21 95.13 260.37 94.31 255 85.35 256.81 87.78 262.21" style="fill:#b55b52"></polygon><path d="M87.06,249.78l-1.71,7,9-1.81s.12-6.29-3.22-6.7Z" style="fill:#b55b52"></path></g></svg>