<svg id="Layer_1" data-name="Layer 1" xmlns="http://www.w3.org/2000/svg" viewBox="0 0 150 150.45"><defs><style>.cls-1{fill:#fff;}</style></defs><path class="cls-1" d="M124,127.11c8.5-15.28,10.26-31.08,4.79-47.47a55.26,55.26,0,0,0-21-28.15,56.81,56.81,0,0,0-67.72,1.36A55.08,55.08,0,0,0,18.85,87.27c-2.73,14-.16,27.24,6.84,39.94H12.52c-1.57,0-3.14,0-4.71,0a7.9,7.9,0,0,1-8-7.75c0-.45,0-.91,0-1.37V28h150v90.21c0,5.9-3.05,9-8.9,9q-7.37,0-14.73,0C125.53,127.21,124.9,127.15,124,127.11Z"/><path class="cls-1" d="M56.66,5.11h2.41q41,0,82,0c3.24,0,6,.9,7.66,3.8a5.72,5.72,0,0,1,.9,2.56c.09,4.3,0,8.6,0,13.07-.71,0-1.34.09-2,.09q-38.27,0-76.53,0a2.92,2.92,0,0,1-2.84-1.5C64.61,17.24,60.76,11.41,56.66,5.11ZM104,16.49h19.59a4.15,4.15,0,0,0,1.74-.1c.54-.29,1.28-1,1.24-1.42a2.84,2.84,0,0,0-1.24-1.66c-.36-.25-1-.08-1.54-.08H84.37c-.53,0-1.18-.17-1.54.08A2.9,2.9,0,0,0,81.55,15c0,.44.72,1.13,1.27,1.42a4,4,0,0,0,1.74.11Z"/><path class="cls-1" d="M-.07,24.49c0-5.65-.27-11.2.09-16.71.26-4,3.75-6.68,7.9-6.69q20.42-.06,40.82,0a2.6,2.6,0,0,1,1.9.91c4.77,7.19,9.45,14.43,14.15,21.66a5.82,5.82,0,0,1,.34.81ZM28.34,14.41v0c.39,0,.88.15,1.15,0a19.58,19.58,0,0,0,1.84-1.59c-.6-.55-1.11-1.35-1.81-1.58a4.54,4.54,0,0,0-2.68,0c-.59.19-1.36,1-1.36,1.5s.75,1.21,1.33,1.58C27.17,14.6,27.82,14.41,28.34,14.41Zm-17.12.06v0c.46,0,1,.17,1.35,0,.63-.41,1.53-1,1.56-1.56s-.85-1.41-1.47-1.58a6.59,6.59,0,0,0-3.09,0,2,2,0,0,0-1.19,1.46,2.35,2.35,0,0,0,1.11,1.56C9.93,14.59,10.63,14.44,11.22,14.47Zm34.18-3.3h-1c-1.1,0-2.14.45-1.86,1.64.16.66,1.17,1.26,1.93,1.58a2.85,2.85,0,0,0,2.09,0,7.93,7.93,0,0,0,1.8-1.6,19.46,19.46,0,0,0-1.84-1.58C46.28,11,45.79,11.17,45.4,11.17Z"/><path class="cls-1" d="M76.6,96.3v-21H98c.86,0,1.72-.12,1.87,1.13.75,6.41,1.53,12.82,2.28,19.24a2.22,2.22,0,0,1-.17.65Z"/><path class="cls-1" d="M76.59,120.8v-21h25.54c-.12,2.46-.11,4.93-.41,7.36-.51,4.08-1.2,8.13-1.91,12.19-.09.53-.75,1.38-1.15,1.39C91.35,120.82,84,120.8,76.59,120.8Z"/><path class="cls-1" d="M47.15,96.27c.86-7.09,1.7-14,2.54-20.9H73v20.9Z"/><path class="cls-1" d="M73,99.78v20.9H50.1a88.51,88.51,0,0,1-2.52-20.9Z"/><path class="cls-1" d="M128.51,96.34H105.78c-.82-7-1.63-14-2.45-21h16.79c3.52,0,3.52,0,4.79,3.32A54.11,54.11,0,0,1,128.51,96.34Z"/><path class="cls-1" d="M128.51,99.77a52.35,52.35,0,0,1-4.65,20,2,2,0,0,1-1.41,1c-6.4.06-12.8,0-19.13,0,.82-7,1.63-14,2.46-21Z"/><path class="cls-1" d="M21.2,96.29a49.27,49.27,0,0,1,3-16.36c1.65-4.65,1.69-4.64,6.59-4.64H46.29c-.82,7.07-1.62,14-2.43,21Z"/><path class="cls-1" d="M43.86,99.77l2.41,20.88a7.38,7.38,0,0,1-1.08.14c-5.89,0-11.78,0-17.67,0a2.34,2.34,0,0,1-1.78-1,50.3,50.3,0,0,1-4.54-19.34,3.59,3.59,0,0,1,.16-.66Z"/><path class="cls-1" d="M98.62,71.9h-22V44.52a14.28,14.28,0,0,1,7,2.71,29,29,0,0,1,8,8.75A60.23,60.23,0,0,1,98.62,71.9Z"/><path class="cls-1" d="M76.59,151.4V124.15H98.42C97,136.36,85.21,151.2,76.59,151.4Z"/><path class="cls-1" d="M51.23,71.82C52.93,59.38,63.84,45.66,73,44.53V71.82Z"/><path class="cls-1" d="M51,124.12H73v27.4A13.45,13.45,0,0,1,66.21,149a28.89,28.89,0,0,1-8.12-8.68A60.47,60.47,0,0,1,51,124.12Z"/><path class="cls-1" d="M87.92,45.87A54.66,54.66,0,0,1,121.7,71.76a13.63,13.63,0,0,1-1.58.21c-5.49,0-11,0-16.47,0-1,0-1.62-.22-2-1.36C99,61.5,95,53.06,88.05,46.32,88,46.26,88,46.12,87.92,45.87Z"/><path class="cls-1" d="M28,71.69C35.75,58.51,46.89,50,61.17,46.05c-2.57,3.69-5.6,7.33-7.81,11.42s-3.59,8.65-5.42,13c-.26.62-1,1.46-1.57,1.47-5.88.1-11.77,0-17.65,0A2.94,2.94,0,0,1,28,71.69Z"/><path class="cls-1" d="M121.84,124.05c-8,13.5-19.11,22-34,26.17a3.48,3.48,0,0,1,.43-.74C95,143,98.83,135,101.43,126.19c.48-1.63,1.16-2.24,2.95-2.2C110,124.13,115.72,124.05,121.84,124.05Z"/><path class="cls-1" d="M28.08,124.09H47.46c2.9,9.54,6.66,18.66,14.29,25.7C52.35,150.08,32.6,135,28.08,124.09Z"/></svg>