<?xml version="1.0" encoding="UTF-8"?><svg id="Layer_1" xmlns="http://www.w3.org/2000/svg" viewBox="0 0 51.09 48.93"><defs><style>.cls-1{fill:#00a2ff;}</style></defs><path class="cls-1" d="M.88,48.06c.68-3.06,1.39-6.03,1.98-9.03,.22-1.11,.73-1.93,1.56-2.72C16.02,25.28,27.59,14.22,39.16,3.16c2.08-1.99,4.94-2.47,7.27-1.06,2.82,1.72,4.08,4.19,3.12,7.04-.29,.84-.8,1.55-1.45,2.17-11.94,11.41-23.88,22.81-35.81,34.23-.23,.22-.48,.34-.78,.4-3.5,.7-7.01,1.41-10.61,2.13Zm4.75-10.09c.6,.56,1.21,1.06,1.73,1.64,.37,.41,.56,.32,.92-.02,8.84-8.47,17.69-16.92,26.55-25.38,1.35-1.29,2.68-2.58,4.04-3.85,.29-.27,.36-.44,.02-.72-.46-.38-.89-.78-1.28-1.23-.38-.43-.61-.41-1.03,0-8.3,7.96-16.62,15.9-24.94,23.84-1.99,1.9-3.98,3.79-6,5.72Zm5.9,5.58c.13-.17,.23-.36,.38-.5,10.09-9.64,20.18-19.28,30.27-28.92,.12-.12,.23-.25,.37-.35,.29-.21,.3-.38,.02-.63-.46-.4-.93-.81-1.33-1.27-.39-.44-.63-.39-1.04,0-9.88,9.46-19.77,18.91-29.67,28.35-.41,.39-.85,.76-1.27,1.15l2.27,2.16ZM43.71,3.31c-1.11-.02-1.95,.24-2.62,.84-.78,.69-1.5,1.43-2.26,2.13-.2,.18-.22,.3,0,.49,1.76,1.67,3.52,3.35,5.27,5.04,.23,.22,.35,.2,.56-.01,.6-.6,1.22-1.17,1.83-1.76,1.28-1.23,1.63-2.6,1.03-3.99-.66-1.53-2.42-2.74-3.8-2.74ZM4.78,40.11l-1.19,5.38,5.62-1.15-4.43-4.23Z"/><path class="cls-1" d="M36.4,27.95c-.08,.12-.14,.28-.26,.39-1.2,1.16-2.43,2.3-3.61,3.47-.31,.31-.49,.29-.75-.02-.32-.38-.99-.65-.96-1.07,.03-.36,.61-.7,.96-1.04,1.46-1.41,2.92-2.82,4.37-4.24,.28-.27,.42-.26,.69,0,4.67,4.48,9.35,8.95,14.03,13.41,.28,.27,.33,.41,.02,.7-3.21,3.04-6.4,6.09-9.59,9.16-.32,.3-.46,.24-.74-.02-4.64-4.45-9.28-8.89-13.95-13.32-.36-.35-.33-.52,.03-.8,.37-.29,.68-.84,1.05-.87,.39-.03,.7,.54,1.03,.86,3.93,3.75,7.87,7.5,11.78,11.27,.35,.33,.52,.36,.89,0,2.14-2.08,4.29-4.14,6.47-6.18,.4-.38,.36-.56-.02-.89-.73-.64-1.43-1.32-2.11-2.01-.27-.27-.42-.29-.7-.01-1.21,1.18-2.45,2.33-3.67,3.51-.27,.26-.44,.32-.71,.01-.33-.38-.99-.71-1-1.07-.01-.35,.62-.72,.98-1.07,.96-.92,1.92-1.85,2.89-2.76,.28-.26,.37-.41,.03-.71-.79-.7-1.55-1.44-2.3-2.18-.23-.23-.37-.23-.6,0-.75,.74-1.53,1.46-2.28,2.2-.24,.23-.4,.32-.66,.03-.35-.39-.98-.72-1.02-1.12-.03-.32,.63-.72,.99-1.07,.51-.5,1.04-1,1.55-1.5,.1-.1,.31-.19,.1-.39-.88-.83-1.75-1.66-2.62-2.49-.05-.04-.1-.07-.29-.2Z"/><path class="cls-1" d="M10.13,0c.14,.13,.28,.25,.41,.38,4.04,3.86,8.07,7.71,12.11,11.57,.63,.6,1.24,1.21,1.89,1.79,.27,.24,.25,.39-.01,.63-1.3,1.18-2.58,2.39-3.85,3.59-.2,.19-.31,.23-.55,.02-1.27-1.12-1.28-1.11-.06-2.28,.5-.48,1-.97,1.52-1.44,.2-.18,.21-.3,0-.49-.82-.77-1.63-1.54-2.42-2.33-.3-.31-.43-.07-.61,.1-1.21,1.16-2.42,2.3-3.61,3.47-.29,.29-.49,.4-.78,.02-.31-.39-1-.66-.97-1.09,.02-.36,.63-.68,.98-1.02,.98-.94,1.95-1.88,2.94-2.8,.26-.24,.27-.38,0-.63-.79-.73-1.57-1.48-2.33-2.24-.22-.22-.35-.22-.56,0-.75,.74-1.53,1.46-2.28,2.2-.26,.26-.45,.38-.74,.03-.32-.38-.97-.72-.97-1.08,0-.35,.62-.72,.98-1.07,.5-.49,1-.98,1.52-1.44,.23-.21,.29-.35,.02-.59-.81-.74-1.6-1.51-2.39-2.28-.2-.2-.32-.18-.51,0-2.27,2.18-4.55,4.36-6.84,6.53-.35,.33-.04,.45,.14,.62,4.13,3.95,8.25,7.9,12.39,11.82,.43,.4,.42,.61-.01,.98-.99,.87-.97,.89-1.9,0C9.18,18.72,4.73,14.46,.27,10.23c-.35-.34-.36-.5,0-.84C3.42,6.4,6.54,3.4,9.68,.41c.14-.13,.28-.25,.45-.41Z"/></svg>