<?xml version="1.0" encoding="UTF-8"?><svg id="Layer_1" xmlns="http://www.w3.org/2000/svg" viewBox="0 0 51.34 48.36"><defs><style>.cls-1{fill:#00a2ff;}</style></defs><path class="cls-1" d="M16.32,0c4.73,.15,9.12,2.28,12.23,6.54,.16,.22,.33,.33,.62,.36,2.03,.17,3.98,.59,5.86,1.33,.84,.33,.95,.58,.7,1.39-.23,.71-.41,1.43-.23,2.19,.21,.91,.91,1.35,1.9,1.13,.77-.17,1.44-.52,2.04-.97,.81-.61,1.02-.6,1.78,.08,1.83,1.64,3.14,3.59,4.09,5.76,.23,.52,.09,.85-.46,1.12-.75,.38-1.45,.8-1.98,1.43-.72,.87-.55,1.62,.49,2.16,.72,.38,1.52,.5,2.33,.56,.67,.05,.95,.3,.96,.9,.06,2.44-.52,4.77-1.58,7-.26,.54-.59,.66-1.23,.49-.85-.22-1.69-.45-2.59-.24-1.07,.24-1.5,.9-1.21,1.88,.21,.7,.63,1.29,1.15,1.83,.52,.54,.51,.86-.04,1.37-1.83,1.7-3.98,2.98-6.39,3.88-.62,.23-.97,.11-1.29-.46-.37-.67-.81-1.29-1.47-1.76-.98-.69-1.84-.53-2.45,.47-.41,.66-.51,1.4-.6,2.14-.08,.64-.35,.87-1.06,.86-1.18-.02-2.36-.13-3.53-.29-.26-.04-.4,0-.5,.24-.41,1.03-1.24,1.64-2.38,1.85-.4,.07-.43,.26-.47,.53-.34,2.2-1.67,3.66-3.97,4.32-3.23,.92-6.7-1.22-7-4.3-.03-.28-.07-.46-.47-.54-2.55-.54-3.48-3.15-1.79-5,.16-.18,.19-.26,0-.45-1.38-1.46-1.07-3.53,.67-4.59,.22-.13,.3-.26,.28-.5-.25-3.33-1.75-6.15-4.26-8.52-2.11-2-3.56-4.33-4.15-7.05C-1.1,10.6,2.27,3.98,9.42,1.13,11.35,.36,13.38,0,16.32,0Zm-.76,32.66c1.56,0,3.11-.01,4.67,0,.4,0,.52-.13,.53-.47,.02-.4,.06-.81,.14-1.2,.62-3.07,2.17-5.69,4.51-7.95,3.47-3.35,4.62-7.32,3.51-11.79C27.17,4.21,19.06-.09,11.53,2.09,6.02,3.69,2.73,7.18,1.85,12.46c-.54,3.22,.25,6.18,2.22,8.88,.74,1.02,1.74,1.83,2.58,2.77,2.12,2.38,3.47,5.06,3.7,8.16,.02,.33,.17,.39,.49,.39,1.57-.01,3.15,0,4.72,0ZM29.78,8.52c0,.05-.02,.08,0,.11,.76,1.67,1.18,3.41,1.23,5.21,0,.24,.14,.32,.35,.41,5.16,1.96,7.96,6.97,6.69,11.95-1.37,5.4-7.42,8.85-13.31,7.62-.61-.13-1.18-.39-1.86-.42,1.55,1.24,1.61,3.35,.14,4.64,.38,.34,.71,.72,.86,1.19,.09,.28,.28,.37,.56,.4,.86,.09,1.72,.17,2.57,.27,.25,.03,.33-.03,.37-.26,.14-.73,.37-1.44,.8-2.08,1.08-1.62,2.99-1.99,4.68-.89,.68,.44,1.2,1,1.64,1.63,.1,.15,.16,.29,.43,.17,1.62-.71,3.1-1.59,4.44-2.7,.21-.18,.13-.28,0-.43-.42-.52-.74-1.1-.94-1.72-.59-1.82,.4-3.45,2.37-3.89,.86-.19,1.71-.15,2.57,.04,.2,.04,.41,.11,.52-.15,.61-1.54,1.02-3.11,1.08-4.76,0-.21-.03-.29-.29-.33-.82-.12-1.61-.35-2.32-.76-1.73-1-2.11-2.68-.93-4.21,.49-.63,1.11-1.13,1.82-1.54,.2-.11,.25-.2,.14-.42-.75-1.47-1.69-2.83-2.89-4.03-.21-.21-.34-.17-.55-.03-.58,.38-1.2,.66-1.89,.84-2.01,.52-3.7-.34-4.19-2.15-.21-.77-.15-1.54,.03-2.31,.05-.19,.19-.42-.19-.54-1.28-.41-2.58-.73-3.93-.88Zm-2.9,24.01c.99,0,1.73-.09,2.45-.24,4.58-.96,7.86-5.1,7.25-9.48-.43-3.14-2.26-5.38-5.24-6.9-.32-.16-.46-.11-.5,.23-.43,3.1-1.85,5.74-4.22,7.98-2.05,1.94-3.43,4.23-4.02,6.89-.07,.31-.01,.46,.3,.6,1.34,.58,2.75,.88,3.98,.91Zm-11.39,1.75c-1.71,0-3.43,0-5.14,0-.69,0-1.25,.23-1.57,.81-.59,1.05,.22,2.2,1.58,2.2,3.41,.01,6.82,0,10.23,0,1.07,0,1.81-.64,1.8-1.52,0-.9-.72-1.49-1.81-1.49-1.7,0-3.39,0-5.09,0Zm.03,4.57c-1.78,0-3.57,0-5.35,0-.9,0-1.52,.57-1.54,1.39-.02,.89,.57,1.53,1.5,1.53,3.59,.01,7.17,.01,10.76,0,.9,0,1.52-.66,1.5-1.5-.02-.85-.65-1.43-1.57-1.43-1.77,0-3.53,0-5.3,0Zm-.14,7.92c1.99,.09,3.8-1.36,3.97-3.18,.02-.25-.1-.25-.3-.25-2.35,0-4.71,0-7.06,0-.27,0-.35,.04-.32,.32,.22,1.75,1.72,3.02,3.7,3.12Z"/><path class="cls-1" d="M45.41,7.17c.07,.45,.11,.9,.22,1.33,.1,.38,0,.67-.33,.9-.34,.24-.69,.16-1.03-.02-1.51-.8-3.02-1.59-4.52-2.39-.43-.23-.86-.44-1.28-.68-.56-.31-.69-.77-.27-1.21,1.52-1.62,3.05-3.23,4.61-4.82,.48-.49,1.24-.29,1.43,.35,.12,.4,.19,.82,.25,1.23,.04,.23,.13,.31,.4,.32,3.02,.04,5.86,2.2,6.38,5.23,.1,.58,.09,1.16,0,1.74-.05,.38-.24,.67-.69,.75-.45,.07-.73-.12-.95-.46-.82-1.25-2.04-1.97-3.58-2.26-.21-.04-.41-.06-.64-.01Zm-2.52-4.66c-.91,.96-1.77,1.85-2.62,2.75-.1,.11-.12,.17,.04,.25,1.11,.58,2.22,1.17,3.34,1.76,.1-.32-.09-.58-.08-.85,.02-.48,.32-.78,.84-.82,1.67-.11,3.21,.21,4.62,1.06,.08,.05,.15,.15,.29,.04-.45-1.08-1.24-1.89-2.33-2.45-.9-.46-1.88-.6-2.91-.52-.67,.05-.98-.18-1.12-.77-.03-.12-.04-.24-.07-.45Z"/><path class="cls-1" d="M49.51,46.51c.06,.39,0,.75-.43,.96-.43,.21-.77,.02-1.11-.2-.34-.23-.67-.57-1.05-.63-.4-.06-.65,.4-.99,.62-2.95,1.87-6.97,1.31-9.15-1.27-.26-.31-.45-.64-.17-1.02,.27-.37,.63-.41,1.11-.31,1.56,.33,3,.09,4.3-.81,.25-.17,.35-.27,0-.46-.38-.21-.73-.46-1.07-.72-.58-.44-.45-1.18,.27-1.37,2.2-.57,4.4-1.11,6.6-1.65,.59-.14,1.08,.16,1.13,.72,.19,2.05,.36,4.1,.54,6.14Zm-9.56-.23c.02,.19,.18,.18,.28,.21,1.94,.75,4.23,.22,5.7-1.32,.49-.51,.85-.55,1.46-.17,.09,.06,.16,.17,.31,.13l-.34-3.76-3.99,1c.27,.18,.47,.31,.66,.45,.47,.35,.52,.73,.16,1.18-.11,.14-.24,.28-.38,.41-1.05,1.04-2.36,1.64-3.87,1.87Z"/><path class="cls-1" d="M4.39,14.02c-.02-.67,.04-1.36,.22-2.04,.14-.54,.45-.77,1.05-.73,.39,.03,.78,.04,1.16-.06,.53-.15,.64-.38,.39-.83-.18-.32-.45-.57-.75-.81-.56-.44-.59-.72-.16-1.29,.83-1.12,1.84-2.09,3.05-2.87,.62-.4,.97-.35,1.44,.21,.24,.28,.51,.54,.87,.69,.43,.19,.67,.11,.8-.31,.11-.37,.16-.76,.11-1.15-.08-.57,.18-.87,.8-.99,1.49-.28,2.98-.28,4.46,0,.59,.11,.8,.34,.81,.89,0,.4-.06,.8,.09,1.2,.2,.53,.46,.63,.98,.33,.3-.17,.53-.42,.76-.67,.42-.46,.79-.51,1.33-.17,1.27,.8,2.33,1.78,3.16,2.97,.33,.48,.28,.81-.19,1.19-.34,.27-.63,.55-.83,.93-.2,.37-.05,.58,.33,.71,.41,.15,.83,.11,1.26,.1,.68-.01,.96,.21,1.08,.81,.28,1.35,.29,2.7,0,4.05-.14,.63-.42,.85-1.13,.79-.41-.03-.81,0-1.2,.13-.4,.13-.55,.37-.33,.75,.2,.35,.51,.62,.82,.88,.49,.41,.53,.72,.18,1.23-.81,1.16-1.85,2.12-3.08,2.91-.61,.39-1,.33-1.45-.2-.25-.3-.54-.55-.91-.73-.36-.17-.6-.06-.74,.28-.17,.42-.14,.86-.11,1.3,.03,.51-.24,.79-.76,.89-1.52,.3-3.05,.3-4.57,0-.62-.12-.83-.42-.75-1.03,.05-.41,0-.81-.15-1.19-.14-.36-.39-.47-.78-.28-.35,.17-.62,.42-.86,.7-.41,.49-.82,.56-1.36,.22-1.27-.8-2.33-1.78-3.16-2.97-.36-.51-.31-.82,.22-1.21,.32-.24,.62-.48,.8-.83,.22-.42,.11-.67-.39-.81-.35-.1-.72-.15-1.09-.1-.69,.09-1.01-.14-1.16-.75-.17-.7-.23-1.4-.22-2.14Zm18.8-5.22c-.08-.1-.15-.17-.21-.25-.33-.41-.74-.74-1.11-1.11-.34-.34-.57-.38-1.01-.06-1.53,1.13-3.26,.6-3.8-1.08-.11-.35,.1-.87-.33-1.03-.38-.15-.87-.06-1.31-.07-.07,0-.14,0-.21,0q-.9,.02-1.05,.84c-.3,1.71-1.93,2.4-3.54,1.52-.3-.16-.49-.61-.86-.48-.34,.12-.59,.45-.87,.7-.13,.11-.24,.23-.36,.36q-.52,.55-.07,1.15c1.05,1.4,.57,2.89-1.1,3.38-.26,.08-.54,.16-.83,.14-.31-.02-.44,.1-.43,.4,.02,.53,.03,1.07,0,1.6-.04,.47,.17,.6,.66,.64,1.25,.09,2.14,.82,2.27,1.87,.1,.75-.26,1.39-.79,1.93-.22,.22-.19,.34,0,.55,.37,.4,.77,.76,1.17,1.12,.29,.26,.49,.31,.85,.02,1.58-1.23,3.46-.63,3.9,1.2,.07,.3-.06,.7,.27,.85,.29,.14,.69,.09,1.04,.11,.23,.01,.46,0,.69,0,.47-.02,.91-.06,.83-.67-.02-.12,.04-.25,.08-.38,.26-.99,.95-1.63,1.9-1.71,.78-.06,1.46,.22,2.02,.69,.31,.27,.5,.24,.77-.02,.32-.32,.66-.64,1.01-.93,.4-.33,.43-.58,.06-1.01-1.25-1.43-.7-2.96,1.14-3.49,.36-.1,.87,.07,1.08-.32,.19-.35,.08-.77,.09-1.15,0-.27,0-.55-.03-.82-.02-.26-.12-.39-.48-.41-1.27-.06-2.2-.72-2.42-1.69-.18-.81,.24-1.47,.75-2.09,.08-.1,.17-.19,.26-.29Z"/><path class="cls-1" d="M9.57,14.13c0-3.08,2.68-5.53,6-5.52,3.23,.01,5.91,2.52,5.91,5.52,0,3.02-2.71,5.54-5.96,5.54-3.25,0-5.95-2.51-5.94-5.54Zm1.68,0c0,2.18,1.92,3.99,4.26,4,2.32,0,4.27-1.82,4.28-3.99,0-2.18-1.93-3.98-4.27-3.98-2.36,0-4.26,1.77-4.27,3.97Z"/></svg>