<?xml version="1.0" encoding="UTF-8"?><svg id="Layer_1" xmlns="http://www.w3.org/2000/svg" viewBox="0 0 54.1 51.69"><defs><style>.cls-1{fill:#00a2ff;}</style></defs><path class="cls-1" d="M8.65,30.15c-.31-1.33-.49-2.61-.54-3.9-.01-.34,.08-.44,.43-.41,.43,.03,.96-.13,1.27,.05,.31,.18,.11,.73,.15,1.11,.63,6.09,3.75,10.62,9.42,13.45,6.06,3.02,13.59,2.1,18.8-2.16,.12-.1,.24-.2,.44-.38h-.66c-3.57,0-7.14,0-10.71,0-6.42,0-11.67-4.13-12.64-10.18-.78-4.89,1.09-8.85,5.27-11.8,.3-.21,.45-.2,.63,.12,.2,.36,.63,.71,.62,1.05,0,.32-.59,.48-.9,.73-1.94,1.53-3.17,3.46-3.74,5.79-.02,.09-.03,.18-.04,.27,0,.07-.01,.14-.02,.25,.95,0,1.89,0,2.83,0,.23,0,.34-.12,.47-.25,1.16-1.1,2.31-2.21,3.47-3.31,.19-.18,.27-.35,.26-.61-.02-.83,0-1.65,0-2.48,0-.84,.3-1.11,1.19-1.12,.86,0,1.73,0,2.59,0,.24,0,.42-.06,.59-.23,.86-.83,1.72-1.66,2.59-2.47,.19-.18,.26-.36,.25-.61-.01-.86-.01-1.72,0-2.58,0-.67,.34-.99,1.04-.99,.88,0,1.77-.01,2.65,0,.3,0,.52-.06,.74-.28,.82-.81,1.66-1.61,2.51-2.4,.2-.19,.29-.38,.28-.66-.02-.84-.01-1.69,0-2.53,0-.73,.33-1.03,1.11-1.04,.86,0,1.73-.01,2.59,0,.3,0,.52-.07,.74-.29,.65-.65,1.33-1.27,1.98-1.91,.28-.27,.59-.4,1-.4,2.8,0,5.6,.01,8.4,0,.36,0,.43,.1,.43,.42,0,1.31,.01,1.31-1.34,1.31-2.29,0-4.58,0-6.87,0-.3,0-.52,.07-.74,.29-.61,.61-1.47,1.11-1.79,1.83-.31,.7-.08,1.62-.09,2.45,0,.18,0,.36,0,.54-.02,.6-.36,.93-.99,.93-.9,.01-1.8,.01-2.7,0-.3,0-.52,.07-.74,.28-.82,.81-1.66,1.61-2.51,2.4-.21,.19-.28,.38-.28,.66,.02,.84,.01,1.69,0,2.53,0,.7-.33,1.02-1.06,1.03-.88,0-1.77,0-2.65,0-.28,0-.49,.05-.69,.25-.84,.82-1.69,1.64-2.55,2.43-.21,.2-.27,.4-.26,.66,.01,.84,.01,1.69,0,2.53,0,.7-.34,1.01-1.08,1.01-.86,0-1.73,.01-2.59,0-.33,0-.55,.08-.78,.31-1.22,1.19-2.47,2.36-3.7,3.55-.34,.33-.71,.48-1.2,.47-.94-.03-1.88,0-2.82-.01-.35,0-.49,.06-.46,.43,.07,.92,.23,1.81,.5,2.69,.08,.24,.18,.34,.46,.34,1.95-.01,3.91-.01,5.86,0,.32,0,.41-.09,.4-.39-.02-.97-.01-1.94,0-2.91,0-.7,.33-1.02,1.07-1.02,1.9,0,3.79-.01,5.69,0,.37,0,.47-.09,.46-.44-.02-1.51-.01-3.01,0-4.52,0-.77,.31-1.07,1.12-1.08,1.88,0,3.76-.01,5.63,0,.36,0,.47-.07,.47-.43-.03-1.22-.01-2.44,0-3.66,0-.78,.31-1.08,1.12-1.08,1.86,0,3.72-.01,5.58,0,.4,0,.54-.07,.53-.49-.03-1.76-.01-3.52-.01-5.27,0-.85,.29-1.14,1.17-1.14,2.23,0,4.47,0,6.7,0,.84,0,1.14,.3,1.14,1.11,0,9.6,0,19.2,0,28.8,0,.8-.31,1.09-1.16,1.1-1.4,0-2.8,0-4.36,0,.49,.46,.88,.82,1.27,1.2,.57,.55,.57,.96-.01,1.52-2.44,2.34-4.88,4.67-7.33,7-.58,.55-1.01,.55-1.59,0-1.61-1.53-3.22-3.06-4.81-4.61-.25-.24-.46-.3-.77-.14-.3,.15-.62,.26-.93,.38q-1.04,.41-1.04,1.51c0,1.94,0,3.88,0,5.81,0,.84-.3,1.12-1.19,1.12-3.42,0-6.84,0-10.25,0-.88,0-1.18-.29-1.18-1.13,0-2.15,0-4.31,0-6.46,0-.33-.08-.51-.43-.62-.53-.17-1.05-.38-1.55-.62-.33-.16-.53-.07-.77,.16-1.57,1.52-3.15,3.03-4.74,4.53-.68,.65-1.06,.65-1.75-.01-2.39-2.28-4.78-4.57-7.17-6.85-.68-.65-.68-1.02,0-1.67,1.58-1.51,3.16-3.02,4.75-4.52,.25-.24,.32-.43,.16-.74-.25-.48-.47-.98-.65-1.48-.12-.34-.31-.4-.66-.4-2.25,.01-4.51,0-6.76,0-.88,0-1.18-.29-1.18-1.13,0-3.27,0-6.53,0-9.8,0-.85,.3-1.13,1.18-1.13,2.27,0,4.55,0,6.82,0,.3,0,.47-.06,.58-.35,.19-.52,.41-1.04,.67-1.53,.16-.31,.09-.5-.16-.74-1.59-1.5-3.17-3.01-4.74-4.53-.69-.66-.69-1.01,0-1.67,2.4-2.3,4.81-4.59,7.21-6.89,.63-.61,1.04-.61,1.67,0,1.6,1.52,3.19,3.04,4.77,4.57,.25,.24,.44,.31,.77,.16,.52-.24,1.06-.45,1.61-.64,.31-.1,.37-.26,.37-.55-.01-2.17,0-4.34,0-6.51,0-.85,.3-1.13,1.18-1.13,3.42,0,6.84,0,10.26,0,.88,0,1.18,.28,1.18,1.13,0,1.78,0,3.55,0,5.33,0,.34-.08,.45-.46,.45-1.36,0-1.36,0-1.36-1.3,0-1.17-.01-2.33,0-3.5,0-.3-.08-.39-.4-.39-2.74,.01-5.48,.02-8.23,0-.4,0-.4,.16-.4,.44,0,2.06,0,4.13,.01,6.19,0,.61-.24,.96-.83,1.18-1.01,.37-2.02,.77-3.01,1.19-.56,.24-.98,.15-1.41-.27-1.5-1.46-3.03-2.89-4.53-4.35-.32-.32-.48-.27-.78,.02-1.85,1.79-3.7,3.57-5.58,5.33-.32,.3-.37,.45-.02,.78,1.52,1.41,3,2.87,4.52,4.29,.45,.42,.56,.83,.29,1.39-.44,.93-.84,1.87-1.22,2.82-.23,.58-.61,.83-1.27,.82-2.14-.03-4.28,0-6.42-.02-.39,0-.5,.08-.49,.47,.02,2.57,.02,5.13,0,7.7,0,.38,.09,.47,.49,.47,2.1-.02,4.2,0,6.36,0Zm43.65-7.7c0-4.45,0-8.9,.01-13.35,0-.4-.09-.51-.52-.5-1.48,.03-2.97,.02-4.45,0-.37,0-.46,.09-.46,.44,.01,8.9,.01,17.8,0,26.7,0,.35,.09,.45,.46,.44,1.46-.02,2.93-.03,4.39,0,.47,.01,.58-.1,.58-.55-.02-4.4-.01-8.79-.01-13.19Zm-7.21,3.44c0-3.32,0-6.64,0-9.96,0-.35-.09-.45-.46-.44-1.5,.02-3,.02-4.51,0-.37,0-.46,.09-.46,.44,.01,6.6,.01,13.2,0,19.81,0,.35,.09,.45,.46,.44,1.48-.02,2.97-.03,4.45,0,.42,0,.52-.1,.52-.5-.02-3.27-.01-6.53-.01-9.8Zm-12.62,2.48c0,2.46,0,4.92,0,7.37,0,.35,.09,.45,.46,.44,1.5-.02,3-.02,4.51,0,.37,0,.46-.09,.46-.44-.01-4.88-.01-9.76,0-14.64,0-.35-.09-.45-.46-.44-1.48,.02-2.97,.03-4.45,0-.42,0-.52,.09-.52,.5,.02,2.4,.01,4.81,.01,7.21Zm-9.92,15.04c0,2.13,.01,4.17-.01,6.22,0,.4,.23,.32,.46,.32,2.4,0,4.81,0,7.21,0,.43,0,1,.14,1.25-.06,.3-.24,.09-.81,.1-1.23,.01-1.74,0-3.47,0-5.25-3.02,.69-5.99,.69-9.02,0Zm-11.67-8.17c-.13,.11-.24,.2-.34,.3-1.4,1.33-2.78,2.67-4.19,3.99-.3,.28-.24,.42,.02,.66,1.91,1.8,3.81,3.62,5.7,5.44,.25,.24,.38,.28,.66,.01,1.4-1.37,2.84-2.72,4.25-4.08,.08-.08,.22-.14,.19-.3-2.57-1.53-4.66-3.53-6.28-6.02Zm19.78-3.75c0-1.45,0-2.9,0-4.36,0-.29-.02-.44-.41-.44-1.54,.03-3.08,.02-4.62,0-.32,0-.4,.09-.4,.39,.01,2.85,.01,5.7,0,8.55,0,.31,.07,.42,.42,.46,1.57,.16,3.15,.04,4.72,.09,.36,.01,.27-.21,.27-.39,0-1.43,0-2.87,0-4.3Zm6.21,9.82c1.58,1.51,3.13,2.99,4.68,4.47,.19,.19,.29,.05,.4-.07,1.96-1.87,3.92-3.75,5.89-5.62,.23-.21,.18-.32-.02-.51-.53-.48-1.04-.98-1.55-1.48-.16-.16-.32-.21-.54-.21-1.42,0-2.85,0-4.27,0-.17,0-.32,.02-.45,.16-1.2,1.26-2.58,2.33-4.14,3.25Zm-19.19-10.3c1.41,2.2,3.27,3.7,5.76,4.57,0-1.46,0-2.84,0-4.22,0-.29-.09-.36-.38-.35-1.76,.01-3.53,0-5.39,0ZM41.47,5.2q0-.88-.93-.88t-.87,.84,.93,.88,.87-.84Zm-7.21,6.89q0-.88-.94-.88-.86,0-.86,.84,0,.88,.94,.88,.86,0,.86-.84Zm-9.02,6.83q0,.91,.97,.91,.84,0,.84-.82,0-.91-.97-.91-.84,0-.84,.82Z"/></svg>