<svg id="Layer_1" data-name="Layer 1" xmlns="http://www.w3.org/2000/svg" viewBox="0 0 150 153.67"><defs><style>.cls-1{fill:#fff;}</style></defs><path class="cls-1" d="M113.84,115.27A39.42,39.42,0,1,1,74.46,75.9,39.46,39.46,0,0,1,113.84,115.27ZM85.69,103c0-3,.11-5.78,0-8.58a12.07,12.07,0,0,0-11.31-11.2c-2.26-.08-3.2.77-3.23,3s0,4.6,0,6.9a7.82,7.82,0,0,1-2.67,6.28c-1.68,1.48-3.46,2.86-5.28,4.17a4,4,0,0,1-2.13.7c-3.08.07-6.17,0-9.25,0-2.07,0-3,1-3,3q0,12.7,0,25.41c0,2.06.92,2.94,3,3,3,0,6.06,0,9.09,0a3,3,0,0,1,1.72.49,16.89,16.89,0,0,0,13.09,3.55c5.59-.68,11.15-1.47,16.83-1.33,3.87.09,6.52-3.6,5.85-7.45a2.35,2.35,0,0,1,.4-1.73,6.71,6.71,0,0,0,1.86-6,1.68,1.68,0,0,1,.44-1.29c2.85-2.76,3.14-6,.81-9.12a2,2,0,0,1-.39-1.36c1-5.08-1.62-8.4-6.81-8.42C91.64,102.94,88.62,103,85.69,103Z"/><path class="cls-1" d="M49.12,64.93c.93-2.9,2.26-5.74,2.67-8.71s-.21-5.78-.31-8.69a2.57,2.57,0,0,1,.46-1.73c11.79-12.33,33.13-12.33,45,0a1.89,1.89,0,0,1,.53,1.44A21.38,21.38,0,0,0,100,64.54c0,.07,0,.19,0,.39Z"/><path class="cls-1" d="M49.51,78.34c-1.62,1.32-3.24,2.55-4.75,3.89A43.43,43.43,0,0,0,32.85,99.64,1.69,1.69,0,0,1,31,101c-9.72-.06-19.43,0-29.15,0-2.11,0-2.65-.67-2.28-2.69C3.64,76.05,30.07,65,48.71,77.75,49,77.92,49.2,78.11,49.51,78.34Z"/><path class="cls-1" d="M99.36,78.34A31.85,31.85,0,0,1,146.45,90.1a46.76,46.76,0,0,1,2.79,8.11c.58,2-.1,2.75-2.15,2.75-9.83,0-19.65,0-29.47,0a1.94,1.94,0,0,1-1.44-.94A45,45,0,0,0,99.74,78.76,3.56,3.56,0,0,1,99.36,78.34Z"/><path class="cls-1" d="M31,69.22A16.19,16.19,0,1,1,47.14,52.88,16.17,16.17,0,0,1,31,69.22Z"/><path class="cls-1" d="M74.46,33.33A16.17,16.17,0,1,1,90.61,17.17,16.17,16.17,0,0,1,74.46,33.33Z"/><path class="cls-1" d="M117.64,69.21A16.18,16.18,0,1,1,134,53.77,16.14,16.14,0,0,1,117.64,69.21Z"/><path class="cls-1" d="M78.92,120.32a2.5,2.5,0,0,1,1,2.93c-.24,1.34.31,2.82.52,4.24.06.42.31.88.23,1.26-.38,1.68-.84,3.34-1.38,5.42-4,.5-8.43,1.38-12.64-1.28a2.25,2.25,0,0,1-1.18-2.16q.08-10.65,0-21.31a2.35,2.35,0,0,1,1.14-2.18c1.66-1.17,3.29-2.4,4.83-3.73a12.72,12.72,0,0,0,4.69-10.32c0-1.44,0-2.88,0-4.38a6.53,6.53,0,0,1,4.53,5.82,37.37,37.37,0,0,1,0,6.26A7.18,7.18,0,0,1,79,104.17a3.1,3.1,0,0,0-.38,3.86c1.48,2.58,1.24,4.53-.89,6.64a24.76,24.76,0,0,1-3.08,2.38,2.54,2.54,0,0,0-.91,3.53,2.46,2.46,0,0,0,3.56.7C77.89,121,78.41,120.63,78.92,120.32Z"/><path class="cls-1" d="M60.37,130.5H53.86V109.39h6.51Z"/><path class="cls-1" d="M90.86,115.61h5.79c.93,0,1.85.28,1.63,1.35a2.13,2.13,0,0,1-1.6,1.22q-6,.16-11.9,0a2.15,2.15,0,0,1-1.55-1.27c-.22-1,.65-1.29,1.52-1.29Z"/><path class="cls-1" d="M90.73,110.58c-1.46,0-2.92,0-4.38,0-.86,0-1.75-.32-1.52-1.3A2.11,2.11,0,0,1,86.38,108c2.92-.13,5.85-.13,8.77,0a2.13,2.13,0,0,1,1.52,1.29c.2,1-.7,1.25-1.55,1.26C93.66,110.6,92.19,110.58,90.73,110.58Z"/><path class="cls-1" d="M90.26,123.26a29.66,29.66,0,0,1,3.89,0c.56.08,1,.75,1.57,1.14-.52.46-1,1.29-1.55,1.32-2.65.13-5.31.13-8,0-.5,0-1-.8-1.46-1.23.48-.42.92-1.15,1.45-1.22A30.49,30.49,0,0,1,90.26,123.26Z"/><path class="cls-1" d="M89,133.41a14.49,14.49,0,0,1-3-.06c-.49-.1-.86-.79-1.29-1.22.43-.42.85-1.19,1.31-1.22a43.92,43.92,0,0,1,6.07,0c.46,0,.87.81,1.3,1.24-.44.42-.83,1.11-1.33,1.2A16.94,16.94,0,0,1,89,133.41Z"/></svg>