<svg id="Layer_1" data-name="Layer 1" xmlns="http://www.w3.org/2000/svg" viewBox="0 0 150 149.42"><defs><style>.cls-1{fill:#fff;}</style></defs><path class="cls-1" d="M1,139V45H151V46q0,45.54,0,91.1a14,14,0,0,1-.45,3.46c-1.59,6.07-6.75,9.84-13.41,9.84H39.72c-8.5,0-17,0-25.49,0a13.19,13.19,0,0,1-12.56-9C1.41,140.58,1.22,139.78,1,139ZM93.63,62.76c-.08-.55-.11-.89-.19-1.22a4.38,4.38,0,0,0-8.34-.63c-1.95,4.46-3.85,9-5.77,13.43q-10.1,23.58-20.17,47.17a7,7,0,0,0-.55,3.51,4.1,4.1,0,0,0,3.87,3.4c2,.15,3.65-1,4.6-3.16Q80,95,93,64.8A21.21,21.21,0,0,0,93.63,62.76ZM34.72,93.29,36.28,92q7.89-6.31,15.77-12.61c2.22-1.79,2.6-4.44,1-6.45s-4.26-2.2-6.51-.41Q35.91,81,25.3,89.56c-2.73,2.19-2.76,5.24-.05,7.42q10.61,8.52,21.25,17c2.26,1.81,4.89,1.66,6.52-.33s1.26-4.69-1-6.55c-2.47-2-4.95-4-7.43-5.94Zm82.55,0c-.6.5-1,.84-1.42,1.17q-8,6.41-16,12.81a4.39,4.39,0,1,0,5.45,6.87q10.77-8.57,21.49-17.18c2.63-2.12,2.61-5.22,0-7.35Q116.1,81,105.39,72.51c-2.18-1.74-4.8-1.55-6.4.39s-1.29,4.67.91,6.45c2.38,1.94,4.79,3.84,7.19,5.76Z"/><path class="cls-1" d="M1,36.16V12.43c.08-.23.19-.45.25-.68C2.87,4.94,7.81,1,14.82,1H137.26C145.33,1,151,6.66,151,14.74q0,10,0,19.92c0,.47,0,.94-.07,1.5ZM115.7,18.58H102.83c-2.85,0-4.83,1.8-4.86,4.35s2,4.43,4.78,4.43q12.8,0,25.59,0c2.82,0,4.8-1.86,4.78-4.42s-2-4.35-4.85-4.36Zm-92.51,0a4.39,4.39,0,1,0,4.46,4.28A4.43,4.43,0,0,0,23.19,18.58Zm22,4.61a4.39,4.39,0,1,0-4.57,4.17A4.45,4.45,0,0,0,45.23,23.19ZM62.81,23a4.39,4.39,0,1,0-4.36,4.38A4.45,4.45,0,0,0,62.81,23Z"/></svg>