<?xml version="1.0" encoding="UTF-8"?><svg id="Layer_1" xmlns="http://www.w3.org/2000/svg" viewBox="0 0 25.74 26"><defs><style>.cls-1{fill:#fff;}</style></defs><path class="cls-1" d="M14.1,16.56h1.97c.93,0,1.87,0,2.8,0,1.04,0,1.7,.8,1.49,1.82-.43,2.04-.87,4.08-1.31,6.12-.19,.89-.95,1.49-1.87,1.49-1.65,0-3.3-.01-4.95,0-1.45,.02-2.67-.48-3.67-1.51-.28-.29-.57-.43-.98-.38-.27,.03-.63,.1-.79-.04-.17-.14-.05-.52-.05-.79,0-2.13,0-4.26,0-6.39,0-.24,.03-.37,.31-.32,.5,.09,.89-.12,1.27-.44,1.66-1.36,2.74-3.11,3.38-5.13,.31-.98,.74-1.13,1.67-.94,1.46,.3,2.32,1.74,1.94,3.17-.15,.57-.32,1.13-.5,1.69-.18,.56-.41,1.09-.7,1.64Z"/><path class="cls-1" d="M10.05,8.06c.13-.74,.23-1.47,.38-2.18,.08-.37,.01-.62-.28-.88-.51-.46-.99-.95-1.48-1.43-.11-.11-.23-.22-.17-.4,.06-.17,.21-.19,.36-.21,.73-.1,1.45-.21,2.18-.31,.26-.03,.42-.14,.53-.38,.31-.67,.65-1.34,.98-2C12.63,.13,12.69,0,12.87,0c.18,0,.24,.14,.31,.27,.33,.67,.67,1.33,.98,2,.11,.23,.26,.34,.51,.37,.73,.09,1.46,.2,2.18,.31,.15,.02,.32,.03,.38,.22,.06,.18-.06,.29-.18,.4-.54,.52-1.06,1.05-1.6,1.56-.17,.16-.22,.32-.18,.55,.14,.75,.26,1.51,.39,2.26,.03,.15,.03,.27-.1,.37-.13,.11-.26,.05-.38-.01-.68-.36-1.37-.72-2.05-1.08-.19-.11-.36-.1-.55,0-.68,.37-1.37,.73-2.05,1.08-.28,.14-.5,.02-.49-.24Z"/><path class="cls-1" d="M1.56,10.32c.12-.73,.22-1.45,.38-2.16,.08-.39,.02-.66-.29-.93-.52-.45-.99-.95-1.48-1.43-.11-.11-.21-.21-.15-.38,.05-.16,.19-.18,.33-.2,.76-.11,1.51-.22,2.27-.33,.22-.03,.35-.11,.45-.32,.33-.69,.67-1.37,1.01-2.05,.07-.14,.13-.27,.31-.27,.18,0,.24,.13,.31,.27,.34,.69,.69,1.38,1.02,2.08,.09,.18,.21,.26,.4,.29,.74,.1,1.48,.2,2.21,.31,.16,.02,.35,.01,.42,.22,.07,.21-.09,.32-.21,.45-.53,.51-1.05,1.03-1.58,1.54-.15,.14-.2,.28-.16,.49,.14,.76,.26,1.53,.4,2.29,.03,.14,.03,.27-.09,.37-.13,.1-.26,.06-.38-.01-.68-.36-1.37-.71-2.05-1.08-.19-.1-.35-.1-.55,0-.68,.37-1.37,.72-2.05,1.08-.28,.15-.5,.03-.5-.23Z"/><path class="cls-1" d="M18.54,10.32c.12-.73,.22-1.45,.38-2.15,.08-.39,.03-.66-.28-.93-.52-.45-.99-.95-1.48-1.43-.11-.11-.21-.21-.16-.38,.05-.18,.21-.19,.35-.21,.74-.11,1.47-.22,2.21-.31,.25-.03,.4-.14,.51-.37,.3-.65,.63-1.28,.94-1.92,.08-.15,.12-.35,.35-.36,.22,0,.28,.19,.35,.34,.33,.66,.66,1.31,.97,1.98,.1,.21,.25,.3,.47,.33,.73,.09,1.46,.2,2.18,.31,.15,.02,.33,.02,.39,.21,.07,.2-.06,.31-.19,.43-.53,.52-1.06,1.04-1.6,1.56-.15,.14-.21,.28-.17,.49,.14,.76,.26,1.53,.4,2.29,.03,.14,.04,.27-.09,.38-.14,.11-.28,.05-.41-.02-.67-.35-1.34-.7-2-1.06-.21-.12-.38-.12-.6,0-.67,.37-1.35,.72-2.02,1.07-.29,.15-.5,.04-.5-.23Z"/><path class="cls-1" d="M1.55,20.34c0-1.36,0-2.73,0-4.09,0-.47,.15-.62,.61-.62,.85,0,1.71,0,2.56,0,.44,0,.6,.16,.6,.61,0,2.74,0,5.48,0,8.21,0,.44-.16,.61-.6,.61-.86,0-1.73,0-2.59,0-.42,0-.58-.17-.58-.59,0-1.37,0-2.75,0-4.12Z"/></svg>