<?xml version="1.0" encoding="UTF-8"?><svg id="Layer_1" xmlns="http://www.w3.org/2000/svg" viewBox="0 0 24 32.02"><defs><style>.cls-1{fill:#fff;}</style></defs><path class="cls-1" d="M13.15,0c.34,.14,.71,.12,1.07,.18,1.77,.32,3.35,1.03,4.46,2.64,.69,1,1.07,2.14,1.28,3.34,.07,.41,.14,.82,.17,1.23,.02,.21,.09,.27,.27,.25,.14-.01,.29,0,.44,.02,.51,.08,.87,.48,.87,1.04,.01,1.51,.01,3.02,0,4.53,0,.64-.44,1.08-1.06,1.07-.27,0-.44,.08-.62,.3-.55,.67-1.31,.95-2.08,1.16-1.36,.36-2.74,.4-4.13,.38-.16,0-.29,0-.42,.15-.13,.16-.32,.22-.53,.22-.42,0-.84,.01-1.25,0-.47-.01-.83-.4-.83-.9,0-.5,.36-.9,.85-.91,.4,0,.8,0,1.19,0,.28,0,.51,.11,.68,.35,.07,.1,.14,.15,.26,.15,1.35,0,2.7-.02,4.02-.38,.42-.11,.84-.26,1.23-.54-.63-.24-.77-.74-.76-1.39,.02-1.32,.01-2.65,0-3.97,0-.42,.07-.79,.4-1.05,.07-.06,.08-.13,.07-.22-.12-1.09-.31-2.16-.76-3.15-.65-1.41-1.74-2.25-3.13-2.61-1.86-.49-3.75-.5-5.62-.02-2.08,.54-3.28,2-3.76,4.2-.1,.48-.17,.96-.23,1.45-.02,.17,0,.31,.14,.43,.21,.18,.32,.44,.32,.74,0,1.53,0,3.06,0,4.6,0,.57-.4,.99-.95,1.02-.5,.03-1.01,.03-1.51,0-.58-.03-.97-.47-.98-1.1,0-1.48,0-2.96,0-4.44,0-.63,.37-1.05,.96-1.11,.12-.01,.23-.02,.35,0,.18,.02,.25-.04,.27-.25,.09-.93,.25-1.85,.55-2.74C5.2,2.23,6.84,.85,9.15,.31c.47-.11,.94-.16,1.41-.24,.05,0,.12,.02,.14-.07h2.45Z"/><path class="cls-1" d="M11.98,22.19c.29-.81,.55-1.53,.8-2.26,.09-.27,.24-.44,.5-.51,.8-.21,1.52-.6,2.18-1.14,.21-.17,.41-.2,.65-.06,1.69,1,3.39,1.96,5.06,3,.83,.52,1.38,1.27,1.76,2.17,.55,1.3,.84,2.67,1.06,4.07,.04,.26-.03,.49-.16,.71-.51,.85-1.24,1.42-2.05,1.89-1.39,.8-2.89,1.24-4.44,1.51-2.65,.47-5.31,.53-7.98,.34-1.55-.11-3.09-.33-4.59-.77-1.46-.43-2.85-1.02-3.99-2.15-.08-.08-.15-.16-.23-.24-.49-.51-.66-1.07-.49-1.83,.3-1.33,.6-2.64,1.17-3.87,.34-.73,.8-1.33,1.47-1.76,1.69-1.08,3.43-2.05,5.15-3.08,.22-.13,.42-.12,.62,.05,.67,.55,1.41,.95,2.23,1.16,.24,.06,.38,.22,.46,.47,.25,.74,.52,1.47,.81,2.29Zm5.05,1.95h-1.46c-.63,0-.62,0-.63,.68,0,.23,.06,.27,.26,.27,1.09-.01,2.17,0,3.26,0,.66,0,.66,0,.65-.73,0-.19-.06-.22-.22-.22-.62,0-1.24,0-1.86,0Z"/><path class="cls-1" d="M15.84,17.01c-.64,.62-1.35,1.07-2.12,1.46-1.5,.75-2.89,.41-4.24-.41-1.37-.84-2.41-2.01-3.12-3.53-.08-.17-.11-.31-.02-.49,.13-.25,.17-.53,.17-.81,0-1.49,0-2.98,0-4.47,0-.43-.11-.82-.35-1.17-.05-.07-.1-.13-.09-.22,.15-1.18,.39-2.32,1.12-3.26,.71-.9,1.66-1.32,2.7-1.51,1.51-.29,3.03-.28,4.54,.08,1.72,.41,2.79,1.53,3.2,3.38,.05,.21,.09,.42,.14,.64,.09,.42,.14,.82-.14,1.21-.18,.25-.19,.58-.19,.9,0,1.46,0,2.92,0,4.38,0,.22,0,.44,.09,.65,.05,.14,.01,.17-.11,.2-1.1,.26-2.21,.3-3.33,.31-.1,0-.16-.06-.23-.12-.23-.2-.5-.33-.79-.36-.56-.05-1.13-.07-1.69,0-.83,.11-1.43,.9-1.41,1.78,.02,.9,.63,1.65,1.47,1.73,.53,.05,1.07,.02,1.6,0,.13,0,.29-.03,.39-.11,.38-.3,.81-.24,1.23-.25,.38,0,.76,0,1.17,0Z"/></svg>