<?xml version="1.0" encoding="UTF-8"?><svg id="Layer_1" xmlns="http://www.w3.org/2000/svg" viewBox="0 0 28.96 30"><defs><style>.cls-1{fill:#fff;}</style></defs><path class="cls-1" d="M16.71,27.9c-1.12,0-1.92-.29-2.73-.49-1.79-.43-3.58-.88-5.37-1.34-.28-.07-.5-.02-.72,.13-.15,.11-.23,.08-.33-.08-.98-1.61-1.97-3.22-2.96-4.83-.06-.09-.12-.17,.04-.25,1.51-.76,2.93-1.67,4.51-2.31,.79-.32,1.6-.33,2.43-.06,1.6,.52,3.18,1.09,4.85,1.42,.15,.03,.31,.06,.46,.09,1.14,.24,1.6,1.48,.86,2.31-.32,.35-.71,.52-1.23,.39-1.14-.28-2.28-.56-3.42-.83-.41-.1-.71,.02-.78,.32-.08,.31,.1,.53,.52,.64,1.13,.28,2.26,.56,3.39,.83,.96,.24,1.66,0,2.25-.73,.05-.06,.08-.12,.16-.15,1.77-.74,3.36-1.76,5.05-2.62,.72-.36,1.4-.8,2.16-1.08,.52-.19,1.05-.32,1.61-.28,.76,.06,1.27,.45,1.44,1.11,.18,.7-.09,1.35-.71,1.71-1.87,1.07-3.73,2.13-5.6,3.19-1.37,.78-2.74,1.56-4.11,2.33-.75,.42-1.31,.57-1.77,.57Z"/><path class="cls-1" d="M10.47,10.19c.03-.26,.06-.6,.12-.94,.08-.45,.02-.87-.22-1.27-.17-.27-.31-.55-.46-.83-.38-.71-.26-1.36,.35-1.9,.23-.21,.47-.42,.72-.62,.38-.3,.6-.66,.7-1.11,.07-.32,.15-.63,.23-.94,.19-.72,.81-1.17,1.61-1.2,.41-.02,.81-.04,1.22-.06,.35-.02,.65-.15,.93-.34,.3-.2,.59-.41,.89-.62,.72-.49,1.42-.48,2.14,0,.31,.21,.61,.42,.92,.63,.3,.2,.63,.31,1.01,.32,.39,.01,.79,.04,1.18,.06,.75,.05,1.34,.5,1.52,1.18,.49,1.86,.21,1.4,1.69,2.71,.56,.5,.68,1.15,.35,1.8-.08,.16-.16,.32-.26,.47-.49,.68-.58,1.42-.38,2.21,.04,.17,.05,.35,.06,.53,.03,.64-.32,1.2-.99,1.47-1.95,.79-1.48,.47-2.62,2.03-.43,.59-1.12,.81-1.87,.61-2.02-.53-1.33-.53-3.36,0-.77,.2-1.46-.01-1.89-.62-1.19-1.65-.75-1.24-2.6-2.01-.68-.28-1.03-.82-1-1.57Zm7.17-7.89c-2.95,0-5.36,2.2-5.37,4.93-.01,2.72,2.39,4.96,5.34,4.97,2.96,0,5.39-2.22,5.39-4.95,0-2.73-2.4-4.94-5.35-4.94Z"/><path class="cls-1" d="M2.26,20.37c.46,.01,.68,.21,.86,.51,1.01,1.67,2.04,3.33,3.05,4.99,.43,.7,.87,1.41,1.3,2.11,.31,.51,.2,.89-.34,1.18-.45,.24-.9,.48-1.35,.7-.5,.25-.92,.15-1.2-.31-1.48-2.4-2.95-4.81-4.42-7.21-.28-.46-.16-.85,.33-1.11,.47-.25,.94-.49,1.41-.74,.14-.07,.28-.13,.37-.13Zm.28,1.82c0-.27-.25-.5-.54-.5-.29,0-.54,.23-.54,.5,0,.28,.25,.51,.56,.5,.3,0,.53-.23,.52-.51Z"/><path class="cls-1" d="M12.28,13.15c.32,.32,.52,.66,.74,.98,.63,.93,1.52,1.39,2.75,1.32-.26,.52-.51,1.01-.76,1.51-.16,.31-.31,.62-.47,.93-.04,.08-.07,.19-.19,.2-.14,.01-.17-.11-.23-.2-.31-.48-.63-.96-.91-1.46-.11-.2-.24-.23-.45-.19-.59,.11-1.17,.2-1.76,.29-.11,.02-.25,.08-.34-.04-.08-.11,.03-.2,.07-.28,.5-1.01,1.01-2.01,1.54-3.06Z"/><path class="cls-1" d="M19.48,15.46c1.2,.07,2.07-.35,2.69-1.23,.25-.35,.48-.73,.8-1.08,.55,1.08,1.07,2.12,1.59,3.17,.11,.21,.02,.28-.27,.24-.55-.09-1.11-.17-1.66-.28-.31-.06-.51-.04-.67,.27-.26,.48-.58,.94-.87,1.41-.11,.17-.23,.25-.35,.02-.42-.82-.83-1.65-1.27-2.51Z"/><path class="cls-1" d="M17.62,3.29c2.35,0,4.28,1.76,4.29,3.93,0,2.17-1.92,3.96-4.27,3.96-2.35,0-4.28-1.77-4.29-3.94,0-2.17,1.91-3.95,4.27-3.96Zm2.95,2.61s0-.07-.02-.12c-.07-.25-.23-.43-.5-.51-.3-.09-.55,.02-.76,.21-.71,.66-1.41,1.31-2.11,1.98-.13,.12-.2,.14-.34,0-.28-.27-.57-.54-.86-.8-.35-.31-.78-.32-1.08-.04-.29,.28-.27,.65,.07,.97,.49,.46,.98,.92,1.48,1.37,.35,.32,.75,.32,1.1,0,.92-.85,1.84-1.72,2.76-2.57,.15-.14,.23-.3,.25-.51Z"/></svg>