<?xml version="1.0" encoding="UTF-8"?><svg id="Layer_1" xmlns="http://www.w3.org/2000/svg" viewBox="0 0 39.04 32.63"><defs><style>.cls-1{fill:#fff;}</style></defs><path class="cls-1" d="M32.43,32.63c-3.64,0-6.57-2.79-6.57-6.22,0-3.42,2.97-6.19,6.61-6.19,3.63,0,6.58,2.8,6.57,6.23,0,3.42-2.97,6.19-6.61,6.18Zm4.01-8.06c.01-.15-.03-.3-.11-.43-.33-.57-1.08-.64-1.61-.13-.98,.92-1.95,1.84-2.92,2.77-.17,.17-.26,.18-.44,0-.4-.4-.81-.79-1.23-1.17-.42-.38-1-.38-1.39-.03-.4,.36-.4,.93,.01,1.33,.69,.67,1.39,1.33,2.1,1.98,.47,.43,1.01,.42,1.47-.02,1.26-1.19,2.52-2.39,3.78-3.59,.21-.2,.35-.42,.34-.72Z"/><path class="cls-1" d="M17.62,28.07c-2.2,0-4.39,0-6.59,0-.97,0-1.26-.35-1.03-1.25,1.08-4.22,5.42-7.18,10.01-6.86,2.12,.15,3.99,.86,5.63,2.13,.21,.16,.22,.27,.08,.49-1.03,1.6-1.37,3.33-1.02,5.18,.05,.27-.02,.32-.29,.32-2.26,0-4.53,0-6.79,0Z"/><path class="cls-1" d="M24.27,14.62c-.05,2.57-2.25,4.59-4.97,4.55-2.71-.04-4.87-2.14-4.82-4.69,.05-2.53,2.3-4.56,5.01-4.52,2.65,.04,4.82,2.16,4.77,4.66Z"/><path class="cls-1" d="M.41,10.44c.65,.1,1.42,.21,2.17,.35,.38,.07,.62,0,.82-.34,.35-.59,.76-1.14,1.15-1.71,.08-.12,.14-.3,.35-.26,.19,.04,.17,.22,.19,.35,.12,.7,.24,1.41,.34,2.11,.04,.28,.13,.42,.44,.49,.7,.14,1.39,.33,2.07,.52,.18,.05,.46,0,.49,.25,.03,.27-.27,.28-.45,.37-.63,.31-1.27,.62-1.92,.91-.24,.11-.34,.24-.31,.5,.06,.74,.1,1.48,.15,2.21,0,.13,.06,.3-.13,.36-.16,.05-.25-.06-.34-.15-.55-.53-1.11-1.04-1.66-1.58-.19-.18-.35-.22-.6-.12-.72,.28-1.46,.53-2.19,.8-.14,.05-.29,.14-.41,0-.12-.13,0-.26,.06-.39,.36-.66,.7-1.32,1.08-1.97,.12-.21,.11-.36-.05-.54-.52-.58-1.03-1.18-1.54-1.78-.08-.09-.18-.17-.11-.3,.06-.11,.17-.12,.39-.09Z"/><path class="cls-1" d="M16.64,7.48c.21-.74,.41-1.48,.64-2.21,.1-.3,.04-.49-.23-.68-.62-.43-1.21-.9-1.81-1.36-.1-.08-.24-.15-.18-.31,.05-.13,.19-.12,.31-.13,.8-.04,1.6-.09,2.39-.11,.3,0,.43-.11,.52-.36,.25-.67,.53-1.33,.8-2,.06-.14,.06-.33,.27-.34,.24,0,.24,.21,.3,.35,.28,.66,.55,1.32,.8,2,.09,.24,.22,.33,.49,.34,.77,.02,1.54,.06,2.31,.11,.15,0,.36-.05,.41,.16,.05,.19-.14,.26-.26,.35-.59,.45-1.17,.91-1.77,1.34-.24,.17-.27,.32-.19,.58,.22,.71,.42,1.42,.62,2.13,.03,.12,.1,.26-.04,.35-.14,.1-.26,0-.37-.07-.66-.4-1.32-.8-1.96-1.22-.23-.15-.4-.17-.65,0-.65,.43-1.33,.83-2,1.24-.1,.06-.21,.13-.34,.07-.09-.05-.1-.14-.09-.24Z"/><path class="cls-1" d="M13.05,8.29c-.39-.02-.79-.03-1.18-.07-.26-.03-.39,.05-.51,.27-.35,.68-.71,1.34-1.07,2.01-.06,.11-.11,.25-.27,.25-.2,0-.21-.18-.25-.31-.2-.7-.41-1.4-.58-2.11-.07-.28-.21-.4-.51-.44-.76-.1-1.53-.21-2.29-.32-.15-.02-.32-.03-.36-.19-.03-.15,.12-.21,.23-.28,.65-.39,1.29-.8,1.95-1.18,.28-.16,.35-.33,.29-.62-.14-.69-.26-1.38-.37-2.07-.02-.14-.12-.32,.07-.42,.19-.11,.3,.06,.41,.15,.58,.44,1.17,.87,1.73,1.33,.26,.22,.46,.22,.75,.07,.66-.34,1.34-.66,2.01-.98,.13-.06,.26-.17,.41-.04,.12,.12,.03,.24-.02,.35-.29,.7-.57,1.4-.87,2.1-.1,.22-.06,.37,.13,.53,.58,.52,1.14,1.06,1.7,1.59,.1,.09,.22,.18,.16,.32-.07,.15-.22,.12-.36,.11-.41-.02-.81-.04-1.22-.06Z"/><path class="cls-1" d="M30.66,2.99c-.14,.78-.25,1.49-.4,2.21-.07,.35-.02,.58,.35,.78,.65,.34,1.26,.75,1.88,1.13,.11,.07,.25,.13,.22,.29-.03,.16-.19,.16-.32,.18-.76,.11-1.52,.22-2.29,.32-.3,.04-.47,.14-.54,.45-.17,.72-.4,1.43-.6,2.14-.03,.11-.05,.23-.2,.26-.17,.03-.23-.1-.29-.21-.37-.68-.74-1.36-1.09-2.05-.11-.22-.26-.28-.51-.27-.8,.06-1.59,.09-2.39,.13-.13,0-.29,.05-.35-.11-.06-.15,.07-.23,.16-.32,.55-.51,1.08-1.04,1.65-1.53,.24-.21,.26-.4,.14-.67-.29-.67-.56-1.35-.84-2.02-.05-.12-.12-.25,0-.36,.13-.12,.25-.02,.37,.03,.72,.35,1.44,.69,2.16,1.05,.21,.11,.36,.09,.54-.06,.63-.5,1.28-.99,1.92-1.48,.08-.06,.17-.14,.29-.09,.11,.05,.15,.14,.14,.19Z"/><path class="cls-1" d="M32.92,15.03c.02-.37,.03-.74,.07-1.11,.03-.23-.08-.35-.28-.44-.71-.33-1.42-.67-2.13-1.01-.13-.06-.3-.1-.27-.29,.03-.16,.19-.16,.31-.2,.76-.19,1.51-.39,2.27-.56,.29-.06,.4-.2,.43-.46,.11-.73,.23-1.46,.35-2.19,.02-.13,.03-.27,.19-.3,.17-.04,.23,.09,.3,.2,.43,.63,.87,1.26,1.29,1.9,.13,.2,.28,.27,.53,.23,.77-.13,1.55-.24,2.32-.36,.14-.02,.3-.1,.41,.06,.13,.18-.05,.28-.14,.39-.48,.57-.97,1.13-1.47,1.69-.17,.19-.2,.35-.07,.57,.38,.66,.74,1.33,1.1,2,.06,.11,.16,.23,.04,.35-.12,.11-.25,.05-.38,0-.7-.26-1.41-.51-2.11-.78-.31-.12-.53-.11-.78,.15-.51,.53-1.06,1.02-1.6,1.52-.09,.09-.18,.2-.34,.15-.18-.06-.13-.21-.12-.33,.02-.39,.04-.79,.06-1.18h0Z"/></svg>