<?xml version="1.0" encoding="UTF-8"?><svg id="Layer_1" xmlns="http://www.w3.org/2000/svg" viewBox="0 0 26 25.99"><defs><style>.cls-1{fill:#fff;}</style></defs><path class="cls-1" d="M13.29,19.64c0-3.53,2.84-6.36,6.37-6.35,3.51,0,6.34,2.84,6.34,6.36,0,3.52-2.85,6.36-6.37,6.35-3.51,0-6.34-2.84-6.34-6.36Zm9.75-1.84s0-.1-.02-.15c-.08-.33-.28-.55-.61-.63-.38-.09-.68,.05-.91,.36-.81,1.08-1.63,2.15-2.44,3.24-.12,.16-.19,.18-.35,.05-.53-.42-1.07-.82-1.61-1.23-.44-.33-.93-.27-1.23,.12-.29,.38-.2,.87,.22,1.19,.81,.62,1.63,1.24,2.45,1.85,.43,.32,.89,.25,1.22-.17,1.04-1.36,2.06-2.72,3.09-4.09,.12-.16,.19-.33,.2-.55Z"/><path class="cls-1" d="M1.67,13.01c.01,5.19,3.53,9.71,8.55,10.98,.82,.21,1.65,.32,2.49,.34,.19,0,.39,0,.57,.06,.38,.13,.6,.51,.54,.92-.06,.38-.39,.67-.79,.68-.94,.02-1.87-.08-2.79-.29-4.27-1.01-7.34-3.52-9.15-7.51C.11,16.01-.2,13.71,.12,11.34,.64,7.49,2.52,4.46,5.7,2.26,8.21,.52,11.03-.23,14.07,.06c4.84,.47,8.37,2.92,10.6,7.22,.92,1.77,1.32,3.67,1.33,5.66,0,.5-.32,.86-.77,.88-.49,.02-.85-.29-.87-.8-.04-1.13-.15-2.26-.51-3.34-1.44-4.24-4.33-6.95-8.74-7.8C9.81,.85,4.76,3.59,2.6,8.51c-.63,1.43-.93,2.94-.93,4.5Z"/><path class="cls-1" d="M13.83,9.13c0,1.6,0,3.21,0,4.81,0,.69-.3,.99-.98,.99-1.76,0-3.52,0-5.27,0-.66,0-1.06-.5-.89-1.07,.11-.37,.42-.58,.87-.58,1.37,0,2.74,0,4.11,0q.51,0,.51-.52c0-2.8,0-5.6,0-8.4,0-.15,0-.31,.04-.46,.1-.37,.49-.62,.87-.58,.4,.04,.71,.36,.74,.77,0,.11,0,.21,0,.32,0,1.57,0,3.15,0,4.72Z"/></svg>