<?xml version="1.0" encoding="UTF-8"?><svg id="Layer_1" xmlns="http://www.w3.org/2000/svg" viewBox="0 0 26 26"><defs><style>.cls-1{fill:#fff;}</style></defs><path class="cls-1" d="M0,13c0-3.06,0-6.11,0-9.17,0-.85,.3-1.54,.91-2.11C1.71,.95,2.7,.53,3.77,.29,5.96-.2,8.11-.1,10.17,.86c.64,.3,1.21,.71,1.64,1.29,.35,.46,.53,.98,.53,1.56,0,6.19,0,12.39,0,18.58,0,.94-.45,1.64-1.15,2.21-.94,.76-2.04,1.14-3.2,1.33-1.79,.3-3.55,.2-5.26-.45-.76-.29-1.45-.69-1.99-1.3C.25,23.57,0,22.97,0,22.26c0-3.09,0-6.17,0-9.26ZM6.32,.97c-1.1,0-2.04,.13-2.94,.43-.77,.26-1.51,.6-2.04,1.26-.49,.61-.49,1.28-.01,1.9,.34,.44,.79,.74,1.29,.96,2.15,.94,4.34,.98,6.55,.23,.69-.23,1.32-.58,1.8-1.15,.53-.63,.53-1.33,.01-1.97-.26-.32-.58-.56-.93-.75-1.2-.68-2.51-.89-3.73-.92ZM.97,9.34c0,.59,0,1.13,0,1.67-.01,.45,.14,.82,.43,1.15,.43,.49,.97,.8,1.56,1.03,1.54,.61,3.13,.72,4.75,.46,.96-.15,1.89-.44,2.7-1.02,.41-.29,.78-.63,.89-1.13,.16-.69,.04-1.4,.07-2.14-2.59,2.21-8.01,2.09-10.4-.02Zm0,3.79c0,.5,.03,.97,0,1.45-.05,.76,.3,1.3,.87,1.74,.28,.21,.58,.39,.9,.53,1.54,.67,3.15,.8,4.8,.58,1.01-.14,1.97-.42,2.83-1.01,.44-.3,.83-.66,.95-1.2,.14-.69,.03-1.38,.06-2.12-2.28,2.04-7.76,2.29-10.4,.03Zm10.39,3.73c-1.56,1.24-3.33,1.62-5.21,1.62-1.88,0-3.64-.39-5.18-1.62,0,.58,0,1.12,0,1.66-.01,.46,.16,.84,.45,1.17,.42,.47,.96,.78,1.54,1.01,1.73,.67,3.51,.74,5.31,.34,.91-.2,1.78-.54,2.48-1.2,.33-.31,.58-.68,.6-1.14,.02-.6,0-1.2,0-1.84ZM.97,20.6c0,.56,.02,1.05,0,1.55-.03,.65,.24,1.14,.71,1.55,.29,.25,.61,.45,.96,.61,1.54,.7,3.15,.86,4.81,.64,1.04-.14,2.03-.42,2.91-1.02,.43-.29,.82-.64,.94-1.17,.16-.69,.04-1.4,.07-2.14-2.59,2.22-8,2.1-10.4-.02Zm0-15c0,.53,.03,1.01,0,1.49-.05,.75,.29,1.29,.86,1.72,.25,.2,.53,.36,.82,.49,1.71,.77,3.5,.88,5.32,.55,.97-.18,1.89-.5,2.67-1.14,.49-.4,.77-.91,.74-1.56-.02-.43,0-.86,0-1.29,0-.07,.05-.16-.04-.21-2.47,2.13-7.83,2.14-10.35-.04Z"/><path class="cls-1" d="M18.35,10.01c0-2.31,0-4.53,0-6.74,0-.58,0-1.16,0-1.74,0-.85,.64-1.51,1.46-1.51,.84,0,1.49,.64,1.49,1.51,0,2.7,0,5.39,0,8.09,0,.1,0,.2,0,.38,.34-.34,.64-.63,.92-.92,.23-.23,.49-.4,.82-.47,.64-.13,1.28,.14,1.6,.69,.32,.55,.27,1.25-.18,1.73-.3,.32-.63,.61-.98,.94,.51,.26,.96,.49,1.35,.82,.76,.63,1.17,1.4,1.16,2.42-.03,2.3-.03,4.61,0,6.91,.01,1.05-.42,1.83-1.21,2.45-.93,.73-2.01,1.1-3.16,1.29-1.78,.3-3.53,.19-5.23-.45-.74-.28-1.41-.67-1.96-1.24-.51-.54-.77-1.17-.77-1.92,0-2.33,.03-4.67,0-7-.02-1.1,.45-1.9,1.28-2.54,.36-.28,.77-.49,1.22-.71-.3-.29-.59-.56-.86-.84-.64-.64-.66-1.54-.06-2.15,.6-.6,1.51-.58,2.15,.04,.31,.3,.6,.61,.96,.98Zm1.48,7.51c.74,0,1.46-.08,2.17-.25,.84-.21,1.64-.51,2.31-1.08,.92-.78,.95-1.72,.06-2.54-.41-.38-.89-.63-1.4-.85-.16-.07-.25-.04-.36,.08-.55,.56-1.1,1.11-1.65,1.66-.7,.69-1.56,.69-2.25,0-.55-.55-1.11-1.1-1.66-1.66-.08-.08-.14-.16-.28-.11-.69,.29-1.35,.62-1.81,1.24-.44,.58-.43,1.18,0,1.77,.26,.35,.6,.61,.98,.83,1.21,.68,2.53,.9,3.9,.92Zm-5.2,3.1c0,.53,.02,1.01,0,1.48-.04,.69,.26,1.22,.77,1.64,.28,.23,.59,.42,.92,.57,1.53,.69,3.13,.85,4.78,.64,1.04-.13,2.04-.42,2.92-1.01,.67-.45,1.09-1.04,1.02-1.9-.03-.39,0-.78,0-1.17,0-.07,.05-.16-.05-.21-2.3,2.05-7.72,2.21-10.35-.02Zm0-3.75c0,.52,.02,1,0,1.48-.04,.73,.29,1.27,.85,1.69,.25,.2,.53,.37,.82,.5,1.74,.79,3.55,.9,5.41,.54,.97-.19,1.89-.52,2.66-1.18,.33-.29,.62-.63,.65-1.08,.04-.64,.01-1.29,.01-1.95-2.46,2.12-7.88,2.16-10.38-.01Zm4.68-10.54c0,1.56,0,3.13,0,4.69,0,.25-.05,.46-.3,.57-.25,.11-.44,0-.61-.18-.56-.56-1.12-1.12-1.68-1.68-.27-.26-.57-.28-.79-.06-.23,.22-.21,.53,.05,.79,1.14,1.14,2.28,2.28,3.42,3.42,.3,.3,.56,.29,.86,0,1.14-1.13,2.27-2.27,3.4-3.4,.06-.06,.12-.14,.16-.21,.1-.2,.07-.39-.07-.56-.15-.17-.35-.22-.57-.15-.12,.04-.2,.13-.29,.21-.56,.56-1.12,1.12-1.68,1.68-.16,.16-.35,.24-.57,.15-.22-.09-.3-.28-.3-.51,0-.08,0-.16,0-.24,0-2.76,0-5.51,0-8.27,0-.35,0-.7,0-1.05,0-.22-.09-.39-.28-.49-.37-.19-.75,.08-.75,.54,0,1.58,0,3.17,0,4.75Z"/></svg>