<?xml version="1.0" encoding="UTF-8"?><svg id="Layer_1" xmlns="http://www.w3.org/2000/svg" viewBox="0 0 51.68 49.27"><defs><style>.cls-1{fill:#093A5B;}</style></defs><path class="cls-1" d="M0,40.8c1.58-1.85,3.16-3.69,4.73-5.54,1.68-1.96,3.34-3.93,5.03-5.89,.2-.24,.22-.36-.07-.54-.49-.3-.96-.64-1.43-.99-.56-.41-.63-.82-.19-1.36,.63-.77,1.26-1.54,1.92-2.29,.23-.26,.26-.45,.07-.74-1.55-2.49-2.32-5.2-2.27-8.1,.06-3.29,1.1-6.3,3.14-8.96C13.18,3.47,16.18,1.54,19.84,.56c.82-.22,1.67-.37,2.52-.46,.09,0,.21,.03,.25-.1h2.83c.71,.12,1.43,.23,2.14,.37,3.36,.7,6.22,2.26,8.56,4.66,.97,.99,1.78,2.08,2.43,3.29,.15,.28,.28,.33,.47,.05,.02-.03,.04-.05,.07-.07,.38-.32,.61-.9,1.2-.88,.79,.04,1.54,.31,2.22,.71,.37,.22,.33,.64,.37,1.01,.08,.88,.09,.91,.95,.68,.71-.19,1.25-.07,1.64,.55,.08,.14,.2,.26,.31,.38,.64,.71,.75,1.41,.11,2.2-.33,.4-.23,.59,.26,.8,.21,.09,.43,.18,.64,.27,.37,.17,.56,.45,.55,.84,0,.47-.02,.93,0,1.4,.03,.52-.21,.86-.71,1.04-1.26,.46-1.06,.54-.5,1.43,.28,.44,.3,.83-.02,1.25-.28,.36-.55,.73-.82,1.09-.28,.39-.66,.52-1.14,.4-.08-.02-.16-.04-.24-.05-.95-.22-.97-.22-1.01,.7-.03,.68-.29,1.14-1.02,1.29-.1,.02-.19,.07-.28,.1-1.37,.49-1.52,.48-2.46-.57-.35-.39-.44-.26-.65,.1-2.36,4.13-5.96,6.72-10.76,7.8-1.95,.44-3.93,.48-5.91,.18-.28-.04-.42,.05-.58,.24-.76,.92-1.53,1.83-2.3,2.74-.48,.57-.89,.63-1.51,.21-.4-.27-.81-.52-1.18-.83-.31-.26-.46-.17-.7,.1-3.14,3.7-6.29,7.39-9.44,11.09-.63,.74-.97,.77-1.76,.17-1.24-.94-2.47-1.89-3.71-2.82C.39,41.74,.22,41.5,0,41.29v-.48ZM24.16,1.66c-8.07,.07-14.61,6.12-14.64,13.94-.03,7.79,6.55,13.93,14.58,13.97,8.04,.04,14.6-6.17,14.67-13.9,.06-7.67-6.51-13.97-14.61-14.01Zm-9.71,30.52c-.1-.08-.18-.15-.28-.22-.8-.56-1.62-1.09-2.4-1.67-.3-.22-.44-.2-.67,.08-1.12,1.34-2.26,2.67-3.39,4-1.78,2.09-3.56,4.18-5.34,6.26-.21,.25-.24,.37,.06,.58,.79,.57,1.56,1.17,2.32,1.77,.21,.16,.33,.23,.55-.03,2.98-3.51,5.97-7.01,8.95-10.52,.06-.07,.12-.15,.19-.24Zm29.56-12.43c.19,.07,.25-.11,.36-.22,.23-.22,.01-.38-.08-.55-.72-1.2-.34-2.35,.95-2.9,.22-.09,.39-.16,.39-.46,0-.31-.18-.37-.4-.46-.36-.16-.77-.25-.95-.65-.36-.79-.62-1.56,.04-2.34,.2-.24,.02-.69-.25-.69-.18,0-.36,.07-.54,.11-1.02,.23-2.14-.53-2.32-1.52-.05-.28,.18-.69-.34-.84-.5-.14-.53,.33-.8,.5-.57,.36-.52,.82-.33,1.4,.96,2.86,1.03,5.77,.09,8.64-.3,.92-.2,1.53,.56,2.1,.18,.13,.29,.21,.52,.14,.23-.07,.26-.21,.25-.4,0-.68,.23-1.21,.87-1.62,.55-.35,1.05-.53,1.68-.3,.08,.03,.16,.03,.28,.06Zm-24.47,10.91c-.05-.17-.21-.15-.33-.18-1.18-.37-2.31-.84-3.38-1.45-1.63-.93-3.06-2.08-4.26-3.48-.19-.22-.3-.3-.51-.01-.3,.41-.63,.79-.98,1.16-.21,.22-.13,.32,.08,.47,2.51,1.73,5.02,3.47,7.53,5.22,.22,.16,.32,.12,.47-.07,.39-.5,.81-.98,1.22-1.47,.05-.06,.1-.13,.15-.19Z"/><path class="cls-1" d="M51.68,41.38c-.3,.5-.84,.67-1.35,.88-.56,.23-.64,.47-.34,.96,.78,1.28,.84,1.05-.17,2.5-.06,.08-.14,.14-.19,.23-.44,.74-1.08,.9-1.88,.62-.16-.05-.33-.1-.49-.1-.28,0-.48,.12-.52,.4,0,.05,0,.1,0,.14-.19,1.51,.12,1.41-1.74,2.03-.22,.07-.46,.1-.68,.18-.42,.14-.76,0-1.04-.28-.23-.23-.44-.48-.66-.73-.25-.28-.5-.28-.75,0-.23,.25-.46,.51-.7,.76-.26,.27-.57,.36-.96,.26-.57-.15-1.12-.32-1.67-.52-.44-.16-.69-.43-.72-.88-.02-.29-.05-.58-.08-.86-.04-.4-.26-.56-.68-.49-.05,0-.1,0-.15,.02-1.08,.46-1.79,.04-2.33-.85-.09-.15-.18-.31-.3-.44-.49-.55-.47-1.09-.03-1.66,.12-.15,.21-.33,.3-.5,.16-.31,.08-.55-.24-.72-.03-.02-.06-.03-.09-.04-1.55-.63-1.41-.54-1.41-2.13,0-.05,0-.1,0-.14-.15-.93,.23-1.49,1.19-1.75,.77-.21,.77-.64,.38-1.15-.13-.17-.22-.36-.33-.54-.2-.34-.2-.66,.02-1,.33-.51,.68-.99,1.08-1.44,.28-.31,.61-.44,1.03-.33,.29,.07,.59,.12,.88,.19,.4,.1,.61-.09,.66-.44,.05-.33,.07-.67,.1-1,.04-.35,.24-.58,.57-.72,.59-.24,1.19-.43,1.81-.58,.41-.1,.72,0,.99,.3,.21,.23,.42,.46,.63,.69,.26,.29,.52,.31,.79,.01,.04-.05,.1-.09,.13-.14,.57-.94,1.38-1.06,2.36-.64,.05,.02,.09,.04,.14,.05,1.04,.21,1.52,.8,1.49,1.83-.02,.63,.22,.82,.83,.6,1.05-.38,1.74-.05,2.27,.81,.05,.08,.1,.17,.17,.24,.65,.7,.71,1.4,.07,2.14-.41,.48-.36,.89,.4,1.14,.5,.17,.99,.36,1.21,.88v2.21Zm-3.56,3.57c.22,.07,.26-.17,.39-.31,.15-.16,.18-.3,.06-.51-.23-.41-.65-.77-.55-1.3,.18-.92,.41-1.81,1.57-2.05,.31-.07,.34-.28,.35-.54,0-.27-.05-.46-.35-.54-.76-.19-1.18-.66-1.41-1.4-.2-.66-.16-1.22,.27-1.75,.21-.26,.27-.48,.03-.8-.25-.33-.5-.16-.75-.12-.36,.05-.73,.26-1.08,.08-.87-.45-1.73-.92-1.62-2.07,.02-.26-.03-.47-.37-.58-.34-.11-.48,.02-.67,.23-.29,.3-.49,.73-.97,.78-.96,.1-1.94,.2-2.53-.8-.13-.22-.31-.32-.62-.22-.33,.1-.37,.28-.4,.56-.05,.42,.04,.9-.33,1.22-.7,.61-1.42,1.22-2.49,.78-.23-.09-.44-.13-.64,.15-.19,.27-.2,.45-.02,.72,.23,.36,.58,.7,.47,1.18-.19,.89-.38,1.78-1.53,2.03-.31,.07-.4,.25-.4,.56,0,.31,.11,.45,.4,.56,.39,.16,.87,.23,1.07,.66,.39,.84,.76,1.7-.02,2.55-.22,.24-.17,.45,.03,.71,.2,.27,.39,.2,.65,.15,.42-.08,.85-.28,1.27-.06,.86,.46,1.65,.97,1.54,2.08-.03,.3,.11,.44,.41,.55,.33,.12,.45-.06,.62-.24,.29-.3,.5-.75,.97-.79,.93-.09,1.9-.22,2.5,.75,.12,.2,.26,.4,.64,.29,.4-.12,.41-.35,.43-.65,.03-.43,0-.88,.37-1.21,.72-.63,1.47-1.15,2.52-.7,.05,.02,.1,.02,.21,.05Z"/><path class="cls-1" d="M24.15,3.3c7.12,0,12.93,5.56,12.91,12.34-.02,6.79-5.79,12.28-12.9,12.28-7.06,0-12.91-5.39-12.91-12.33,0-6.81,5.82-12.3,12.91-12.29Zm3.13,2.12c-3.8-1.2-8.87-.12-11.88,3.56-3.25,3.98-3.27,9.15-.08,13.17,2.96,3.71,8.1,4.9,11.98,3.64-1.14-.43-1.01-1.18-.64-1.99,.01-.03,.02-.06,.04-.09,.12-.21,.07-.38-.11-.55-.18-.17-.34-.22-.58-.13-.25,.1-.5,.17-.76,.25-.49,.14-.89,.03-1.17-.4-.35-.53-.76-1.02-1.03-1.59-.54-1.12-1.02-1.22,.45-2.36,.21-.16,.27-.32,.19-.58-.07-.25-.22-.32-.46-.36-.26-.04-.52-.11-.79-.16-.52-.1-.77-.41-.78-.91,0-.61,0-1.22,0-1.83,.01-1.24-.26-1.58,1.55-1.85,.02,0,.03-.01,.05-.01,.26,0,.36-.15,.43-.38,.08-.24,0-.39-.19-.53-.22-.17-.43-.36-.64-.54-.35-.31-.44-.68-.21-1.08,.31-.57,.58-1.15,.96-1.68,.9-1.25,.89-1.26,2.38-.81,.24,.07,.39,.07,.58-.1,.2-.19,.23-.36,.12-.59-.11-.25-.17-.52-.26-.78-.14-.4,0-.72,.35-.97,.15-.1,.3-.2,.5-.34Zm8.06,10.29c0-1.83-.43-3.45-1.26-4.99-.45-.84-.5-.86-1.45-.56-2.65,.83-4.31,3.18-4.16,5.87,.14,2.48,2.13,4.64,4.75,5.19,.3,.06,.44,0,.59-.26,1-1.66,1.51-3.44,1.52-5.25Zm-2.94-7.25c-.67-.75-1.49-1.32-2.32-1.9-.54-.37-.99-.39-1.51,0-.2,.15-.37,.23-.22,.51,.48,.87,.34,1.59-.55,2.14-.05,.03-.1,.09-.14,.14-.51,.71-1.16,.86-1.96,.46-.36-.18-.58-.11-.78,.26-.45,.82-.49,.81,.26,1.46,.38,.33,.52,.68,.35,1.15-.15,.41-.25,.83-.36,1.25-.1,.4-.35,.63-.77,.73-.33,.08-.81,0-.96,.28-.15,.28-.05,.69-.05,1.04,0,.02,0,.03,0,.05-.05,.25,.09,.36,.32,.37,1.07,.03,1.57,.59,1.64,1.56,0,.06,.04,.12,.07,.18,.37,.74,.2,1.33-.53,1.77-.42,.26-.42,.52-.15,.92,.48,.69,.46,.73,1.27,.44,.58-.2,1.03-.12,1.43,.34,.25,.3,.56,.55,.86,.81,.32,.29,.46,.62,.28,1.04-.07,.18-.16,.36-.18,.55-.02,.17-.29,.36,0,.5,.34,.17,.69,.6,1.05,.44,1.15-.53,2.13-1.29,2.96-2.22-3.44-1.18-5.52-3.4-5.63-6.89-.11-3.73,1.98-6.13,5.62-7.4Z"/><path class="cls-1" d="M42.25,36.15c2.37,.03,4.31,1.89,4.28,4.11-.02,2.24-2.01,4.12-4.32,4.08-2.37-.03-4.29-1.88-4.27-4.13,.02-2.26,1.96-4.1,4.31-4.07Zm.02,1.65c-1.42-.02-2.58,1.03-2.61,2.38-.03,1.37,1.08,2.49,2.52,2.53,1.39,.04,2.62-1.1,2.63-2.44,.02-1.33-1.12-2.44-2.54-2.47Z"/></svg>