<?xml version="1.0" encoding="UTF-8"?><svg id="Layer_1" xmlns="http://www.w3.org/2000/svg" viewBox="0 0 52.53 50.19"><defs><style>.cls-1{fill:#093A5B;}</style></defs><path class="cls-1" d="M42.07,45.15c-.3,.02-.5-.15-.72-.31-1.29-.95-2.57-1.89-3.85-2.85-.23-.18-.38-.18-.64-.03-1.74,1.03-3.62,1.75-5.6,2.22-.31,.07-.44,.19-.48,.49-.18,1.46-.38,2.91-.56,4.36-.12,.99-.3,1.15-1.35,1.15-1.84,0-3.68,0-5.52,0-.79,0-1.02-.18-1.13-.92-.2-1.44-.41-2.87-.56-4.31-.05-.5-.23-.71-.75-.84-1.89-.45-3.67-1.19-5.34-2.15-.28-.16-.44-.13-.69,.05-1.26,.95-2.53,1.88-3.81,2.82-.66,.48-.93,.46-1.52-.1-1.34-1.28-2.68-2.56-4.01-3.84-.54-.51-.56-.8-.09-1.37,1.02-1.23,2.04-2.46,3.07-3.68,.2-.23,.21-.39,.05-.65-1.06-1.65-1.81-3.43-2.3-5.3-.09-.36-.27-.45-.6-.49-1.52-.17-3.04-.36-4.57-.54C.18,28.75,0,28.56,0,27.66c0-1.77,0-3.55,0-5.32,0-.78,.19-1,1-1.1,1.52-.19,3.04-.38,4.57-.54,.41-.04,.65-.14,.76-.59,.46-1.85,1.25-3.58,2.27-5.2,.18-.29,.14-.45-.06-.7-.97-1.18-1.93-2.37-2.89-3.56-.56-.69-.54-.93,.08-1.53,1.32-1.27,2.65-2.53,3.98-3.8,.56-.53,.85-.55,1.48-.08,1.29,.97,2.57,1.95,3.85,2.93,.2,.15,.33,.22,.59,.06,1.77-1.05,3.68-1.77,5.7-2.26,.29-.07,.38-.19,.41-.43,.19-1.45,.39-2.91,.56-4.36C22.43,.16,22.6,0,23.67,0c1.82,0,3.64,0,5.46,0,.84,0,1.07,.18,1.18,.99,.2,1.47,.39,2.94,.57,4.41,.04,.34,.13,.52,.53,.62,1.95,.45,3.78,1.2,5.5,2.18,.29,.16,.46,.17,.73-.03,1.26-.96,2.53-1.89,3.8-2.82,.63-.47,.92-.45,1.48,.08,1.34,1.28,2.68,2.55,4.02,3.84,.57,.55,.59,.83,.07,1.45-1,1.2-1.99,2.41-3.01,3.6-.21,.25-.25,.41-.07,.69,1.08,1.66,1.82,3.46,2.31,5.35,.08,.3,.22,.38,.49,.41,1.52,.18,3.04,.37,4.57,.54,1.04,.12,1.21,.28,1.21,1.28,0,1.74,0,3.48,0,5.22,0,.84-.19,1.05-1.07,1.14-1.47,.16-2.94,.32-4.42,.44-.51,.04-.74,.21-.87,.71-.47,1.81-1.25,3.51-2.26,5.1-.15,.24-.15,.39,.03,.61,1.01,1.22,1.99,2.45,2.98,3.68,.49,.61,.47,.88-.09,1.41-1.35,1.29-2.7,2.58-4.05,3.87-.2,.2-.41,.39-.73,.37Zm8.83-20.01c0-.61-.02-1.23,0-1.84,.01-.32-.05-.47-.43-.51-1.52-.16-3.04-.38-4.56-.56-.77-.09-.94-.21-1.1-.94-.5-2.16-1.35-4.19-2.63-6.04-.4-.59-.39-.78,.06-1.32,.97-1.18,1.94-2.36,2.94-3.51,.26-.3,.21-.44-.06-.69-.91-.84-1.81-1.7-2.69-2.57-.24-.24-.39-.28-.68-.06-1.18,.9-2.39,1.78-3.59,2.67-.7,.52-.82,.52-1.57,.08-1.96-1.18-4.06-2.03-6.34-2.48-.57-.11-.83-.42-.89-.98-.17-1.49-.41-2.97-.58-4.46-.04-.32-.16-.37-.46-.37-1.34,.02-2.68,.02-4.02,0-.29,0-.39,.08-.42,.36-.18,1.47-.4,2.94-.59,4.41-.1,.75-.23,.9-.98,1.06-2.26,.48-4.38,1.29-6.32,2.51-.63,.4-.82,.38-1.43-.08-1.24-.94-2.49-1.88-3.72-2.84-.23-.18-.35-.16-.56,.03-.92,.9-1.85,1.8-2.8,2.67-.25,.23-.22,.38-.03,.62,.96,1.16,1.89,2.35,2.86,3.51,.37,.45,.42,.85,.09,1.34-1.28,1.89-2.18,3.93-2.66,6.14-.12,.54-.43,.8-1.02,.86-1.58,.17-3.15,.39-4.72,.57-.27,.03-.35,.12-.34,.37,.01,1.3,.01,2.59,0,3.89,0,.27,.06,.37,.36,.41,1.56,.18,3.11,.38,4.67,.57,.73,.09,.91,.23,1.07,.92,.5,2.18,1.35,4.23,2.66,6.08,.33,.47,.3,.86-.07,1.29-1,1.17-1.98,2.38-2.98,3.55-.2,.24-.23,.38,.03,.61,.94,.86,1.86,1.75,2.76,2.64,.23,.23,.38,.24,.64,.04,1.25-.94,2.51-1.85,3.76-2.79,.43-.32,.82-.34,1.27-.06,2.01,1.24,4.18,2.11,6.52,2.58,.55,.11,.79,.42,.86,.95,.18,1.49,.4,2.97,.59,4.46,.04,.29,.12,.4,.45,.39,1.34-.02,2.68-.02,4.02,0,.33,0,.41-.1,.44-.39,.18-1.47,.4-2.94,.59-4.41,.09-.7,.24-.87,.96-1.02,2.28-.48,4.42-1.29,6.37-2.54,.49-.31,.9-.29,1.35,.06,1.23,.93,2.49,1.83,3.72,2.76,.26,.2,.41,.19,.64-.04,.91-.89,1.83-1.77,2.76-2.64,.24-.22,.25-.36,.05-.61-.98-1.19-1.94-2.4-2.92-3.59-.34-.41-.36-.78-.06-1.21,1.3-1.92,2.22-3.99,2.71-6.23,.11-.52,.43-.76,1-.82,1.58-.14,3.16-.33,4.73-.48,.29-.03,.35-.13,.34-.38-.01-.65,0-1.3,0-1.94Z"/><path class="cls-1" d="M41.8,25.12c0,8.11-6.94,14.62-15.57,14.61-8.61,0-15.51-6.54-15.5-14.68,.01-8.08,6.98-14.6,15.6-14.59,8.55,.01,15.47,6.57,15.47,14.66Zm-10.76,8.99c0,.9,.02,1.81-.01,2.71-.02,.48,.13,.48,.53,.33,6.07-2.28,9.67-8.61,8.29-14.67-1.61-7.08-8.75-11.59-16.37-10.14-7.39,1.41-12.22,8.05-10.82,15.11,.93,4.67,3.84,7.84,8.37,9.72,.39,.16,.47,.08,.47-.31-.02-1.76-.02-3.51,0-5.27,0-.5-.16-.8-.58-1.1-5.16-3.76-4.44-11.3,1.33-13.95,.9-.41,1.44-.08,1.44,.89,0,1.42,0,2.83,0,4.25,0,.24,.05,.41,.29,.54,.68,.37,1.35,.77,2.01,1.17,.21,.13,.36,.13,.57,0,.63-.39,1.26-.77,1.92-1.12,.29-.15,.39-.33,.38-.64-.02-1.42,0-2.83,0-4.25,0-.92,.58-1.25,1.44-.83,5.86,2.88,6.5,10.29,1.2,14.05-.33,.23-.45,.48-.44,.86,.02,.89,0,1.77,0,2.66Zm-8.99-15.65c-.29,.23-.5,.37-.69,.54-3.28,2.85-2.98,7.75,.65,10.31,.79,.56,1.15,1.24,1.14,2.17-.02,1.93,0,3.85-.01,5.78,0,.3,.07,.45,.4,.51,1.81,.33,3.61,.35,5.42,.01,.32-.06,.43-.17,.43-.49-.02-1.89,.01-3.79-.02-5.68-.02-1,.35-1.73,1.21-2.35,3.71-2.65,3.84-7.68,.3-10.46-.11-.09-.2-.26-.4-.17,0,1.23,0,2.46,0,3.69,0,.42-.17,.71-.54,.92-1.02,.59-2.05,1.17-3.05,1.78-.45,.28-.84,.26-1.28-.01-.95-.58-1.9-1.14-2.87-1.68-.51-.28-.72-.63-.7-1.2,.03-1.19,.01-2.37,.01-3.68Z"/></svg>