<?xml version="1.0" encoding="UTF-8"?><svg id="Layer_1" xmlns="http://www.w3.org/2000/svg" viewBox="0 0 54.66 48.02"><defs><style>.cls-1{fill:#093A5B;}</style></defs><path class="cls-1" d="M26.41,48.02c-6.8,0-13.59,0-20.39,0-1.29,0-2.52-.2-3.64-.85-1.51-.89-2.24-2.21-2.37-3.88-.01-.19-.01-.39-.01-.58C0,30.8,0,18.89,0,6.98c0-1.82,.41-3.51,1.66-4.95C3.1,.37,5.01-.14,7.18,.03c.48,.04,.75,.4,.76,.94,0,1.46,.03,2.91-.01,4.37-.01,.51,.16,.58,.63,.58,12.86-.01,25.72,0,38.58,0,1.15,0,1.37,.21,1.37,1.33,0,1.93,0,3.86,0,5.79,0,.34-.05,.48-.46,.48-1.31-.02-1.31,0-1.31-1.23,0-1.37-.03-2.74,.01-4.11,.02-.51-.16-.58-.64-.58-12.51,.01-25.02,.01-37.53,0-.58,0-.66,.17-.66,.66,.02,10,.01,20,.01,30,0,1.17-.2,1.36-1.45,1.35-.78,0-1.54,.05-2.28,.29-1.7,.54-2.54,1.71-2.44,3.38,.1,1.53,1.17,2.64,2.86,2.96,.43,.08,.87,.12,1.31,.12,13.43,0,26.86,0,40.28,0,.48,0,.51-.17,.51-.53,0-6.11,0-12.21-.02-18.32,0-.43,.09-.56,.56-.54,1.22,.04,1.22,.01,1.22,1.17,0,6.23,0,12.46,0,18.69,0,.97-.25,1.21-1.26,1.21-6.94,0-13.89,0-20.83,0ZM1.77,39.25c1.27-.93,2.65-1.29,4.12-1.32,.38,0,.29-.23,.29-.42,0-11.8,0-23.61,.01-35.41,0-.39-.16-.42-.48-.38-1.49,.2-2.58,.95-3.27,2.21-.51,.94-.67,1.95-.67,3,0,6.7,0,13.4,0,20.1,0,4.03,0,8.07,0,12.22Z"/><path class="cls-1" d="M23.03,37.07c-2.46,0-4.92,0-7.38,0-1.43,0-2.42,.87-2.42,2.11,0,1.24,1,2.09,2.44,2.1,1.98,0,3.97,0,5.95,0,.32,0,.44,.05,.44,.39,0,1.3,.02,1.3-1.35,1.3-1.71,0-3.42,0-5.12,0-2.33,0-4.12-1.66-4.11-3.8,0-2.14,1.79-3.78,4.13-3.78,4.74,0,9.48,0,14.22,0,.41,0,.63-.11,.8-.46,1.51-3.17,3.75-5.78,6.39-8.19,4.42-4.04,8.67-8.24,13-12.37,1.31-1.25,3.23-1.15,4.2,.21,.67,.94,.62,2.15-.14,3.03-.14,.16-.3,.31-.45,.46-5.42,5.17-10.83,10.35-16.25,15.52-.26,.25-.55,.46-.87,.63-1.64,.86-3.28,1.72-4.91,2.59-.33,.18-.67,.25-1.05,.25-2.5,0-5,0-7.49,0Zm10.17-3.19c1.07-.44,2.19-.81,3.03-1.6,3.95-3.74,7.87-7.5,11.8-11.26,.88-.84,.87-.83,0-1.69-.3-.3-.46-.29-.76,0-3.48,3.34-6.95,6.69-10.47,10-1.35,1.27-2.65,2.56-3.42,4.25-.05,.1-.12,.2-.19,.29ZM52.04,15.18c-.32,0-.55,.15-.77,.36-.48,.46-.96,.91-1.43,1.38-.3,.3-.86,.56-.83,.91,.03,.33,.55,.61,.85,.91,.05,.05,.11,.1,.15,.15,.1,.11,.18,.08,.27,0,.81-.78,1.63-1.56,2.42-2.35,.24-.25,.25-.57,.08-.88-.16-.29-.42-.42-.75-.45Z"/><path class="cls-1" d="M18.55,9.28c2.26,0,4.52,0,6.77,0,.83,0,1.13,.29,1.13,1.07,0,2.65,0,5.29,0,7.94,0,.82-.3,1.09-1.17,1.09-.94,0-1.87,.02-2.81,0-.38-.01-.45,.11-.44,.44,.03,.67,.02,1.33,0,2-.01,.61-.35,.94-.99,.94-3.16,0-6.31,0-9.47,0-.65,0-.99-.32-.99-.94,0-3.86,0-7.71,0-11.57,0-.65,.34-.96,1.02-.96,2.31,0,4.63,0,6.94,0Zm-.03,1.68c-1.91,0-3.82,0-5.73,0-.23,0-.45-.07-.45,.32,.02,3.16,.01,6.32,0,9.47,0,.25,.07,.32,.34,.32,2.42,0,4.85,0,7.27,0,.27,0,.34-.07,.34-.32-.02-.68-.01-1.37,0-2.05,0-.69,.33-.99,1.04-1,.97,0,1.95-.02,2.92,0,.36,0,.46-.08,.45-.43-.02-1.96-.02-3.93,0-5.89,0-.34-.09-.43-.45-.43-1.91,.02-3.82,0-5.73,0Z"/><path class="cls-1" d="M29.11,21.07c1.39,0,2.79,0,4.18,0,.78,0,1.09,.3,1.1,1.05,0,1,0,2,0,3,0,.68-.33,1-1.04,1-.97,0-1.95,.02-2.92,0-.34,0-.47,.06-.46,.42,.03,1.17,.01,2.35,0,3.52,0,.83-.29,1.12-1.14,1.12-1.32,0-2.64,0-3.96,0-.75,0-1.07-.31-1.07-1.03,0-2.68,0-5.36,0-8.04,0-.74,.31-1.03,1.12-1.03,1.39,0,2.79,0,4.18,0Zm-3.54,5.05c0,1,.01,2,0,3,0,.3,.09,.39,.4,.37,.62-.02,1.25-.02,1.87,0,.32,.01,.4-.09,.39-.38-.02-1.25-.01-2.49,0-3.74,0-.62,.34-.93,.99-.94,.7,0,1.4,0,2.09,0,1.36,0,1.35,0,1.33-1.32,0-.3-.09-.38-.4-.38-2.09,.01-4.19,.01-6.28,0-.31,0-.4,.08-.39,.38,.02,1,0,2,0,3Z"/><path class="cls-1" d="M38.78,44.65c-1.38,0-2.75,0-4.13,0-.83,0-1.14-.29-1.14-1.06,0-1,0-2,0-3,0-.68,.33-.99,1.05-.99,.99,0,1.98-.01,2.97,0,.31,0,.4-.07,.4-.37-.02-.95-.01-1.89,0-2.84,0-.69,.32-1,1.04-1,1.38,0,2.75,0,4.13,0,.67,0,1,.32,1,.98,0,2.44,0,4.87,0,7.31,0,.65-.33,.97-1.01,.97-1.43,0-2.86,0-4.29,0Zm.02-1.68c1.05,0,2.09,0,3.14,0,.24,0,.4,0,.4-.32-.02-1.75-.01-3.51,0-5.26,0-.25-.07-.33-.34-.32-.64,.02-1.29,.02-1.93,0-.31-.01-.4,.08-.39,.38,.02,.96,.01,1.93,0,2.89,0,.62-.34,.93-.99,.94-.7,.01-1.4,0-2.09,0-1.36,0-1.35,0-1.33,1.32,0,.3,.08,.38,.4,.38,1.05-.02,2.09,0,3.14,0Z"/><path class="cls-1" d="M34.4,17.7c-1.41,0-2.83,0-4.24,0-.75,0-1.06-.31-1.06-1.03,0-2.12,0-4.24,0-6.36,0-.72,.32-1.03,1.06-1.03,2.83,0,5.65,0,8.48,0,.71,0,1.04,.32,1.04,1,0,2.14,0,4.28,0,6.41,0,.7-.33,1-1.09,1-1.39,0-2.79,0-4.18,0Zm-.01-6.74c-1.05,0-2.09,.01-3.14,0-.31,0-.4,.08-.39,.38,.02,1.44,.02,2.88,0,4.32,0,.3,.08,.38,.39,.38,2.09-.01,4.19-.01,6.28,0,.31,0,.4-.08,.39-.38-.02-1.44-.02-2.88,0-4.32,0-.3-.08-.38-.39-.38-1.05,.02-2.09,0-3.14,0Z"/><path class="cls-1" d="M16.3,25.28c1.54,0,3.08,0,4.62,0,.82,0,1.12,.29,1.12,1.08,0,1.26,0,2.52,0,3.78,0,.72-.32,1.03-1.07,1.03-3.12,0-6.24,0-9.36,0-.71,0-1.04-.31-1.04-1,0-1.28,0-2.56,0-3.84,0-.76,.31-1.05,1.09-1.05,1.54,0,3.08,0,4.62,0Zm.02,4.21c1.19,0,2.39-.01,3.58,0,.31,0,.41-.08,.39-.38-.02-.61-.02-1.23,0-1.84,0-.25-.07-.32-.34-.32-2.42,0-4.85,0-7.27,0-.26,0-.35,.07-.34,.32,.02,.61,.02,1.23,0,1.84-.01,.3,.08,.38,.39,.38,1.19-.02,2.39,0,3.58,0Z"/><path class="cls-1" d="M24.71,41.28q.86,0,.86,.81t-.9,.88-.86-.81,.9-.88Z"/></svg>