<?xml version="1.0" encoding="UTF-8"?><svg id="Layer_1" xmlns="http://www.w3.org/2000/svg" viewBox="0 0 13.33 9.37"><defs><style>.cls-1{fill:#fff;}</style></defs><path class="cls-1" d="M0,.96c.05-.06,.05-.14,.08-.21,.03-.08,.05-.09,.12-.02,.41,.42,.83,.83,1.24,1.24,.87,.87,1.74,1.75,2.62,2.62,.07,.07,.07,.11,0,.18-1.28,1.28-2.55,2.56-3.83,3.84-.1,.11-.1,.1-.16-.03-.02-.06-.02-.13-.07-.17V.96Z"/><path class="cls-1" d="M12.65,.12c-.2,.2-.4,.39-.59,.58-1.68,1.68-3.35,3.36-5.03,5.04-.24,.24-.5,.24-.74,0C4.46,3.9,2.62,2.05,.78,.2c-.03-.03-.05-.06-.08-.09C.83,.04,.96,.02,1.11,0c.05,0,.1,0,.14,0C4.86,0,8.47,0,12.08,0c.19,0,.38,.02,.57,.12Z"/><path class="cls-1" d="M.68,9.25c.18-.17,.34-.33,.51-.5,1.14-1.14,2.27-2.28,3.41-3.42,.09-.09,.12-.07,.2,0,.32,.33,.64,.65,.96,.97,.53,.53,1.28,.53,1.82,0,.33-.33,.66-.66,.99-1,.05-.05,.08-.07,.14,0,1.3,1.3,2.6,2.61,3.89,3.91,.01,.01,.02,.03,.04,.04-.13,.07-.27,.1-.41,.11-.05,0-.1,0-.14,0-3.61,0-7.22,0-10.83,0-.19,0-.38-.02-.57-.12Z"/><path class="cls-1" d="M13.33,4.7c0,1.15,0,2.3,0,3.45,0,.16-.03,.31-.08,.46-.03,.09-.06,.1-.13,.03-.41-.41-.82-.82-1.23-1.24-.87-.88-1.74-1.75-2.62-2.62-.07-.07-.07-.11,0-.18,1.28-1.28,2.55-2.56,3.83-3.84q.1-.1,.15,.04c.05,.14,.07,.28,.07,.42,0,1.16,0,2.32,0,3.49Z"/></svg>