<?xml version="1.0" encoding="UTF-8"?><svg id="Layer_1" xmlns="http://www.w3.org/2000/svg" viewBox="0 0 7.96 11.94"><defs><style>.cls-1{fill:#fff;}</style></defs><path class="cls-1" d="M3.89,11.94c-.09-.07-.15-.17-.21-.27-1.05-1.91-2.11-3.81-3.16-5.72C.18,5.35,0,4.7,0,4.02,0,2.86,.42,1.87,1.26,1.08,1.8,.57,2.44,.23,3.17,.09c.99-.2,1.92-.05,2.8,.45,.89,.52,1.5,1.27,1.81,2.25,.34,1.08,.23,2.13-.31,3.12-1.07,1.95-2.15,3.89-3.23,5.84-.05,.08-.1,.15-.19,.19h-.16Zm.11-9.95c-1.12,0-1.99,.89-2.01,1.96-.02,1.08,.85,1.99,1.94,2.02,1.1,.03,2.01-.84,2.04-1.95,.03-1.09-.85-1.99-1.97-2.02Z"/></svg>