<?xml version="1.0" encoding="UTF-8"?><svg id="Layer_1" xmlns="http://www.w3.org/2000/svg" viewBox="0 0 11.72 11.73"><defs><style>.cls-1{fill:#fff;}</style></defs><path class="cls-1" d="M8.76,11.73c-.07-.04-.16-.04-.24-.05-.79-.14-1.5-.46-2.19-.86-1.48-.85-2.74-1.96-3.85-3.24-.72-.82-1.35-1.71-1.84-2.69C.34,4.27,.1,3.64,.02,2.96c-.06-.49-.03-.96,.26-1.39,.05-.08,.11-.14,.18-.21,.33-.33,.68-.66,1-1.01,.49-.51,1.24-.44,1.69,0,.52,.51,1.03,1.03,1.55,1.55,.43,.44,.48,1.06,.12,1.51-.12,.15-.27,.25-.44,.31-.32,.12-.57,.31-.71,.63-.09,.21-.11,.43-.05,.66,.17,.65,.55,1.19,.99,1.67,.45,.49,.95,.9,1.55,1.19,.26,.13,.53,.24,.83,.21,.47-.05,.81-.29,.96-.74,.23-.71,1.2-1,1.82-.39,.54,.53,1.08,1.07,1.61,1.61,.19,.19,.3,.41,.32,.68,0,.02,0,.03,.02,.03v.16s-.02,.04-.02,.06c-.03,.28-.15,.52-.35,.72-.34,.34-.69,.68-1.03,1.03-.21,.21-.45,.34-.74,.41-.08,.02-.17,.01-.25,.05h-.57Z"/></svg>